%TF.GenerationSoftware,Altium Limited,Altium Designer,23.2.1 (34)*%
G04 Layer_Color=65535*
%FSLAX26Y26*%
%MOIN*%
%TF.SameCoordinates,C295F6C5-B72E-4061-B5E5-0E097F681155*%
%TF.FilePolarity,Positive*%
%TF.FileFunction,Legend,Top*%
%TF.Part,Single*%
G01*
G75*
%TA.AperFunction,NonConductor*%
%ADD24C,0.007874*%
%ADD25C,0.019685*%
%ADD26C,0.010000*%
%ADD27C,0.005000*%
%ADD28C,0.006000*%
%ADD29C,0.030000*%
G36*
X-916731Y583750D02*
X-915096D01*
Y578846D01*
X-911827D01*
Y577212D01*
X-903654D01*
Y575577D01*
X-902019D01*
Y562500D01*
X-903654D01*
Y560865D01*
X-905288D01*
Y559231D01*
X-918365D01*
Y546154D01*
X-916731D01*
Y542885D01*
X-915096D01*
Y539615D01*
X-913462D01*
Y537981D01*
X-911827D01*
Y534712D01*
X-910192D01*
Y531442D01*
X-908558D01*
Y526538D01*
X-906923D01*
Y515096D01*
X-908558D01*
Y510192D01*
X-910192D01*
Y508558D01*
X-911827D01*
Y505288D01*
X-913462D01*
Y503654D01*
X-915096D01*
Y502019D01*
X-916731D01*
Y495481D01*
X-915096D01*
Y493846D01*
X-913462D01*
Y492212D01*
X-911827D01*
Y490577D01*
X-903654D01*
Y492212D01*
X-893846D01*
Y493846D01*
X-885673D01*
Y495481D01*
X-877500D01*
Y497115D01*
X-869327D01*
Y498750D01*
X-861154D01*
Y500385D01*
X-851346D01*
Y502019D01*
X-836635D01*
Y503654D01*
X-810481D01*
Y502019D01*
X-803942D01*
Y500385D01*
X-800673D01*
Y498750D01*
X-797404D01*
Y497115D01*
X-794135D01*
Y495481D01*
X-790865D01*
Y493846D01*
X-789231D01*
Y492212D01*
X-787596D01*
Y490577D01*
X-785962D01*
Y488942D01*
X-784327D01*
Y487308D01*
X-782692D01*
Y485673D01*
X-781058D01*
Y484038D01*
X-779423D01*
Y480769D01*
X-777788D01*
Y477500D01*
X-776154D01*
Y472596D01*
X-774519D01*
Y466058D01*
X-772885D01*
Y448077D01*
X-774519D01*
Y441538D01*
X-776154D01*
Y436635D01*
X-777788D01*
Y431731D01*
X-779423D01*
Y428462D01*
X-781058D01*
Y425192D01*
X-782692D01*
Y421923D01*
X-784327D01*
Y418654D01*
X-785962D01*
Y415385D01*
X-787596D01*
Y413750D01*
X-789231D01*
Y410481D01*
X-790865D01*
Y408846D01*
X-792500D01*
Y405577D01*
X-794135D01*
Y402308D01*
X-795769D01*
Y400673D01*
X-797404D01*
Y397404D01*
X-799038D01*
Y395769D01*
X-800673D01*
Y392500D01*
X-802308D01*
Y390865D01*
X-803942D01*
Y387596D01*
X-805577D01*
Y384327D01*
X-807212D01*
Y382692D01*
X-808846D01*
Y379423D01*
X-810481D01*
Y376154D01*
X-812115D01*
Y372885D01*
X-813750D01*
Y369615D01*
X-815385D01*
Y366346D01*
X-817019D01*
Y363077D01*
X-818654D01*
Y359808D01*
X-820288D01*
Y356538D01*
X-821923D01*
Y351635D01*
X-823558D01*
Y341827D01*
X-825192D01*
Y340192D01*
X-835000D01*
Y341827D01*
X-852981D01*
Y343462D01*
X-869327D01*
Y345096D01*
X-885673D01*
Y346731D01*
X-902019D01*
Y348365D01*
X-920000D01*
Y350000D01*
X-937981D01*
Y351635D01*
X-954327D01*
Y353269D01*
X-972308D01*
Y354904D01*
X-990288D01*
Y356538D01*
X-1008269D01*
Y358173D01*
X-1026250D01*
Y359808D01*
X-1042596D01*
Y361442D01*
X-1058942D01*
Y363077D01*
X-1068750D01*
Y364712D01*
X-1070385D01*
Y381058D01*
X-1072019D01*
Y389231D01*
X-1073654D01*
Y395769D01*
X-1075289D01*
Y400673D01*
X-1076923D01*
Y405577D01*
X-1078558D01*
Y410481D01*
X-1080192D01*
Y413750D01*
X-1081827D01*
Y418654D01*
X-1083462D01*
Y421923D01*
X-1085096D01*
Y426827D01*
X-1086731D01*
Y431731D01*
X-1088365D01*
Y435000D01*
X-1090000D01*
Y439904D01*
X-1091635D01*
Y444808D01*
X-1093269D01*
Y449712D01*
X-1094904D01*
Y454615D01*
X-1096539D01*
Y459519D01*
X-1098173D01*
Y467692D01*
X-1099808D01*
Y487308D01*
X-1098173D01*
Y493846D01*
X-1096539D01*
Y497115D01*
X-1094904D01*
Y502019D01*
X-1093269D01*
Y503654D01*
X-1091635D01*
Y506923D01*
X-1090000D01*
Y510192D01*
X-1088365D01*
Y511827D01*
X-1086731D01*
Y513462D01*
X-1085096D01*
Y515096D01*
X-1083462D01*
Y516731D01*
X-1081827D01*
Y518365D01*
X-1078558D01*
Y520000D01*
X-1076923D01*
Y521635D01*
X-1073654D01*
Y523269D01*
X-1068750D01*
Y524904D01*
X-1040962D01*
Y523269D01*
X-1032789D01*
Y521635D01*
X-1026250D01*
Y520000D01*
X-1021346D01*
Y518365D01*
X-1016442D01*
Y516731D01*
X-1011538D01*
Y515096D01*
X-1006635D01*
Y513462D01*
X-1003365D01*
Y511827D01*
X-998462D01*
Y510192D01*
X-995192D01*
Y508558D01*
X-990288D01*
Y506923D01*
X-987019D01*
Y505288D01*
X-983750D01*
Y503654D01*
X-978846D01*
Y502019D01*
X-975577D01*
Y500385D01*
X-970673D01*
Y498750D01*
X-965769D01*
Y497115D01*
X-959231D01*
Y495481D01*
X-955962D01*
Y497115D01*
X-952692D01*
Y498750D01*
X-951058D01*
Y500385D01*
X-949423D01*
Y505288D01*
X-951058D01*
Y508558D01*
X-952692D01*
Y511827D01*
X-954327D01*
Y516731D01*
X-955962D01*
Y524904D01*
X-954327D01*
Y531442D01*
X-952692D01*
Y534712D01*
X-951058D01*
Y536346D01*
X-949423D01*
Y539615D01*
X-947788D01*
Y541250D01*
X-946154D01*
Y542885D01*
X-944519D01*
Y544519D01*
X-941250D01*
Y546154D01*
X-939615D01*
Y547788D01*
X-937981D01*
Y551058D01*
X-936346D01*
Y560865D01*
X-937981D01*
Y562500D01*
X-951058D01*
Y580481D01*
X-937981D01*
Y582115D01*
X-936346D01*
Y583750D01*
X-934712D01*
Y590288D01*
X-933077D01*
Y595192D01*
X-916731D01*
Y583750D01*
D02*
G37*
G36*
X-1050769Y345096D02*
X-1031154D01*
Y343462D01*
X-1013173D01*
Y341827D01*
X-996827D01*
Y340192D01*
X-978846D01*
Y338558D01*
X-960865D01*
Y336923D01*
X-944519D01*
Y335288D01*
X-926538D01*
Y333654D01*
X-910192D01*
Y332019D01*
X-892212D01*
Y330385D01*
X-875865D01*
Y328750D01*
X-857885D01*
Y327115D01*
X-841538D01*
Y325481D01*
X-826827D01*
Y323846D01*
X-825192D01*
Y322212D01*
X-823558D01*
Y310769D01*
X-825192D01*
Y304231D01*
X-826827D01*
Y302596D01*
X-839904D01*
Y304231D01*
X-857885D01*
Y305865D01*
X-875865D01*
Y307500D01*
X-892212D01*
Y309135D01*
X-908558D01*
Y310769D01*
X-924904D01*
Y312404D01*
X-942885D01*
Y314038D01*
X-959231D01*
Y315673D01*
X-975577D01*
Y317308D01*
X-993558D01*
Y318942D01*
X-1011538D01*
Y320577D01*
X-1029519D01*
Y322212D01*
X-1049135D01*
Y323846D01*
X-1067115D01*
Y325481D01*
X-1076923D01*
Y336923D01*
X-1075289D01*
Y346731D01*
X-1050769D01*
Y345096D01*
D02*
G37*
G36*
X-808846Y274808D02*
X-805577D01*
Y273173D01*
X-802308D01*
Y271538D01*
X-800673D01*
Y269904D01*
X-799038D01*
Y268269D01*
X-797404D01*
Y266635D01*
X-795769D01*
Y265000D01*
X-794135D01*
Y263365D01*
X-792500D01*
Y261731D01*
X-790865D01*
Y260096D01*
X-789231D01*
Y258462D01*
X-787596D01*
Y255192D01*
X-785962D01*
Y253558D01*
X-784327D01*
Y250288D01*
X-782692D01*
Y243750D01*
X-781058D01*
Y219231D01*
X-782692D01*
Y214327D01*
X-784327D01*
Y211058D01*
X-785962D01*
Y207788D01*
X-787596D01*
Y206154D01*
X-789231D01*
Y202885D01*
X-790865D01*
Y201250D01*
X-792500D01*
Y199615D01*
X-794135D01*
Y197981D01*
X-795769D01*
Y196346D01*
X-797404D01*
Y194712D01*
X-800673D01*
Y193077D01*
X-802308D01*
Y191442D01*
X-805577D01*
Y189808D01*
X-807212D01*
Y188173D01*
X-810481D01*
Y186538D01*
X-812115D01*
Y188173D01*
X-813750D01*
Y245385D01*
Y247019D01*
Y276442D01*
X-808846D01*
Y274808D01*
D02*
G37*
G36*
X-1090000Y186538D02*
X-1093269D01*
Y188173D01*
X-1094904D01*
Y189808D01*
X-1098173D01*
Y191442D01*
X-1099808D01*
Y193077D01*
X-1101442D01*
Y194712D01*
X-1103077D01*
Y196346D01*
X-1104712D01*
Y197981D01*
X-1106346D01*
Y199615D01*
X-1107981D01*
Y201250D01*
X-1109615D01*
Y202885D01*
X-1111250D01*
Y204519D01*
X-1112885D01*
Y206154D01*
X-1114519D01*
Y207788D01*
X-1116154D01*
Y211058D01*
X-1117789D01*
Y215962D01*
X-1119423D01*
Y222500D01*
X-1121058D01*
Y243750D01*
X-1119423D01*
Y248654D01*
X-1117789D01*
Y251923D01*
X-1116154D01*
Y255192D01*
X-1114519D01*
Y256827D01*
X-1112885D01*
Y260096D01*
X-1111250D01*
Y261731D01*
X-1109615D01*
Y263365D01*
X-1107981D01*
Y265000D01*
X-1106346D01*
Y266635D01*
X-1104712D01*
Y268269D01*
X-1103077D01*
Y269904D01*
X-1101442D01*
Y271538D01*
X-1098173D01*
Y273173D01*
X-1094904D01*
Y274808D01*
X-1091635D01*
Y276442D01*
X-1090000D01*
Y186538D01*
D02*
G37*
G36*
X-1073654Y312404D02*
X-1057308D01*
Y310769D01*
X-1039327D01*
Y309135D01*
X-1021346D01*
Y307500D01*
X-1003365D01*
Y305865D01*
X-987019D01*
Y304231D01*
X-970673D01*
Y302596D01*
X-954327D01*
Y300962D01*
X-937981D01*
Y299327D01*
X-921635D01*
Y297692D01*
X-905288D01*
Y296058D01*
X-888942D01*
Y294423D01*
X-870962D01*
Y292788D01*
X-854615D01*
Y291154D01*
X-838269D01*
Y289519D01*
X-826827D01*
Y287885D01*
X-825192D01*
Y166923D01*
X-1076923D01*
Y314038D01*
X-1073654D01*
Y312404D01*
D02*
G37*
%LPC*%
G36*
X-1042596Y508558D02*
X-1055673D01*
Y506923D01*
X-1063846D01*
Y505288D01*
X-1067115D01*
Y503654D01*
X-1070385D01*
Y502019D01*
X-1072019D01*
Y500385D01*
X-1073654D01*
Y498750D01*
X-1075289D01*
Y495481D01*
X-1076923D01*
Y492212D01*
X-1078558D01*
Y488942D01*
X-1080192D01*
Y464423D01*
X-1078558D01*
Y457885D01*
X-1076923D01*
Y452981D01*
X-1075289D01*
Y448077D01*
X-1073654D01*
Y443173D01*
X-1072019D01*
Y439904D01*
X-1070385D01*
Y435000D01*
X-1068750D01*
Y431731D01*
X-1067115D01*
Y428462D01*
X-1065481D01*
Y425192D01*
X-1063846D01*
Y421923D01*
X-1062212D01*
Y418654D01*
X-1060577D01*
Y415385D01*
X-1058942D01*
Y412115D01*
X-1057308D01*
Y408846D01*
X-1055673D01*
Y407212D01*
Y405577D01*
X-1054039D01*
Y403942D01*
X-1052404D01*
Y400673D01*
X-1050769D01*
Y397404D01*
X-1049135D01*
Y395769D01*
X-1047500D01*
Y394135D01*
X-1045865D01*
Y390865D01*
X-1044231D01*
Y389231D01*
X-1042596D01*
Y387596D01*
X-1040962D01*
Y385962D01*
X-1039327D01*
Y384327D01*
X-1037692D01*
Y382692D01*
X-1034423D01*
Y381058D01*
X-1031154D01*
Y379423D01*
X-1022981D01*
Y381058D01*
X-1021346D01*
Y382692D01*
X-1019712D01*
Y385962D01*
X-1018077D01*
Y395769D01*
X-1019712D01*
Y399038D01*
X-1021346D01*
Y400673D01*
X-1022981D01*
Y402308D01*
X-1036058D01*
Y403942D01*
X-1039327D01*
Y407212D01*
X-1040962D01*
Y413750D01*
X-1042596D01*
Y418654D01*
X-1021346D01*
Y420288D01*
X-1022981D01*
Y435000D01*
X-1014808D01*
Y433365D01*
X-1009904D01*
Y431731D01*
X-1008269D01*
Y430096D01*
X-1006635D01*
Y425192D01*
X-1005000D01*
Y418654D01*
X-1003365D01*
Y417019D01*
X-1001731D01*
Y415385D01*
X-995192D01*
Y413750D01*
X-988654D01*
Y412115D01*
X-987019D01*
Y410481D01*
X-985385D01*
Y400673D01*
X-987019D01*
Y399038D01*
X-1001731D01*
Y397404D01*
X-1003365D01*
Y394135D01*
X-1001731D01*
Y389231D01*
X-1000096D01*
Y385962D01*
X-998462D01*
Y384327D01*
X-996827D01*
Y382692D01*
X-995192D01*
Y381058D01*
X-993558D01*
Y379423D01*
X-991923D01*
Y377788D01*
X-988654D01*
Y376154D01*
X-985385D01*
Y374519D01*
X-978846D01*
Y376154D01*
X-975577D01*
Y377788D01*
X-973942D01*
Y379423D01*
X-972308D01*
Y381058D01*
X-970673D01*
Y382692D01*
X-969038D01*
Y384327D01*
X-967404D01*
Y387596D01*
X-965769D01*
Y389231D01*
X-964135D01*
Y392500D01*
X-962500D01*
Y395769D01*
X-960865D01*
Y400673D01*
X-959231D01*
Y412115D01*
X-957596D01*
Y420288D01*
X-959231D01*
Y435000D01*
X-960865D01*
Y443173D01*
X-962500D01*
Y451346D01*
X-964135D01*
Y456250D01*
X-965769D01*
Y464423D01*
X-967404D01*
Y472596D01*
X-969038D01*
Y477500D01*
X-970673D01*
Y479135D01*
X-973942D01*
Y480769D01*
X-975577D01*
Y482404D01*
X-978846D01*
Y484038D01*
X-982115D01*
Y485673D01*
X-985385D01*
Y487308D01*
X-988654D01*
Y488942D01*
X-991923D01*
Y490577D01*
X-995192D01*
Y492212D01*
X-998462D01*
Y493846D01*
X-1001731D01*
Y495481D01*
X-1005000D01*
Y497115D01*
X-1009904D01*
Y498750D01*
X-1013173D01*
Y500385D01*
X-1018077D01*
Y502019D01*
X-1021346D01*
Y503654D01*
X-1026250D01*
Y505288D01*
X-1032789D01*
Y506923D01*
X-1042596D01*
Y508558D01*
D02*
G37*
G36*
X-817019Y487308D02*
X-841538D01*
Y485673D01*
X-851346D01*
Y484038D01*
X-861154D01*
Y482404D01*
X-867692D01*
Y480769D01*
X-874231D01*
Y479135D01*
X-880769D01*
Y477500D01*
X-885673D01*
Y475865D01*
X-890577D01*
Y474231D01*
X-895481D01*
Y472596D01*
X-898750D01*
Y470962D01*
X-902019D01*
Y469327D01*
X-903654D01*
Y466058D01*
X-905288D01*
Y462788D01*
X-906923D01*
Y457885D01*
X-908558D01*
Y454615D01*
X-910192D01*
Y451346D01*
X-911827D01*
Y448077D01*
X-913462D01*
Y443173D01*
X-915096D01*
Y439904D01*
X-916731D01*
Y436635D01*
X-918365D01*
Y431731D01*
X-920000D01*
Y428462D01*
X-921635D01*
Y423558D01*
X-923269D01*
Y417019D01*
X-924904D01*
Y402308D01*
X-926538D01*
Y395769D01*
X-924904D01*
Y387596D01*
X-923269D01*
Y382692D01*
X-921635D01*
Y379423D01*
X-920000D01*
Y376154D01*
X-918365D01*
Y374519D01*
X-916731D01*
Y372885D01*
X-915096D01*
Y371250D01*
X-913462D01*
Y369615D01*
X-910192D01*
Y367981D01*
X-900385D01*
Y369615D01*
X-897115D01*
Y371250D01*
X-893846D01*
Y372885D01*
X-892212D01*
Y374519D01*
X-890577D01*
Y376154D01*
X-888942D01*
Y379423D01*
X-887308D01*
Y381058D01*
X-885673D01*
Y387596D01*
X-895481D01*
Y389231D01*
X-902019D01*
Y394135D01*
X-900385D01*
Y399038D01*
X-898750D01*
Y402308D01*
X-897115D01*
Y403942D01*
X-880769D01*
Y405577D01*
X-879135D01*
Y407212D01*
X-877500D01*
Y410481D01*
X-875865D01*
Y415385D01*
X-874231D01*
Y417019D01*
X-872596D01*
Y418654D01*
X-857885D01*
Y410481D01*
X-859519D01*
Y407212D01*
X-861154D01*
Y403942D01*
X-859519D01*
Y402308D01*
X-846442D01*
Y400673D01*
X-843173D01*
Y390865D01*
X-844808D01*
Y389231D01*
X-846442D01*
Y387596D01*
X-849712D01*
Y385962D01*
X-864423D01*
Y384327D01*
X-867692D01*
Y382692D01*
X-869327D01*
Y381058D01*
X-870962D01*
Y367981D01*
X-869327D01*
Y364712D01*
X-854615D01*
Y366346D01*
X-851346D01*
Y367981D01*
X-848077D01*
Y369615D01*
X-846442D01*
Y371250D01*
X-844808D01*
Y372885D01*
X-843173D01*
Y374519D01*
X-841538D01*
Y376154D01*
X-839904D01*
Y377788D01*
X-838269D01*
Y379423D01*
X-836635D01*
Y381058D01*
X-835000D01*
Y382692D01*
X-833365D01*
Y384327D01*
X-831731D01*
Y385962D01*
X-830096D01*
Y387596D01*
X-828462D01*
Y390865D01*
X-826827D01*
Y392500D01*
X-825192D01*
Y394135D01*
X-823558D01*
Y395769D01*
X-821923D01*
Y399038D01*
X-820288D01*
Y400673D01*
X-818654D01*
Y402308D01*
X-817019D01*
Y405577D01*
X-815385D01*
Y407212D01*
X-813750D01*
Y408846D01*
X-812115D01*
Y412115D01*
X-810481D01*
Y413750D01*
X-808846D01*
Y417019D01*
X-807212D01*
Y418654D01*
X-805577D01*
Y421923D01*
X-803942D01*
Y425192D01*
X-802308D01*
Y426827D01*
X-800673D01*
Y430096D01*
X-799038D01*
Y433365D01*
X-797404D01*
Y438269D01*
X-795769D01*
Y443173D01*
X-794135D01*
Y449712D01*
X-792500D01*
Y469327D01*
X-794135D01*
Y472596D01*
X-795769D01*
Y474231D01*
X-797404D01*
Y475865D01*
X-799038D01*
Y477500D01*
X-800673D01*
Y479135D01*
X-802308D01*
Y480769D01*
X-805577D01*
Y482404D01*
X-808846D01*
Y484038D01*
X-812115D01*
Y485673D01*
X-817019D01*
Y487308D01*
D02*
G37*
G36*
X-895481Y235577D02*
X-898750D01*
Y233942D01*
X-900385D01*
Y232308D01*
X-902019D01*
Y225769D01*
X-900385D01*
Y224135D01*
X-893846D01*
Y225769D01*
X-892212D01*
Y227404D01*
X-890577D01*
Y230673D01*
X-892212D01*
Y232308D01*
X-893846D01*
Y233942D01*
X-895481D01*
Y235577D01*
D02*
G37*
G36*
X-1006635Y233942D02*
X-1009904D01*
Y232308D01*
X-1011538D01*
Y229038D01*
X-1013173D01*
Y225769D01*
X-1011538D01*
Y222500D01*
X-1009904D01*
Y220865D01*
X-1006635D01*
Y222500D01*
X-1003365D01*
Y225769D01*
X-1001731D01*
Y229038D01*
X-1003365D01*
Y232308D01*
X-1006635D01*
Y233942D01*
D02*
G37*
G36*
X-939615Y201250D02*
X-965769D01*
Y199615D01*
X-967404D01*
Y197981D01*
X-965769D01*
Y196346D01*
X-937981D01*
Y199615D01*
X-939615D01*
Y201250D01*
D02*
G37*
%LPD*%
D24*
X-799409Y4000000D02*
G03*
X-799409Y4000000I-3937J0D01*
G01*
X-402953Y2944095D02*
X-297047D01*
Y3555905D01*
X-402953D02*
X-297047D01*
X-402953Y2944095D02*
Y3555905D01*
X297047D02*
X402953D01*
X297047Y2944095D02*
Y3555905D01*
Y2944095D02*
X402953D01*
Y3555905D01*
D25*
X-709961Y4238779D02*
G03*
X-709961Y4238779I-8622J0D01*
G01*
D26*
X2000000Y4100000D02*
Y4800000D01*
X1470000D02*
X2000000D01*
X1470000Y4100000D02*
Y4800000D01*
Y4100000D02*
X2000000D01*
X-750000Y2150000D02*
X700000D01*
X-750000D02*
Y2850000D01*
X700000D01*
Y2150000D02*
Y2850000D01*
X-1319094Y727756D02*
Y1987599D01*
Y727756D02*
X1358071D01*
Y1987599D01*
X-1319094D02*
X1358071D01*
X2000000Y2900000D02*
Y3950000D01*
X1540000Y2900000D02*
X2000000D01*
X1540000D02*
Y3190000D01*
X810000D02*
X1540000D01*
X810000D02*
Y3660000D01*
X1540000D01*
Y3950000D01*
X2000000D01*
X-2000000Y2900000D02*
X-1540000D01*
Y3190000D01*
X-810000D01*
Y3660000D01*
X-1540000D02*
X-810000D01*
X-1540000D02*
Y3950000D01*
X-2000000D02*
X-1540000D01*
X-2000000Y2900000D02*
Y3950000D01*
X-200000Y2900000D02*
X200000D01*
Y3600000D01*
X-200000D02*
X200000D01*
X-200000Y2900000D02*
Y3600000D01*
X-899803Y4209213D02*
Y4610787D01*
X-960236Y4209213D02*
X-899803D01*
X-964528Y4610787D02*
X-899803D01*
X2000000Y800000D02*
Y1600000D01*
X1400000D02*
X2000000D01*
X1400000Y800000D02*
Y1600000D01*
Y800000D02*
X2000000D01*
X-1395000Y790000D02*
Y1590000D01*
X-1995000D02*
X-1395000D01*
X-1995000Y790000D02*
Y1590000D01*
Y790000D02*
X-1395000D01*
X-350000Y5000D02*
X350000D01*
Y535000D01*
X-350000D02*
X350000D01*
X-350000Y5000D02*
Y535000D01*
Y4800000D02*
X350000D01*
X-350000Y4270000D02*
Y4800000D01*
Y4270000D02*
X350000D01*
Y4800000D01*
X-2000000Y4100000D02*
Y4800000D01*
Y4100000D02*
X-1470000D01*
Y4800000D01*
X-2000000D02*
X-1470000D01*
X1360000Y4719981D02*
Y4669997D01*
X1369997Y4660000D01*
X1389990D01*
X1399987Y4669997D01*
Y4719981D01*
X1459968D02*
X1439974Y4709984D01*
X1419981Y4689990D01*
Y4669997D01*
X1429977Y4660000D01*
X1449971D01*
X1459968Y4669997D01*
Y4679993D01*
X1449971Y4689990D01*
X1419981D01*
X-890000Y2469981D02*
Y2419997D01*
X-880003Y2410000D01*
X-860010D01*
X-850013Y2419997D01*
Y2469981D01*
X-790032Y2410000D02*
X-830019D01*
X-790032Y2449987D01*
Y2459984D01*
X-800029Y2469981D01*
X-820023D01*
X-830019Y2459984D01*
X-699000Y4179990D02*
Y4120010D01*
X-669009D01*
X-659012Y4130007D01*
Y4140003D01*
X-669009Y4150000D01*
X-699000D01*
X-669009D01*
X-659012Y4159997D01*
Y4169993D01*
X-669009Y4179990D01*
X-699000D01*
X-599032Y4120010D02*
X-639019D01*
X-599032Y4159997D01*
Y4169993D01*
X-609029Y4179990D01*
X-629022D01*
X-639019Y4169993D01*
X1160000Y2069981D02*
Y2019997D01*
X1169997Y2010000D01*
X1189990D01*
X1199987Y2019997D01*
Y2069981D01*
X1259968D02*
X1219981D01*
Y2039990D01*
X1239974Y2049987D01*
X1249971D01*
X1259968Y2039990D01*
Y2019997D01*
X1249971Y2010000D01*
X1229977D01*
X1219981Y2019997D01*
X-240000Y3719981D02*
Y3669997D01*
X-230003Y3660000D01*
X-210010D01*
X-200013Y3669997D01*
Y3719981D01*
X-180019Y3709984D02*
X-170023Y3719981D01*
X-150029D01*
X-140032Y3709984D01*
Y3699987D01*
X-150029Y3689990D01*
X-140032Y3679994D01*
Y3669997D01*
X-150029Y3660000D01*
X-170023D01*
X-180019Y3669997D01*
Y3679994D01*
X-170023Y3689990D01*
X-180019Y3699987D01*
Y3709984D01*
X-170023Y3689990D02*
X-150029D01*
X-909987Y4689990D02*
Y4630010D01*
X-879997D01*
X-870000Y4640007D01*
Y4650003D01*
X-879997Y4660000D01*
X-909987D01*
X-879997D01*
X-870000Y4669997D01*
Y4679993D01*
X-879997Y4689990D01*
X-909987D01*
X-850006Y4630010D02*
X-830013D01*
X-840010D01*
Y4689990D01*
X-850006Y4679993D01*
X1170003Y4599993D02*
X1160006Y4609990D01*
X1140013D01*
X1130016Y4599993D01*
Y4560007D01*
X1140013Y4550010D01*
X1160006D01*
X1170003Y4560007D01*
X1229984Y4609990D02*
X1189997D01*
Y4580000D01*
X1209990Y4589997D01*
X1219987D01*
X1229984Y4580000D01*
Y4560007D01*
X1219987Y4550010D01*
X1199994D01*
X1189997Y4560007D01*
X-549984Y3329990D02*
Y3280006D01*
X-539987Y3270010D01*
X-519994D01*
X-509997Y3280006D01*
Y3329990D01*
X-490003Y3280006D02*
X-480006Y3270010D01*
X-460013D01*
X-450016Y3280006D01*
Y3319994D01*
X-460013Y3329990D01*
X-480006D01*
X-490003Y3319994D01*
Y3309997D01*
X-480006Y3300000D01*
X-450016D01*
X-430000Y3939994D02*
X-439997Y3949990D01*
X-459990D01*
X-469987Y3939994D01*
Y3900006D01*
X-459990Y3890010D01*
X-439997D01*
X-430000Y3900006D01*
X-410006Y3890010D02*
X-390013D01*
X-400010D01*
Y3949990D01*
X-410006Y3939994D01*
X680003Y4609993D02*
X670006Y4619990D01*
X650013D01*
X640016Y4609993D01*
Y4570007D01*
X650013Y4560010D01*
X670006D01*
X680003Y4570007D01*
X739984Y4560010D02*
X699997D01*
X739984Y4599997D01*
Y4609993D01*
X729987Y4619990D01*
X709994D01*
X699997Y4609993D01*
X1160003Y4229993D02*
X1150006Y4239990D01*
X1130013D01*
X1120016Y4229993D01*
Y4190007D01*
X1130013Y4180010D01*
X1150006D01*
X1160003Y4190007D01*
X1179997Y4229993D02*
X1189994Y4239990D01*
X1209987D01*
X1219984Y4229993D01*
Y4219997D01*
X1209987Y4210000D01*
X1199990D01*
X1209987D01*
X1219984Y4200003D01*
Y4190007D01*
X1209987Y4180010D01*
X1189994D01*
X1179997Y4190007D01*
X680003Y4479993D02*
X670006Y4489990D01*
X650013D01*
X640016Y4479993D01*
Y4440007D01*
X650013Y4430010D01*
X670006D01*
X680003Y4440007D01*
X729987Y4430010D02*
Y4489990D01*
X699997Y4460000D01*
X739984D01*
X720003Y4279993D02*
X710006Y4289990D01*
X690013D01*
X680016Y4279993D01*
Y4240007D01*
X690013Y4230010D01*
X710006D01*
X720003Y4240007D01*
X779984Y4289990D02*
X759990Y4279993D01*
X739997Y4260000D01*
Y4240007D01*
X749994Y4230010D01*
X769987D01*
X779984Y4240007D01*
Y4250003D01*
X769987Y4260000D01*
X739997D01*
X1170003Y4479993D02*
X1160006Y4489990D01*
X1140013D01*
X1130016Y4479993D01*
Y4440007D01*
X1140013Y4430010D01*
X1160006D01*
X1170003Y4440007D01*
X1189997Y4489990D02*
X1229984D01*
Y4479993D01*
X1189997Y4440007D01*
Y4430010D01*
X1170003Y4349993D02*
X1160006Y4359990D01*
X1140013D01*
X1130016Y4349993D01*
Y4310007D01*
X1140013Y4300010D01*
X1160006D01*
X1170003Y4310007D01*
X1189997Y4349993D02*
X1199994Y4359990D01*
X1219987D01*
X1229984Y4349993D01*
Y4339997D01*
X1219987Y4330000D01*
X1229984Y4320003D01*
Y4310007D01*
X1219987Y4300010D01*
X1199994D01*
X1189997Y4310007D01*
Y4320003D01*
X1199994Y4330000D01*
X1189997Y4339997D01*
Y4349993D01*
X1199994Y4330000D02*
X1219987D01*
X-440000Y319981D02*
Y269997D01*
X-430003Y260000D01*
X-410010D01*
X-400013Y269997D01*
Y319981D01*
X-380019Y260000D02*
X-360026D01*
X-370023D01*
Y319981D01*
X-380019Y309984D01*
X410000Y4569981D02*
Y4519997D01*
X419997Y4510000D01*
X439990D01*
X449987Y4519997D01*
Y4569981D01*
X469981Y4559984D02*
X479977Y4569981D01*
X499971D01*
X509968Y4559984D01*
Y4549987D01*
X499971Y4539990D01*
X489974D01*
X499971D01*
X509968Y4529993D01*
Y4519997D01*
X499971Y4510000D01*
X479977D01*
X469981Y4519997D01*
X-1720000Y4709981D02*
Y4659997D01*
X-1710003Y4650000D01*
X-1690010D01*
X-1680013Y4659997D01*
Y4709981D01*
X-1630029Y4650000D02*
Y4709981D01*
X-1660019Y4679990D01*
X-1620032D01*
X450016Y3329990D02*
Y3280006D01*
X460013Y3270010D01*
X480007D01*
X490003Y3280006D01*
Y3329990D01*
X509997D02*
X549984D01*
Y3319994D01*
X509997Y3280006D01*
Y3270010D01*
D27*
X-777756Y3883858D02*
Y4068898D01*
X-541260Y3883858D02*
Y4068898D01*
X-777756D02*
X-541260D01*
X-777756Y3883858D02*
X-541260D01*
D28*
X-243084Y2988303D02*
X-249748Y3001632D01*
X-263077Y3014961D01*
X-276406D01*
X-283071Y3008296D01*
Y2994967D01*
X-276406Y2988303D01*
X-269742D01*
X-263077Y2994967D01*
Y3014961D01*
X-283071Y3504724D02*
Y3491395D01*
Y3498060D01*
X-243084D01*
X-249748Y3504724D01*
X243084Y3511697D02*
X249748Y3498368D01*
X263077Y3485039D01*
X276406D01*
X283071Y3491704D01*
Y3505033D01*
X276406Y3511697D01*
X269742D01*
X263077Y3505033D01*
Y3485039D01*
X283071Y2995276D02*
Y3008605D01*
Y3001940D01*
X243084D01*
X249748Y2995276D01*
D29*
X470000Y480000D02*
Y629952D01*
X544976D01*
X569968Y604960D01*
Y554976D01*
X544976Y529984D01*
X470000D01*
X644943Y579968D02*
X694927D01*
X719919Y554976D01*
Y480000D01*
X644943D01*
X619952Y504992D01*
X644943Y529984D01*
X719919D01*
X869871Y579968D02*
X794895D01*
X769903Y554976D01*
Y504992D01*
X794895Y480000D01*
X869871D01*
X919855Y629952D02*
Y480000D01*
X994830D01*
X1019822Y504992D01*
Y529984D01*
X994830Y554976D01*
X919855D01*
X994830D01*
X1019822Y579968D01*
Y604960D01*
X994830Y629952D01*
X919855D01*
X1094798Y480000D02*
X1144782D01*
X1169774Y504992D01*
Y554976D01*
X1144782Y579968D01*
X1094798D01*
X1069806Y554976D01*
Y504992D01*
X1094798Y480000D01*
X1244749Y604960D02*
Y579968D01*
X1219757D01*
X1269741D01*
X1244749D01*
Y504992D01*
X1269741Y480000D01*
X1344717Y629952D02*
Y529984D01*
X1394701Y480000D01*
X1444685Y529984D01*
Y629952D01*
X1494669Y480000D02*
X1544652D01*
X1519660D01*
Y629952D01*
X1494669Y604960D01*
X729968Y324960D02*
X704976Y349952D01*
X654992D01*
X630000Y324960D01*
Y224992D01*
X654992Y200000D01*
X704976D01*
X729968Y224992D01*
X779952Y349952D02*
Y224992D01*
X804943Y200000D01*
X854927D01*
X879919Y224992D01*
Y349952D01*
X929903Y200000D02*
Y349952D01*
X1004879D01*
X1029871Y324960D01*
Y274976D01*
X1004879Y249984D01*
X929903D01*
X979887D02*
X1029871Y200000D01*
X1179822Y324960D02*
X1154830Y349952D01*
X1104846D01*
X1079854Y324960D01*
Y224992D01*
X1104846Y200000D01*
X1154830D01*
X1179822Y224992D01*
%TF.MD5,fda2e7c2c26278c89c4c6c2121fad0d8*%
M02*
