%TF.GenerationSoftware,Altium Limited,Altium Designer,23.2.1 (34)*%
G04 Layer_Physical_Order=2*
G04 Layer_Color=16711680*
%FSLAX26Y26*%
%MOIN*%
%TF.SameCoordinates,C295F6C5-B72E-4061-B5E5-0E097F681155*%
%TF.FilePolarity,Positive*%
%TF.FileFunction,Copper,L2,Bot,Signal*%
%TF.Part,Single*%
G01*
G75*
%TA.AperFunction,ComponentPad*%
%ADD16C,0.060000*%
%ADD17R,0.045276X0.045276*%
%ADD18C,0.045276*%
%ADD19C,0.050000*%
%ADD20C,0.010000*%
%ADD21C,0.062992*%
%ADD22R,0.062992X0.062992*%
%TA.AperFunction,ViaPad*%
%ADD23C,0.050000*%
G36*
X1920000Y800000D02*
X1170000Y50000D01*
X-1170000D01*
X-1920000Y800000D01*
Y4800000D01*
X1920000D01*
Y800000D01*
D02*
G37*
%LPC*%
G36*
X1525266Y4790000D02*
X1514734D01*
X1504561Y4787274D01*
X1495439Y4782008D01*
X1487992Y4774561D01*
X1482726Y4765439D01*
X1480000Y4755266D01*
Y4744734D01*
X1482726Y4734561D01*
X1487992Y4725439D01*
X1495439Y4717992D01*
X1504561Y4712726D01*
X1514734Y4710000D01*
X1525266D01*
X1535439Y4712726D01*
X1544561Y4717992D01*
X1552008Y4725439D01*
X1557274Y4734561D01*
X1560000Y4744734D01*
Y4755266D01*
X1557274Y4765439D01*
X1552008Y4774561D01*
X1544561Y4782008D01*
X1535439Y4787274D01*
X1525266Y4790000D01*
D02*
G37*
G36*
X-1514734D02*
X-1525266D01*
X-1535439Y4787274D01*
X-1544561Y4782008D01*
X-1552008Y4774561D01*
X-1557274Y4765439D01*
X-1560000Y4755266D01*
Y4744734D01*
X-1557274Y4734561D01*
X-1552008Y4725439D01*
X-1544561Y4717992D01*
X-1535439Y4712726D01*
X-1525266Y4710000D01*
X-1514734D01*
X-1504561Y4712726D01*
X-1495439Y4717992D01*
X-1487992Y4725439D01*
X-1482726Y4734561D01*
X-1480000Y4744734D01*
Y4755266D01*
X-1482726Y4765439D01*
X-1487992Y4774561D01*
X-1495439Y4782008D01*
X-1504561Y4787274D01*
X-1514734Y4790000D01*
D02*
G37*
G36*
X1525266Y4690000D02*
X1514734D01*
X1504561Y4687274D01*
X1495439Y4682008D01*
X1487992Y4674561D01*
X1482726Y4665439D01*
X1480000Y4655266D01*
Y4644734D01*
X1482726Y4634561D01*
X1487992Y4625439D01*
X1495439Y4617992D01*
X1504561Y4612726D01*
X1514734Y4610000D01*
X1525266D01*
X1535439Y4612726D01*
X1544561Y4617992D01*
X1552008Y4625439D01*
X1557274Y4634561D01*
X1560000Y4644734D01*
Y4655266D01*
X1557274Y4665439D01*
X1552008Y4674561D01*
X1544561Y4682008D01*
X1535439Y4687274D01*
X1525266Y4690000D01*
D02*
G37*
G36*
X-1514734D02*
X-1525266D01*
X-1535439Y4687274D01*
X-1544561Y4682008D01*
X-1552008Y4674561D01*
X-1557274Y4665439D01*
X-1560000Y4655266D01*
Y4644734D01*
X-1557274Y4634561D01*
X-1552008Y4625439D01*
X-1544561Y4617992D01*
X-1535439Y4612726D01*
X-1525266Y4610000D01*
X-1514734D01*
X-1504561Y4612726D01*
X-1495439Y4617992D01*
X-1487992Y4625439D01*
X-1482726Y4634561D01*
X-1480000Y4644734D01*
Y4655266D01*
X-1482726Y4665439D01*
X-1487992Y4674561D01*
X-1495439Y4682008D01*
X-1504561Y4687274D01*
X-1514734Y4690000D01*
D02*
G37*
G36*
Y4590000D02*
X-1515000D01*
Y4555000D01*
X-1480000D01*
Y4555266D01*
X-1482726Y4565439D01*
X-1487992Y4574561D01*
X-1495439Y4582008D01*
X-1504561Y4587274D01*
X-1514734Y4590000D01*
D02*
G37*
G36*
X-1525000D02*
X-1525266D01*
X-1535439Y4587274D01*
X-1544561Y4582008D01*
X-1552008Y4574561D01*
X-1557274Y4565439D01*
X-1560000Y4555266D01*
Y4555000D01*
X-1525000D01*
Y4590000D01*
D02*
G37*
G36*
X1525266D02*
X1514734D01*
X1504561Y4587274D01*
X1495439Y4582008D01*
X1487992Y4574561D01*
X1482726Y4565439D01*
X1480000Y4555266D01*
Y4544734D01*
X1482726Y4534561D01*
X1487992Y4525439D01*
X1495439Y4517992D01*
X1504561Y4512726D01*
X1514734Y4510000D01*
X1525266D01*
X1535439Y4512726D01*
X1544561Y4517992D01*
X1552008Y4525439D01*
X1557274Y4534561D01*
X1560000Y4544734D01*
Y4555266D01*
X1557274Y4565439D01*
X1552008Y4574561D01*
X1544561Y4582008D01*
X1535439Y4587274D01*
X1525266Y4590000D01*
D02*
G37*
G36*
X-1480000Y4545000D02*
X-1515000D01*
Y4510000D01*
X-1514734D01*
X-1504561Y4512726D01*
X-1495439Y4517992D01*
X-1487992Y4525439D01*
X-1482726Y4534561D01*
X-1480000Y4544734D01*
Y4545000D01*
D02*
G37*
G36*
X-1525000D02*
X-1560000D01*
Y4544734D01*
X-1557274Y4534561D01*
X-1552008Y4525439D01*
X-1544561Y4517992D01*
X-1535439Y4512726D01*
X-1525266Y4510000D01*
X-1525000D01*
Y4545000D01*
D02*
G37*
G36*
X105000Y4484895D02*
Y4455000D01*
X134895D01*
X132615Y4463510D01*
X128007Y4471490D01*
X121490Y4478007D01*
X113510Y4482615D01*
X105000Y4484895D01*
D02*
G37*
G36*
X95000D02*
X86490Y4482615D01*
X78510Y4478007D01*
X71993Y4471490D01*
X67385Y4463510D01*
X65105Y4455000D01*
X95000D01*
Y4484895D01*
D02*
G37*
G36*
X134895Y4445000D02*
X105000D01*
Y4415105D01*
X113510Y4417385D01*
X121490Y4421993D01*
X128007Y4428510D01*
X132615Y4436490D01*
X134895Y4445000D01*
D02*
G37*
G36*
X95000D02*
X65105D01*
X67385Y4436490D01*
X71993Y4428510D01*
X78510Y4421993D01*
X86490Y4417385D01*
X95000Y4415105D01*
Y4445000D01*
D02*
G37*
G36*
X1525266Y4490000D02*
X1514734D01*
X1504561Y4487274D01*
X1495439Y4482008D01*
X1487992Y4474561D01*
X1482726Y4465439D01*
X1480000Y4455266D01*
Y4444734D01*
X1482726Y4434561D01*
X1487992Y4425439D01*
X1495439Y4417992D01*
X1504561Y4412726D01*
X1514734Y4410000D01*
X1525266D01*
X1535439Y4412726D01*
X1544561Y4417992D01*
X1552008Y4425439D01*
X1557274Y4434561D01*
X1560000Y4444734D01*
Y4455266D01*
X1557274Y4465439D01*
X1552008Y4474561D01*
X1544561Y4482008D01*
X1535439Y4487274D01*
X1525266Y4490000D01*
D02*
G37*
G36*
X-1514734D02*
X-1525266D01*
X-1535439Y4487274D01*
X-1544561Y4482008D01*
X-1552008Y4474561D01*
X-1557274Y4465439D01*
X-1560000Y4455266D01*
Y4444734D01*
X-1557274Y4434561D01*
X-1552008Y4425439D01*
X-1544561Y4417992D01*
X-1535439Y4412726D01*
X-1525266Y4410000D01*
X-1514734D01*
X-1504561Y4412726D01*
X-1495439Y4417992D01*
X-1487992Y4425439D01*
X-1482726Y4434561D01*
X-1480000Y4444734D01*
Y4455266D01*
X-1482726Y4465439D01*
X-1487992Y4474561D01*
X-1495439Y4482008D01*
X-1504561Y4487274D01*
X-1514734Y4490000D01*
D02*
G37*
G36*
X1525266Y4390000D02*
X1525000D01*
Y4355000D01*
X1560000D01*
Y4355266D01*
X1557274Y4365439D01*
X1552008Y4374561D01*
X1544561Y4382008D01*
X1535439Y4387274D01*
X1525266Y4390000D01*
D02*
G37*
G36*
X1515000D02*
X1514734D01*
X1504561Y4387274D01*
X1495439Y4382008D01*
X1487992Y4374561D01*
X1482726Y4365439D01*
X1480000Y4355266D01*
Y4355000D01*
X1515000D01*
Y4390000D01*
D02*
G37*
G36*
X1641010Y4367583D02*
Y4337688D01*
X1670905D01*
X1668624Y4346197D01*
X1664017Y4354178D01*
X1657500Y4360695D01*
X1649519Y4365302D01*
X1641010Y4367583D01*
D02*
G37*
G36*
X1631010D02*
X1622500Y4365302D01*
X1614519Y4360695D01*
X1608003Y4354178D01*
X1603395Y4346197D01*
X1601115Y4337688D01*
X1631010D01*
Y4367583D01*
D02*
G37*
G36*
X105266Y4360000D02*
X105000D01*
Y4325000D01*
X140000D01*
Y4325266D01*
X137274Y4335439D01*
X132008Y4344561D01*
X124561Y4352008D01*
X115439Y4357274D01*
X105266Y4360000D01*
D02*
G37*
G36*
X95000D02*
X94734D01*
X84561Y4357274D01*
X75439Y4352008D01*
X67992Y4344561D01*
X62726Y4335439D01*
X60000Y4325266D01*
Y4325000D01*
X95000D01*
Y4360000D01*
D02*
G37*
G36*
X605000Y4344895D02*
Y4315000D01*
X634895D01*
X632615Y4323510D01*
X628007Y4331490D01*
X621490Y4338007D01*
X613510Y4342615D01*
X605000Y4344895D01*
D02*
G37*
G36*
X595000D02*
X586490Y4342615D01*
X578510Y4338007D01*
X571993Y4331490D01*
X567385Y4323510D01*
X565105Y4315000D01*
X595000D01*
Y4344895D01*
D02*
G37*
G36*
X1560000Y4345000D02*
X1525000D01*
Y4310000D01*
X1525266D01*
X1535439Y4312726D01*
X1544561Y4317992D01*
X1552008Y4325439D01*
X1557274Y4334561D01*
X1560000Y4344734D01*
Y4345000D01*
D02*
G37*
G36*
X1515000D02*
X1480000D01*
Y4344734D01*
X1482726Y4334561D01*
X1487992Y4325439D01*
X1495439Y4317992D01*
X1504561Y4312726D01*
X1514734Y4310000D01*
X1515000D01*
Y4345000D01*
D02*
G37*
G36*
X-1514734Y4390000D02*
X-1525266D01*
X-1535439Y4387274D01*
X-1544561Y4382008D01*
X-1552008Y4374561D01*
X-1557274Y4365439D01*
X-1560000Y4355266D01*
Y4344734D01*
X-1557274Y4334561D01*
X-1552008Y4325439D01*
X-1544561Y4317992D01*
X-1535439Y4312726D01*
X-1525266Y4310000D01*
X-1514734D01*
X-1504561Y4312726D01*
X-1495439Y4317992D01*
X-1487992Y4325439D01*
X-1482726Y4334561D01*
X-1480000Y4344734D01*
Y4355266D01*
X-1482726Y4365439D01*
X-1487992Y4374561D01*
X-1495439Y4382008D01*
X-1504561Y4387274D01*
X-1514734Y4390000D01*
D02*
G37*
G36*
X1670905Y4327688D02*
X1641010D01*
Y4297793D01*
X1649519Y4300073D01*
X1657500Y4304681D01*
X1664017Y4311197D01*
X1668624Y4319178D01*
X1670905Y4327688D01*
D02*
G37*
G36*
X1631010D02*
X1601115D01*
X1603395Y4319178D01*
X1608003Y4311197D01*
X1614519Y4304681D01*
X1622500Y4300073D01*
X1631010Y4297793D01*
Y4327688D01*
D02*
G37*
G36*
X305266Y4360000D02*
X294734D01*
X284561Y4357274D01*
X275439Y4352008D01*
X267992Y4344561D01*
X262726Y4335439D01*
X260000Y4325266D01*
Y4314734D01*
X262726Y4304561D01*
X267992Y4295439D01*
X275439Y4287992D01*
X284561Y4282726D01*
X294734Y4280000D01*
X305266D01*
X315439Y4282726D01*
X324561Y4287992D01*
X332008Y4295439D01*
X337274Y4304561D01*
X340000Y4314734D01*
Y4325266D01*
X337274Y4335439D01*
X332008Y4344561D01*
X324561Y4352008D01*
X315439Y4357274D01*
X305266Y4360000D01*
D02*
G37*
G36*
X205266D02*
X194734D01*
X184561Y4357274D01*
X175439Y4352008D01*
X167992Y4344561D01*
X162726Y4335439D01*
X160000Y4325266D01*
Y4314734D01*
X162726Y4304561D01*
X167992Y4295439D01*
X175439Y4287992D01*
X184561Y4282726D01*
X194734Y4280000D01*
X205266D01*
X215439Y4282726D01*
X224561Y4287992D01*
X232008Y4295439D01*
X237274Y4304561D01*
X240000Y4314734D01*
Y4325266D01*
X237274Y4335439D01*
X232008Y4344561D01*
X224561Y4352008D01*
X215439Y4357274D01*
X205266Y4360000D01*
D02*
G37*
G36*
X140000Y4315000D02*
X105000D01*
Y4280000D01*
X105266D01*
X115439Y4282726D01*
X124561Y4287992D01*
X132008Y4295439D01*
X137274Y4304561D01*
X140000Y4314734D01*
Y4315000D01*
D02*
G37*
G36*
X95000D02*
X60000D01*
Y4314734D01*
X62726Y4304561D01*
X67992Y4295439D01*
X75439Y4287992D01*
X84561Y4282726D01*
X94734Y4280000D01*
X95000D01*
Y4315000D01*
D02*
G37*
G36*
X5266Y4360000D02*
X-5266D01*
X-15439Y4357274D01*
X-24561Y4352008D01*
X-32008Y4344561D01*
X-37274Y4335439D01*
X-40000Y4325266D01*
Y4314734D01*
X-37274Y4304561D01*
X-32008Y4295439D01*
X-24561Y4287992D01*
X-15439Y4282726D01*
X-5266Y4280000D01*
X5266D01*
X15439Y4282726D01*
X24561Y4287992D01*
X32008Y4295439D01*
X37274Y4304561D01*
X40000Y4314734D01*
Y4325266D01*
X37274Y4335439D01*
X32008Y4344561D01*
X24561Y4352008D01*
X15439Y4357274D01*
X5266Y4360000D01*
D02*
G37*
G36*
X-94734D02*
X-105266D01*
X-115439Y4357274D01*
X-124561Y4352008D01*
X-132008Y4344561D01*
X-137274Y4335439D01*
X-140000Y4325266D01*
Y4314734D01*
X-137274Y4304561D01*
X-132008Y4295439D01*
X-124561Y4287992D01*
X-115439Y4282726D01*
X-105266Y4280000D01*
X-94734D01*
X-84561Y4282726D01*
X-75439Y4287992D01*
X-67992Y4295439D01*
X-62726Y4304561D01*
X-60000Y4314734D01*
Y4325266D01*
X-62726Y4335439D01*
X-67992Y4344561D01*
X-75439Y4352008D01*
X-84561Y4357274D01*
X-94734Y4360000D01*
D02*
G37*
G36*
X-194734D02*
X-205266D01*
X-215439Y4357274D01*
X-224561Y4352008D01*
X-232008Y4344561D01*
X-237274Y4335439D01*
X-240000Y4325266D01*
Y4314734D01*
X-237274Y4304561D01*
X-232008Y4295439D01*
X-224561Y4287992D01*
X-215439Y4282726D01*
X-205266Y4280000D01*
X-194734D01*
X-184561Y4282726D01*
X-175439Y4287992D01*
X-167992Y4295439D01*
X-162726Y4304561D01*
X-160000Y4314734D01*
Y4325266D01*
X-162726Y4335439D01*
X-167992Y4344561D01*
X-175439Y4352008D01*
X-184561Y4357274D01*
X-194734Y4360000D01*
D02*
G37*
G36*
X-294734D02*
X-305266D01*
X-315439Y4357274D01*
X-324561Y4352008D01*
X-332008Y4344561D01*
X-337274Y4335439D01*
X-340000Y4325266D01*
Y4314734D01*
X-337274Y4304561D01*
X-332008Y4295439D01*
X-324561Y4287992D01*
X-315439Y4282726D01*
X-305266Y4280000D01*
X-294734D01*
X-284561Y4282726D01*
X-275439Y4287992D01*
X-267992Y4295439D01*
X-262726Y4304561D01*
X-260000Y4314734D01*
Y4325266D01*
X-262726Y4335439D01*
X-267992Y4344561D01*
X-275439Y4352008D01*
X-284561Y4357274D01*
X-294734Y4360000D01*
D02*
G37*
G36*
X634895Y4305000D02*
X605000D01*
Y4275105D01*
X613510Y4277385D01*
X621490Y4281993D01*
X628007Y4288510D01*
X632615Y4296490D01*
X634895Y4305000D01*
D02*
G37*
G36*
X595000D02*
X565105D01*
X567385Y4296490D01*
X571993Y4288510D01*
X578510Y4281993D01*
X586490Y4277385D01*
X595000Y4275105D01*
Y4305000D01*
D02*
G37*
G36*
X1525266Y4290000D02*
X1514734D01*
X1504561Y4287274D01*
X1495439Y4282008D01*
X1487992Y4274561D01*
X1482726Y4265439D01*
X1480000Y4255266D01*
Y4244734D01*
X1482726Y4234561D01*
X1487992Y4225439D01*
X1495439Y4217992D01*
X1504561Y4212726D01*
X1514734Y4210000D01*
X1525266D01*
X1535439Y4212726D01*
X1544561Y4217992D01*
X1552008Y4225439D01*
X1557274Y4234561D01*
X1560000Y4244734D01*
Y4255266D01*
X1557274Y4265439D01*
X1552008Y4274561D01*
X1544561Y4282008D01*
X1535439Y4287274D01*
X1525266Y4290000D01*
D02*
G37*
G36*
X-1514734D02*
X-1525266D01*
X-1535439Y4287274D01*
X-1544561Y4282008D01*
X-1552008Y4274561D01*
X-1557274Y4265439D01*
X-1560000Y4255266D01*
Y4244734D01*
X-1557274Y4234561D01*
X-1552008Y4225439D01*
X-1544561Y4217992D01*
X-1535439Y4212726D01*
X-1525266Y4210000D01*
X-1514734D01*
X-1504561Y4212726D01*
X-1495439Y4217992D01*
X-1487992Y4225439D01*
X-1482726Y4234561D01*
X-1480000Y4244734D01*
Y4255266D01*
X-1482726Y4265439D01*
X-1487992Y4274561D01*
X-1495439Y4282008D01*
X-1504561Y4287274D01*
X-1514734Y4290000D01*
D02*
G37*
G36*
X1525266Y4190000D02*
X1514734D01*
X1504561Y4187274D01*
X1495439Y4182008D01*
X1487992Y4174561D01*
X1482726Y4165439D01*
X1480000Y4155266D01*
Y4144734D01*
X1482726Y4134561D01*
X1487992Y4125439D01*
X1495439Y4117992D01*
X1504561Y4112726D01*
X1514734Y4110000D01*
X1525266D01*
X1535439Y4112726D01*
X1544561Y4117992D01*
X1552008Y4125439D01*
X1557274Y4134561D01*
X1560000Y4144734D01*
Y4155266D01*
X1557274Y4165439D01*
X1552008Y4174561D01*
X1544561Y4182008D01*
X1535439Y4187274D01*
X1525266Y4190000D01*
D02*
G37*
G36*
X-1514734D02*
X-1525266D01*
X-1535439Y4187274D01*
X-1544561Y4182008D01*
X-1552008Y4174561D01*
X-1557274Y4165439D01*
X-1560000Y4155266D01*
Y4144734D01*
X-1557274Y4134561D01*
X-1552008Y4125439D01*
X-1544561Y4117992D01*
X-1535439Y4112726D01*
X-1525266Y4110000D01*
X-1514734D01*
X-1504561Y4112726D01*
X-1495439Y4117992D01*
X-1487992Y4125439D01*
X-1482726Y4134561D01*
X-1480000Y4144734D01*
Y4155266D01*
X-1482726Y4165439D01*
X-1487992Y4174561D01*
X-1495439Y4182008D01*
X-1504561Y4187274D01*
X-1514734Y4190000D01*
D02*
G37*
G36*
X-1065000Y4114895D02*
Y4085000D01*
X-1035105D01*
X-1037385Y4093510D01*
X-1041993Y4101490D01*
X-1048509Y4108007D01*
X-1056491Y4112615D01*
X-1065000Y4114895D01*
D02*
G37*
G36*
X-1075000D02*
X-1083509Y4112615D01*
X-1091491Y4108007D01*
X-1098007Y4101490D01*
X-1102615Y4093510D01*
X-1104895Y4085000D01*
X-1075000D01*
Y4114895D01*
D02*
G37*
G36*
X-1165000D02*
Y4085000D01*
X-1135105D01*
X-1137385Y4093510D01*
X-1141993Y4101490D01*
X-1148509Y4108007D01*
X-1156491Y4112615D01*
X-1165000Y4114895D01*
D02*
G37*
G36*
X-1175000D02*
X-1183509Y4112615D01*
X-1191491Y4108007D01*
X-1198007Y4101490D01*
X-1202615Y4093510D01*
X-1204895Y4085000D01*
X-1175000D01*
Y4114895D01*
D02*
G37*
G36*
X-1265000D02*
Y4085000D01*
X-1235105D01*
X-1237385Y4093510D01*
X-1241993Y4101490D01*
X-1248509Y4108007D01*
X-1256491Y4112615D01*
X-1265000Y4114895D01*
D02*
G37*
G36*
X-1275000D02*
X-1283509Y4112615D01*
X-1291491Y4108007D01*
X-1298007Y4101490D01*
X-1302615Y4093510D01*
X-1304895Y4085000D01*
X-1275000D01*
Y4114895D01*
D02*
G37*
G36*
X-1035105Y4075000D02*
X-1065000D01*
Y4045105D01*
X-1056491Y4047385D01*
X-1048509Y4051993D01*
X-1041993Y4058510D01*
X-1037385Y4066490D01*
X-1035105Y4075000D01*
D02*
G37*
G36*
X-1075000D02*
X-1104895D01*
X-1102615Y4066490D01*
X-1098007Y4058510D01*
X-1091491Y4051993D01*
X-1083509Y4047385D01*
X-1075000Y4045105D01*
Y4075000D01*
D02*
G37*
G36*
X-1135105D02*
X-1165000D01*
Y4045105D01*
X-1156491Y4047385D01*
X-1148509Y4051993D01*
X-1141993Y4058510D01*
X-1137385Y4066490D01*
X-1135105Y4075000D01*
D02*
G37*
G36*
X-1175000D02*
X-1204895D01*
X-1202615Y4066490D01*
X-1198007Y4058510D01*
X-1191491Y4051993D01*
X-1183509Y4047385D01*
X-1175000Y4045105D01*
Y4075000D01*
D02*
G37*
G36*
X-1235105D02*
X-1265000D01*
Y4045105D01*
X-1256491Y4047385D01*
X-1248509Y4051993D01*
X-1241993Y4058510D01*
X-1237385Y4066490D01*
X-1235105Y4075000D01*
D02*
G37*
G36*
X-1275000D02*
X-1304895D01*
X-1302615Y4066490D01*
X-1298007Y4058510D01*
X-1291491Y4051993D01*
X-1283509Y4047385D01*
X-1275000Y4045105D01*
Y4075000D01*
D02*
G37*
G36*
X-615000Y4032449D02*
Y4005000D01*
X-587551D01*
X-589586Y4012598D01*
X-593883Y4020040D01*
X-599960Y4026117D01*
X-607402Y4030414D01*
X-615000Y4032449D01*
D02*
G37*
G36*
X-625000D02*
X-632598Y4030414D01*
X-640040Y4026117D01*
X-646117Y4020040D01*
X-650414Y4012598D01*
X-652449Y4005000D01*
X-625000D01*
Y4032449D01*
D02*
G37*
G36*
X-1065000Y4014895D02*
Y3985000D01*
X-1035105D01*
X-1037385Y3993510D01*
X-1041993Y4001490D01*
X-1048509Y4008007D01*
X-1056491Y4012615D01*
X-1065000Y4014895D01*
D02*
G37*
G36*
X-1075000D02*
X-1083509Y4012615D01*
X-1091491Y4008007D01*
X-1098007Y4001490D01*
X-1102615Y3993510D01*
X-1104895Y3985000D01*
X-1075000D01*
Y4014895D01*
D02*
G37*
G36*
X-1165000D02*
Y3985000D01*
X-1135105D01*
X-1137385Y3993510D01*
X-1141993Y4001490D01*
X-1148509Y4008007D01*
X-1156491Y4012615D01*
X-1165000Y4014895D01*
D02*
G37*
G36*
X-1175000D02*
X-1183509Y4012615D01*
X-1191491Y4008007D01*
X-1198007Y4001490D01*
X-1202615Y3993510D01*
X-1204895Y3985000D01*
X-1175000D01*
Y4014895D01*
D02*
G37*
G36*
X-1265000D02*
Y3985000D01*
X-1235105D01*
X-1237385Y3993510D01*
X-1241993Y4001490D01*
X-1248509Y4008007D01*
X-1256491Y4012615D01*
X-1265000Y4014895D01*
D02*
G37*
G36*
X-1275000D02*
X-1283509Y4012615D01*
X-1291491Y4008007D01*
X-1298007Y4001490D01*
X-1302615Y3993510D01*
X-1304895Y3985000D01*
X-1275000D01*
Y4014895D01*
D02*
G37*
G36*
X-305000Y4004895D02*
Y3975000D01*
X-275105D01*
X-277385Y3983510D01*
X-281993Y3991490D01*
X-288510Y3998007D01*
X-296490Y4002615D01*
X-305000Y4004895D01*
D02*
G37*
G36*
X-315000D02*
X-323510Y4002615D01*
X-331490Y3998007D01*
X-338007Y3991490D01*
X-342615Y3983510D01*
X-344895Y3975000D01*
X-315000D01*
Y4004895D01*
D02*
G37*
G36*
X-587551Y3995000D02*
X-615000D01*
Y3967551D01*
X-607402Y3969586D01*
X-599960Y3973883D01*
X-593883Y3979960D01*
X-589586Y3987402D01*
X-587551Y3995000D01*
D02*
G37*
G36*
X-625000D02*
X-652449D01*
X-650414Y3987402D01*
X-646117Y3979960D01*
X-640040Y3973883D01*
X-632598Y3969586D01*
X-625000Y3967551D01*
Y3995000D01*
D02*
G37*
G36*
X-666378Y4032638D02*
X-731654D01*
Y3967362D01*
X-666378D01*
Y4032638D01*
D02*
G37*
G36*
X-1035105Y3975000D02*
X-1065000D01*
Y3945105D01*
X-1056491Y3947385D01*
X-1048509Y3951993D01*
X-1041993Y3958510D01*
X-1037385Y3966490D01*
X-1035105Y3975000D01*
D02*
G37*
G36*
X-1075000D02*
X-1104895D01*
X-1102615Y3966490D01*
X-1098007Y3958510D01*
X-1091491Y3951993D01*
X-1083509Y3947385D01*
X-1075000Y3945105D01*
Y3975000D01*
D02*
G37*
G36*
X-1135105D02*
X-1165000D01*
Y3945105D01*
X-1156491Y3947385D01*
X-1148509Y3951993D01*
X-1141993Y3958510D01*
X-1137385Y3966490D01*
X-1135105Y3975000D01*
D02*
G37*
G36*
X-1175000D02*
X-1204895D01*
X-1202615Y3966490D01*
X-1198007Y3958510D01*
X-1191491Y3951993D01*
X-1183509Y3947385D01*
X-1175000Y3945105D01*
Y3975000D01*
D02*
G37*
G36*
X-1235105D02*
X-1265000D01*
Y3945105D01*
X-1256491Y3947385D01*
X-1248509Y3951993D01*
X-1241993Y3958510D01*
X-1237385Y3966490D01*
X-1235105Y3975000D01*
D02*
G37*
G36*
X-1275000D02*
X-1304895D01*
X-1302615Y3966490D01*
X-1298007Y3958510D01*
X-1291491Y3951993D01*
X-1283509Y3947385D01*
X-1275000Y3945105D01*
Y3975000D01*
D02*
G37*
G36*
X-275105Y3965000D02*
X-305000D01*
Y3935105D01*
X-296490Y3937385D01*
X-288510Y3941993D01*
X-281993Y3948510D01*
X-277385Y3956490D01*
X-275105Y3965000D01*
D02*
G37*
G36*
X-315000D02*
X-344895D01*
X-342615Y3956490D01*
X-338007Y3948510D01*
X-331490Y3941993D01*
X-323510Y3937385D01*
X-315000Y3935105D01*
Y3965000D01*
D02*
G37*
G36*
X-615000Y3854895D02*
Y3825000D01*
X-585105D01*
X-587385Y3833510D01*
X-591993Y3841490D01*
X-598510Y3848007D01*
X-606490Y3852615D01*
X-615000Y3854895D01*
D02*
G37*
G36*
X-625000D02*
X-633510Y3852615D01*
X-641490Y3848007D01*
X-648007Y3841490D01*
X-652615Y3833510D01*
X-654895Y3825000D01*
X-625000D01*
Y3854895D01*
D02*
G37*
G36*
X-585105Y3815000D02*
X-615000D01*
Y3785105D01*
X-606490Y3787385D01*
X-598510Y3791993D01*
X-591993Y3798510D01*
X-587385Y3806490D01*
X-585105Y3815000D01*
D02*
G37*
G36*
X-625000D02*
X-654895D01*
X-652615Y3806490D01*
X-648007Y3798510D01*
X-641490Y3791993D01*
X-633510Y3787385D01*
X-625000Y3785105D01*
Y3815000D01*
D02*
G37*
G36*
X1776583Y3830000D02*
X1763417D01*
X1750701Y3826593D01*
X1739299Y3820010D01*
X1729990Y3810701D01*
X1723408Y3799299D01*
X1720000Y3786583D01*
Y3773417D01*
X1723408Y3760701D01*
X1729990Y3749299D01*
X1739299Y3739990D01*
X1750701Y3733407D01*
X1763417Y3730000D01*
X1776583D01*
X1789299Y3733407D01*
X1800701Y3739990D01*
X1810010Y3749299D01*
X1816592Y3760701D01*
X1820000Y3773417D01*
Y3786583D01*
X1816592Y3799299D01*
X1810010Y3810701D01*
X1800701Y3820010D01*
X1789299Y3826593D01*
X1776583Y3830000D01*
D02*
G37*
G36*
X-1763417D02*
X-1776583D01*
X-1789299Y3826593D01*
X-1800701Y3820010D01*
X-1810010Y3810701D01*
X-1816592Y3799299D01*
X-1820000Y3786583D01*
Y3773417D01*
X-1816592Y3760701D01*
X-1810010Y3749299D01*
X-1800701Y3739990D01*
X-1789299Y3733407D01*
X-1776583Y3730000D01*
X-1763417D01*
X-1750701Y3733407D01*
X-1739299Y3739990D01*
X-1729990Y3749299D01*
X-1723408Y3760701D01*
X-1720000Y3773417D01*
Y3786583D01*
X-1723408Y3799299D01*
X-1729990Y3810701D01*
X-1739299Y3820010D01*
X-1750701Y3826593D01*
X-1763417Y3830000D01*
D02*
G37*
G36*
X154948Y3704843D02*
Y3674948D01*
X184843D01*
X182563Y3683457D01*
X177955Y3691439D01*
X171439Y3697955D01*
X163458Y3702563D01*
X154948Y3704843D01*
D02*
G37*
G36*
X144948D02*
X136439Y3702563D01*
X128458Y3697955D01*
X121941Y3691439D01*
X117333Y3683457D01*
X115053Y3674948D01*
X144948D01*
Y3704843D01*
D02*
G37*
G36*
X184843Y3664948D02*
X154948D01*
Y3635053D01*
X163458Y3637333D01*
X171439Y3641941D01*
X177955Y3648457D01*
X182563Y3656439D01*
X184843Y3664948D01*
D02*
G37*
G36*
X144948D02*
X115053D01*
X117333Y3656439D01*
X121941Y3648457D01*
X128458Y3641941D01*
X136439Y3637333D01*
X144948Y3635053D01*
Y3664948D01*
D02*
G37*
G36*
X-285392Y3655000D02*
X-294608D01*
X-303510Y3652615D01*
X-311490Y3648007D01*
X-318007Y3641490D01*
X-322615Y3633510D01*
X-325000Y3624608D01*
Y3615392D01*
X-322615Y3606490D01*
X-318007Y3598510D01*
X-311490Y3591993D01*
X-303510Y3587385D01*
X-294608Y3585000D01*
X-285392D01*
X-276490Y3587385D01*
X-268510Y3591993D01*
X-261993Y3598510D01*
X-257385Y3606490D01*
X-255000Y3615392D01*
Y3624608D01*
X-257385Y3633510D01*
X-261993Y3641490D01*
X-268510Y3648007D01*
X-276490Y3652615D01*
X-285392Y3655000D01*
D02*
G37*
G36*
X155266Y3590000D02*
X155000D01*
Y3555000D01*
X190000D01*
Y3555266D01*
X187274Y3565439D01*
X182008Y3574561D01*
X174561Y3582008D01*
X165439Y3587274D01*
X155266Y3590000D01*
D02*
G37*
G36*
X145000D02*
X144734D01*
X134561Y3587274D01*
X125439Y3582008D01*
X117992Y3574561D01*
X112726Y3565439D01*
X110000Y3555266D01*
Y3555000D01*
X145000D01*
Y3590000D01*
D02*
G37*
G36*
X-144734D02*
X-145000D01*
Y3555000D01*
X-110000D01*
Y3555266D01*
X-112726Y3565439D01*
X-117992Y3574561D01*
X-125439Y3582008D01*
X-134561Y3587274D01*
X-144734Y3590000D01*
D02*
G37*
G36*
X-155000D02*
X-155266D01*
X-165439Y3587274D01*
X-174561Y3582008D01*
X-182008Y3574561D01*
X-187274Y3565439D01*
X-190000Y3555266D01*
Y3555000D01*
X-155000D01*
Y3590000D01*
D02*
G37*
G36*
X190000Y3545000D02*
X155000D01*
Y3510000D01*
X155266D01*
X165439Y3512726D01*
X174561Y3517992D01*
X182008Y3525439D01*
X187274Y3534561D01*
X190000Y3544734D01*
Y3545000D01*
D02*
G37*
G36*
X145000D02*
X110000D01*
Y3544734D01*
X112726Y3534561D01*
X117992Y3525439D01*
X125439Y3517992D01*
X134561Y3512726D01*
X144734Y3510000D01*
X145000D01*
Y3545000D01*
D02*
G37*
G36*
X-110000D02*
X-145000D01*
Y3510000D01*
X-144734D01*
X-134561Y3512726D01*
X-125439Y3517992D01*
X-117992Y3525439D01*
X-112726Y3534561D01*
X-110000Y3544734D01*
Y3545000D01*
D02*
G37*
G36*
X-155000D02*
X-190000D01*
Y3544734D01*
X-187274Y3534561D01*
X-182008Y3525439D01*
X-174561Y3517992D01*
X-165439Y3512726D01*
X-155266Y3510000D01*
X-155000D01*
Y3545000D01*
D02*
G37*
G36*
X355463Y3541496D02*
X344537D01*
X333983Y3538668D01*
X324521Y3533205D01*
X316795Y3525479D01*
X311332Y3516017D01*
X308504Y3505463D01*
Y3494537D01*
X311332Y3483983D01*
X316795Y3474521D01*
X324521Y3466795D01*
X333983Y3461332D01*
X344537Y3458504D01*
X355463D01*
X366017Y3461332D01*
X375479Y3466795D01*
X383205Y3474521D01*
X388668Y3483983D01*
X391496Y3494537D01*
Y3505463D01*
X388668Y3516017D01*
X383205Y3525479D01*
X375479Y3533205D01*
X366017Y3538668D01*
X355463Y3541496D01*
D02*
G37*
G36*
X-308504D02*
X-391496D01*
Y3458504D01*
X-308504D01*
Y3541496D01*
D02*
G37*
G36*
X155266Y3490000D02*
X144734D01*
X134561Y3487274D01*
X125439Y3482008D01*
X117992Y3474561D01*
X112726Y3465439D01*
X110000Y3455266D01*
Y3444734D01*
X112726Y3434561D01*
X117992Y3425439D01*
X125439Y3417992D01*
X134561Y3412726D01*
X144734Y3410000D01*
X155266D01*
X165439Y3412726D01*
X174561Y3417992D01*
X182008Y3425439D01*
X187274Y3434561D01*
X190000Y3444734D01*
Y3455266D01*
X187274Y3465439D01*
X182008Y3474561D01*
X174561Y3482008D01*
X165439Y3487274D01*
X155266Y3490000D01*
D02*
G37*
G36*
X-144734D02*
X-155266D01*
X-165439Y3487274D01*
X-174561Y3482008D01*
X-182008Y3474561D01*
X-187274Y3465439D01*
X-190000Y3455266D01*
Y3444734D01*
X-187274Y3434561D01*
X-182008Y3425439D01*
X-174561Y3417992D01*
X-165439Y3412726D01*
X-155266Y3410000D01*
X-144734D01*
X-134561Y3412726D01*
X-125439Y3417992D01*
X-117992Y3425439D01*
X-112726Y3434561D01*
X-110000Y3444734D01*
Y3455266D01*
X-112726Y3465439D01*
X-117992Y3474561D01*
X-125439Y3482008D01*
X-134561Y3487274D01*
X-144734Y3490000D01*
D02*
G37*
G36*
X355463Y3441496D02*
X344537D01*
X333983Y3438668D01*
X324521Y3433205D01*
X316795Y3425479D01*
X311332Y3416017D01*
X308504Y3405463D01*
Y3394537D01*
X311332Y3383983D01*
X316795Y3374521D01*
X324521Y3366795D01*
X333983Y3361332D01*
X344537Y3358504D01*
X355463D01*
X366017Y3361332D01*
X375479Y3366795D01*
X383205Y3374521D01*
X388668Y3383983D01*
X391496Y3394537D01*
Y3405463D01*
X388668Y3416017D01*
X383205Y3425479D01*
X375479Y3433205D01*
X366017Y3438668D01*
X355463Y3441496D01*
D02*
G37*
G36*
X-344537D02*
X-355463D01*
X-366017Y3438668D01*
X-375479Y3433205D01*
X-383205Y3425479D01*
X-388668Y3416017D01*
X-391496Y3405463D01*
Y3394537D01*
X-388668Y3383983D01*
X-383205Y3374521D01*
X-375479Y3366795D01*
X-366017Y3361332D01*
X-355463Y3358504D01*
X-344537D01*
X-333983Y3361332D01*
X-324521Y3366795D01*
X-316795Y3374521D01*
X-311332Y3383983D01*
X-308504Y3394537D01*
Y3405463D01*
X-311332Y3416017D01*
X-316795Y3425479D01*
X-324521Y3433205D01*
X-333983Y3438668D01*
X-344537Y3441496D01*
D02*
G37*
G36*
X155266Y3390000D02*
X144734D01*
X134561Y3387274D01*
X125439Y3382008D01*
X117992Y3374561D01*
X112726Y3365439D01*
X110000Y3355266D01*
Y3344734D01*
X112726Y3334561D01*
X117992Y3325439D01*
X125439Y3317992D01*
X134561Y3312726D01*
X144734Y3310000D01*
X155266D01*
X165439Y3312726D01*
X174561Y3317992D01*
X182008Y3325439D01*
X187274Y3334561D01*
X190000Y3344734D01*
Y3355266D01*
X187274Y3365439D01*
X182008Y3374561D01*
X174561Y3382008D01*
X165439Y3387274D01*
X155266Y3390000D01*
D02*
G37*
G36*
X-144734D02*
X-155266D01*
X-165439Y3387274D01*
X-174561Y3382008D01*
X-182008Y3374561D01*
X-187274Y3365439D01*
X-190000Y3355266D01*
Y3344734D01*
X-187274Y3334561D01*
X-182008Y3325439D01*
X-174561Y3317992D01*
X-165439Y3312726D01*
X-155266Y3310000D01*
X-144734D01*
X-134561Y3312726D01*
X-125439Y3317992D01*
X-117992Y3325439D01*
X-112726Y3334561D01*
X-110000Y3344734D01*
Y3355266D01*
X-112726Y3365439D01*
X-117992Y3374561D01*
X-125439Y3382008D01*
X-134561Y3387274D01*
X-144734Y3390000D01*
D02*
G37*
G36*
X355463Y3341496D02*
X344537D01*
X333983Y3338668D01*
X324521Y3333205D01*
X316795Y3325479D01*
X311332Y3316017D01*
X308504Y3305463D01*
Y3294537D01*
X311332Y3283983D01*
X316795Y3274521D01*
X324521Y3266795D01*
X333983Y3261332D01*
X344537Y3258504D01*
X355463D01*
X366017Y3261332D01*
X375479Y3266795D01*
X383205Y3274521D01*
X388668Y3283983D01*
X391496Y3294537D01*
Y3305463D01*
X388668Y3316017D01*
X383205Y3325479D01*
X375479Y3333205D01*
X366017Y3338668D01*
X355463Y3341496D01*
D02*
G37*
G36*
X-344537D02*
X-355463D01*
X-366017Y3338668D01*
X-375479Y3333205D01*
X-383205Y3325479D01*
X-388668Y3316017D01*
X-391496Y3305463D01*
Y3294537D01*
X-388668Y3283983D01*
X-383205Y3274521D01*
X-375479Y3266795D01*
X-366017Y3261332D01*
X-355463Y3258504D01*
X-344537D01*
X-333983Y3261332D01*
X-324521Y3266795D01*
X-316795Y3274521D01*
X-311332Y3283983D01*
X-308504Y3294537D01*
Y3305463D01*
X-311332Y3316017D01*
X-316795Y3325479D01*
X-324521Y3333205D01*
X-333983Y3338668D01*
X-344537Y3341496D01*
D02*
G37*
G36*
X155266Y3290000D02*
X144734D01*
X134561Y3287274D01*
X125439Y3282008D01*
X117992Y3274561D01*
X112726Y3265439D01*
X110000Y3255266D01*
Y3244734D01*
X112726Y3234561D01*
X117992Y3225439D01*
X125439Y3217992D01*
X134561Y3212726D01*
X144734Y3210000D01*
X155266D01*
X165439Y3212726D01*
X174561Y3217992D01*
X182008Y3225439D01*
X187274Y3234561D01*
X190000Y3244734D01*
Y3255266D01*
X187274Y3265439D01*
X182008Y3274561D01*
X174561Y3282008D01*
X165439Y3287274D01*
X155266Y3290000D01*
D02*
G37*
G36*
X-144734D02*
X-155266D01*
X-165439Y3287274D01*
X-174561Y3282008D01*
X-182008Y3274561D01*
X-187274Y3265439D01*
X-190000Y3255266D01*
Y3244734D01*
X-187274Y3234561D01*
X-182008Y3225439D01*
X-174561Y3217992D01*
X-165439Y3212726D01*
X-155266Y3210000D01*
X-144734D01*
X-134561Y3212726D01*
X-125439Y3217992D01*
X-117992Y3225439D01*
X-112726Y3234561D01*
X-110000Y3244734D01*
Y3255266D01*
X-112726Y3265439D01*
X-117992Y3274561D01*
X-125439Y3282008D01*
X-134561Y3287274D01*
X-144734Y3290000D01*
D02*
G37*
G36*
X355463Y3241496D02*
X344537D01*
X333983Y3238668D01*
X324521Y3233205D01*
X316795Y3225479D01*
X311332Y3216017D01*
X308504Y3205463D01*
Y3194537D01*
X311332Y3183983D01*
X316795Y3174521D01*
X324521Y3166795D01*
X333983Y3161332D01*
X344537Y3158504D01*
X355463D01*
X366017Y3161332D01*
X375479Y3166795D01*
X383205Y3174521D01*
X388668Y3183983D01*
X391496Y3194537D01*
Y3205463D01*
X388668Y3216017D01*
X383205Y3225479D01*
X375479Y3233205D01*
X366017Y3238668D01*
X355463Y3241496D01*
D02*
G37*
G36*
X-344537D02*
X-355463D01*
X-366017Y3238668D01*
X-375479Y3233205D01*
X-383205Y3225479D01*
X-388668Y3216017D01*
X-391496Y3205463D01*
Y3194537D01*
X-388668Y3183983D01*
X-383205Y3174521D01*
X-375479Y3166795D01*
X-366017Y3161332D01*
X-355463Y3158504D01*
X-344537D01*
X-333983Y3161332D01*
X-324521Y3166795D01*
X-316795Y3174521D01*
X-311332Y3183983D01*
X-308504Y3194537D01*
Y3205463D01*
X-311332Y3216017D01*
X-316795Y3225479D01*
X-324521Y3233205D01*
X-333983Y3238668D01*
X-344537Y3241496D01*
D02*
G37*
G36*
X155266Y3190000D02*
X144734D01*
X134561Y3187274D01*
X125439Y3182008D01*
X117992Y3174561D01*
X112726Y3165439D01*
X110000Y3155266D01*
Y3144734D01*
X112726Y3134561D01*
X117992Y3125439D01*
X125439Y3117992D01*
X134561Y3112726D01*
X144734Y3110000D01*
X155266D01*
X165439Y3112726D01*
X174561Y3117992D01*
X182008Y3125439D01*
X187274Y3134561D01*
X190000Y3144734D01*
Y3155266D01*
X187274Y3165439D01*
X182008Y3174561D01*
X174561Y3182008D01*
X165439Y3187274D01*
X155266Y3190000D01*
D02*
G37*
G36*
X-144734D02*
X-155266D01*
X-165439Y3187274D01*
X-174561Y3182008D01*
X-182008Y3174561D01*
X-187274Y3165439D01*
X-190000Y3155266D01*
Y3144734D01*
X-187274Y3134561D01*
X-182008Y3125439D01*
X-174561Y3117992D01*
X-165439Y3112726D01*
X-155266Y3110000D01*
X-144734D01*
X-134561Y3112726D01*
X-125439Y3117992D01*
X-117992Y3125439D01*
X-112726Y3134561D01*
X-110000Y3144734D01*
Y3155266D01*
X-112726Y3165439D01*
X-117992Y3174561D01*
X-125439Y3182008D01*
X-134561Y3187274D01*
X-144734Y3190000D01*
D02*
G37*
G36*
X355463Y3141496D02*
X344537D01*
X333983Y3138668D01*
X324521Y3133205D01*
X316795Y3125479D01*
X311332Y3116017D01*
X308504Y3105463D01*
Y3094537D01*
X311332Y3083983D01*
X316795Y3074521D01*
X324521Y3066795D01*
X333983Y3061332D01*
X344537Y3058504D01*
X355463D01*
X366017Y3061332D01*
X375479Y3066795D01*
X383205Y3074521D01*
X388668Y3083983D01*
X391496Y3094537D01*
Y3105463D01*
X388668Y3116017D01*
X383205Y3125479D01*
X375479Y3133205D01*
X366017Y3138668D01*
X355463Y3141496D01*
D02*
G37*
G36*
X-344537D02*
X-355463D01*
X-366017Y3138668D01*
X-375479Y3133205D01*
X-383205Y3125479D01*
X-388668Y3116017D01*
X-391496Y3105463D01*
Y3094537D01*
X-388668Y3083983D01*
X-383205Y3074521D01*
X-375479Y3066795D01*
X-366017Y3061332D01*
X-355463Y3058504D01*
X-344537D01*
X-333983Y3061332D01*
X-324521Y3066795D01*
X-316795Y3074521D01*
X-311332Y3083983D01*
X-308504Y3094537D01*
Y3105463D01*
X-311332Y3116017D01*
X-316795Y3125479D01*
X-324521Y3133205D01*
X-333983Y3138668D01*
X-344537Y3141496D01*
D02*
G37*
G36*
X1776583Y3120000D02*
X1763417D01*
X1750701Y3116593D01*
X1739299Y3110010D01*
X1729990Y3100701D01*
X1723408Y3089299D01*
X1720000Y3076583D01*
Y3063417D01*
X1723408Y3050701D01*
X1729990Y3039299D01*
X1739299Y3029990D01*
X1750701Y3023407D01*
X1763417Y3020000D01*
X1776583D01*
X1789299Y3023407D01*
X1800701Y3029990D01*
X1810010Y3039299D01*
X1816592Y3050701D01*
X1820000Y3063417D01*
Y3076583D01*
X1816592Y3089299D01*
X1810010Y3100701D01*
X1800701Y3110010D01*
X1789299Y3116593D01*
X1776583Y3120000D01*
D02*
G37*
G36*
X-1763417D02*
X-1776583D01*
X-1789299Y3116593D01*
X-1800701Y3110010D01*
X-1810010Y3100701D01*
X-1816592Y3089299D01*
X-1820000Y3076583D01*
Y3063417D01*
X-1816592Y3050701D01*
X-1810010Y3039299D01*
X-1800701Y3029990D01*
X-1789299Y3023407D01*
X-1776583Y3020000D01*
X-1763417D01*
X-1750701Y3023407D01*
X-1739299Y3029990D01*
X-1729990Y3039299D01*
X-1723408Y3050701D01*
X-1720000Y3063417D01*
Y3076583D01*
X-1723408Y3089299D01*
X-1729990Y3100701D01*
X-1739299Y3110010D01*
X-1750701Y3116593D01*
X-1763417Y3120000D01*
D02*
G37*
G36*
X155266Y3090000D02*
X144734D01*
X134561Y3087274D01*
X125439Y3082008D01*
X117992Y3074561D01*
X112726Y3065439D01*
X110000Y3055266D01*
Y3044734D01*
X112726Y3034561D01*
X117992Y3025439D01*
X125439Y3017992D01*
X134561Y3012726D01*
X144734Y3010000D01*
X155266D01*
X165439Y3012726D01*
X174561Y3017992D01*
X182008Y3025439D01*
X187274Y3034561D01*
X190000Y3044734D01*
Y3055266D01*
X187274Y3065439D01*
X182008Y3074561D01*
X174561Y3082008D01*
X165439Y3087274D01*
X155266Y3090000D01*
D02*
G37*
G36*
X-144734D02*
X-155266D01*
X-165439Y3087274D01*
X-174561Y3082008D01*
X-182008Y3074561D01*
X-187274Y3065439D01*
X-190000Y3055266D01*
Y3044734D01*
X-187274Y3034561D01*
X-182008Y3025439D01*
X-174561Y3017992D01*
X-165439Y3012726D01*
X-155266Y3010000D01*
X-144734D01*
X-134561Y3012726D01*
X-125439Y3017992D01*
X-117992Y3025439D01*
X-112726Y3034561D01*
X-110000Y3044734D01*
Y3055266D01*
X-112726Y3065439D01*
X-117992Y3074561D01*
X-125439Y3082008D01*
X-134561Y3087274D01*
X-144734Y3090000D01*
D02*
G37*
G36*
X494608Y3035000D02*
X485392D01*
X476490Y3032615D01*
X468510Y3028007D01*
X461993Y3021490D01*
X457385Y3013510D01*
X455000Y3004608D01*
Y2995392D01*
X457385Y2986490D01*
X461993Y2978510D01*
X468510Y2971993D01*
X476490Y2967385D01*
X485392Y2965000D01*
X494608D01*
X503510Y2967385D01*
X511490Y2971993D01*
X518007Y2978510D01*
X522615Y2986490D01*
X525000Y2995392D01*
Y3004608D01*
X522615Y3013510D01*
X518007Y3021490D01*
X511490Y3028007D01*
X503510Y3032615D01*
X494608Y3035000D01*
D02*
G37*
G36*
X391496Y3041496D02*
X308504D01*
Y2958504D01*
X391496D01*
Y3041496D01*
D02*
G37*
G36*
X-344537D02*
X-355463D01*
X-366017Y3038668D01*
X-375479Y3033205D01*
X-383205Y3025479D01*
X-388668Y3016017D01*
X-391496Y3005463D01*
Y2994537D01*
X-388668Y2983983D01*
X-383205Y2974521D01*
X-375479Y2966795D01*
X-366017Y2961332D01*
X-355463Y2958504D01*
X-344537D01*
X-333983Y2961332D01*
X-324521Y2966795D01*
X-316795Y2974521D01*
X-311332Y2983983D01*
X-308504Y2994537D01*
Y3005463D01*
X-311332Y3016017D01*
X-316795Y3025479D01*
X-324521Y3033205D01*
X-333983Y3038668D01*
X-344537Y3041496D01*
D02*
G37*
G36*
X-565000Y2944895D02*
Y2915000D01*
X-535105D01*
X-537385Y2923510D01*
X-541993Y2931490D01*
X-548510Y2938007D01*
X-556490Y2942615D01*
X-565000Y2944895D01*
D02*
G37*
G36*
X-575000D02*
X-583510Y2942615D01*
X-591490Y2938007D01*
X-598007Y2931490D01*
X-602615Y2923510D01*
X-604895Y2915000D01*
X-575000D01*
Y2944895D01*
D02*
G37*
G36*
X155266Y2990000D02*
X144734D01*
X134561Y2987274D01*
X125439Y2982008D01*
X117992Y2974561D01*
X112726Y2965439D01*
X110000Y2955266D01*
Y2944734D01*
X112726Y2934561D01*
X117992Y2925439D01*
X125439Y2917992D01*
X134561Y2912726D01*
X144734Y2910000D01*
X155266D01*
X165439Y2912726D01*
X174561Y2917992D01*
X182008Y2925439D01*
X187274Y2934561D01*
X190000Y2944734D01*
Y2955266D01*
X187274Y2965439D01*
X182008Y2974561D01*
X174561Y2982008D01*
X165439Y2987274D01*
X155266Y2990000D01*
D02*
G37*
G36*
X-144734D02*
X-155266D01*
X-165439Y2987274D01*
X-174561Y2982008D01*
X-182008Y2974561D01*
X-187274Y2965439D01*
X-190000Y2955266D01*
Y2944734D01*
X-187274Y2934561D01*
X-182008Y2925439D01*
X-174561Y2917992D01*
X-165439Y2912726D01*
X-155266Y2910000D01*
X-144734D01*
X-134561Y2912726D01*
X-125439Y2917992D01*
X-117992Y2925439D01*
X-112726Y2934561D01*
X-110000Y2944734D01*
Y2955266D01*
X-112726Y2965439D01*
X-117992Y2974561D01*
X-125439Y2982008D01*
X-134561Y2987274D01*
X-144734Y2990000D01*
D02*
G37*
G36*
X-535105Y2905000D02*
X-565000D01*
Y2875105D01*
X-556490Y2877385D01*
X-548510Y2881993D01*
X-541993Y2888510D01*
X-537385Y2896490D01*
X-535105Y2905000D01*
D02*
G37*
G36*
X-575000D02*
X-604895D01*
X-602615Y2896490D01*
X-598007Y2888510D01*
X-591490Y2881993D01*
X-583510Y2877385D01*
X-575000Y2875105D01*
Y2905000D01*
D02*
G37*
G36*
X-544734Y2840000D02*
X-545000D01*
Y2805000D01*
X-510000D01*
Y2805266D01*
X-512726Y2815439D01*
X-517992Y2824561D01*
X-525439Y2832008D01*
X-534561Y2837274D01*
X-544734Y2840000D01*
D02*
G37*
G36*
X-555000D02*
X-555266D01*
X-565439Y2837274D01*
X-574561Y2832008D01*
X-582008Y2824561D01*
X-587274Y2815439D01*
X-590000Y2805266D01*
Y2805000D01*
X-555000D01*
Y2840000D01*
D02*
G37*
G36*
X655266D02*
X644734D01*
X634561Y2837274D01*
X625439Y2832008D01*
X617992Y2824561D01*
X612726Y2815439D01*
X610000Y2805266D01*
Y2794734D01*
X612726Y2784561D01*
X617992Y2775439D01*
X625439Y2767992D01*
X634561Y2762726D01*
X644734Y2760000D01*
X655266D01*
X665439Y2762726D01*
X674561Y2767992D01*
X682008Y2775439D01*
X687274Y2784561D01*
X690000Y2794734D01*
Y2805266D01*
X687274Y2815439D01*
X682008Y2824561D01*
X674561Y2832008D01*
X665439Y2837274D01*
X655266Y2840000D01*
D02*
G37*
G36*
X555266D02*
X544734D01*
X534561Y2837274D01*
X525439Y2832008D01*
X517992Y2824561D01*
X512726Y2815439D01*
X510000Y2805266D01*
Y2794734D01*
X512726Y2784561D01*
X517992Y2775439D01*
X525439Y2767992D01*
X534561Y2762726D01*
X544734Y2760000D01*
X555266D01*
X565439Y2762726D01*
X574561Y2767992D01*
X582008Y2775439D01*
X587274Y2784561D01*
X590000Y2794734D01*
Y2805266D01*
X587274Y2815439D01*
X582008Y2824561D01*
X574561Y2832008D01*
X565439Y2837274D01*
X555266Y2840000D01*
D02*
G37*
G36*
X455266D02*
X444734D01*
X434561Y2837274D01*
X425439Y2832008D01*
X417992Y2824561D01*
X412726Y2815439D01*
X410000Y2805266D01*
Y2794734D01*
X412726Y2784561D01*
X417992Y2775439D01*
X425439Y2767992D01*
X434561Y2762726D01*
X444734Y2760000D01*
X455266D01*
X465439Y2762726D01*
X474561Y2767992D01*
X482008Y2775439D01*
X487274Y2784561D01*
X490000Y2794734D01*
Y2805266D01*
X487274Y2815439D01*
X482008Y2824561D01*
X474561Y2832008D01*
X465439Y2837274D01*
X455266Y2840000D01*
D02*
G37*
G36*
X355266D02*
X344734D01*
X334561Y2837274D01*
X325439Y2832008D01*
X317992Y2824561D01*
X312726Y2815439D01*
X310000Y2805266D01*
Y2794734D01*
X312726Y2784561D01*
X317992Y2775439D01*
X325439Y2767992D01*
X334561Y2762726D01*
X344734Y2760000D01*
X355266D01*
X365439Y2762726D01*
X374561Y2767992D01*
X382008Y2775439D01*
X387274Y2784561D01*
X390000Y2794734D01*
Y2805266D01*
X387274Y2815439D01*
X382008Y2824561D01*
X374561Y2832008D01*
X365439Y2837274D01*
X355266Y2840000D01*
D02*
G37*
G36*
X255266D02*
X244734D01*
X234561Y2837274D01*
X225439Y2832008D01*
X217992Y2824561D01*
X212726Y2815439D01*
X210000Y2805266D01*
Y2794734D01*
X212726Y2784561D01*
X217992Y2775439D01*
X225439Y2767992D01*
X234561Y2762726D01*
X244734Y2760000D01*
X255266D01*
X265439Y2762726D01*
X274561Y2767992D01*
X282008Y2775439D01*
X287274Y2784561D01*
X290000Y2794734D01*
Y2805266D01*
X287274Y2815439D01*
X282008Y2824561D01*
X274561Y2832008D01*
X265439Y2837274D01*
X255266Y2840000D01*
D02*
G37*
G36*
X155266D02*
X144734D01*
X134561Y2837274D01*
X125439Y2832008D01*
X117992Y2824561D01*
X112726Y2815439D01*
X110000Y2805266D01*
Y2794734D01*
X112726Y2784561D01*
X117992Y2775439D01*
X125439Y2767992D01*
X134561Y2762726D01*
X144734Y2760000D01*
X155266D01*
X165439Y2762726D01*
X174561Y2767992D01*
X182008Y2775439D01*
X187274Y2784561D01*
X190000Y2794734D01*
Y2805266D01*
X187274Y2815439D01*
X182008Y2824561D01*
X174561Y2832008D01*
X165439Y2837274D01*
X155266Y2840000D01*
D02*
G37*
G36*
X55266D02*
X44734D01*
X34561Y2837274D01*
X25439Y2832008D01*
X17992Y2824561D01*
X12726Y2815439D01*
X10000Y2805266D01*
Y2794734D01*
X12726Y2784561D01*
X17992Y2775439D01*
X25439Y2767992D01*
X34561Y2762726D01*
X44734Y2760000D01*
X55266D01*
X65439Y2762726D01*
X74561Y2767992D01*
X82008Y2775439D01*
X87274Y2784561D01*
X90000Y2794734D01*
Y2805266D01*
X87274Y2815439D01*
X82008Y2824561D01*
X74561Y2832008D01*
X65439Y2837274D01*
X55266Y2840000D01*
D02*
G37*
G36*
X-44734D02*
X-55266D01*
X-65439Y2837274D01*
X-74561Y2832008D01*
X-82008Y2824561D01*
X-87274Y2815439D01*
X-90000Y2805266D01*
Y2794734D01*
X-87274Y2784561D01*
X-82008Y2775439D01*
X-74561Y2767992D01*
X-65439Y2762726D01*
X-55266Y2760000D01*
X-44734D01*
X-34561Y2762726D01*
X-25439Y2767992D01*
X-17992Y2775439D01*
X-12726Y2784561D01*
X-10000Y2794734D01*
Y2805266D01*
X-12726Y2815439D01*
X-17992Y2824561D01*
X-25439Y2832008D01*
X-34561Y2837274D01*
X-44734Y2840000D01*
D02*
G37*
G36*
X-144734D02*
X-155266D01*
X-165439Y2837274D01*
X-174561Y2832008D01*
X-182008Y2824561D01*
X-187274Y2815439D01*
X-190000Y2805266D01*
Y2794734D01*
X-187274Y2784561D01*
X-182008Y2775439D01*
X-174561Y2767992D01*
X-165439Y2762726D01*
X-155266Y2760000D01*
X-144734D01*
X-134561Y2762726D01*
X-125439Y2767992D01*
X-117992Y2775439D01*
X-112726Y2784561D01*
X-110000Y2794734D01*
Y2805266D01*
X-112726Y2815439D01*
X-117992Y2824561D01*
X-125439Y2832008D01*
X-134561Y2837274D01*
X-144734Y2840000D01*
D02*
G37*
G36*
X-244734D02*
X-255266D01*
X-265439Y2837274D01*
X-274561Y2832008D01*
X-282008Y2824561D01*
X-287274Y2815439D01*
X-290000Y2805266D01*
Y2794734D01*
X-287274Y2784561D01*
X-282008Y2775439D01*
X-274561Y2767992D01*
X-265439Y2762726D01*
X-255266Y2760000D01*
X-244734D01*
X-234561Y2762726D01*
X-225439Y2767992D01*
X-217992Y2775439D01*
X-212726Y2784561D01*
X-210000Y2794734D01*
Y2805266D01*
X-212726Y2815439D01*
X-217992Y2824561D01*
X-225439Y2832008D01*
X-234561Y2837274D01*
X-244734Y2840000D01*
D02*
G37*
G36*
X-344734D02*
X-355266D01*
X-365439Y2837274D01*
X-374561Y2832008D01*
X-382008Y2824561D01*
X-387274Y2815439D01*
X-390000Y2805266D01*
Y2794734D01*
X-387274Y2784561D01*
X-382008Y2775439D01*
X-374561Y2767992D01*
X-365439Y2762726D01*
X-355266Y2760000D01*
X-344734D01*
X-334561Y2762726D01*
X-325439Y2767992D01*
X-317992Y2775439D01*
X-312726Y2784561D01*
X-310000Y2794734D01*
Y2805266D01*
X-312726Y2815439D01*
X-317992Y2824561D01*
X-325439Y2832008D01*
X-334561Y2837274D01*
X-344734Y2840000D01*
D02*
G37*
G36*
X-444734D02*
X-455266D01*
X-465439Y2837274D01*
X-474561Y2832008D01*
X-482008Y2824561D01*
X-487274Y2815439D01*
X-490000Y2805266D01*
Y2794734D01*
X-487274Y2784561D01*
X-482008Y2775439D01*
X-474561Y2767992D01*
X-465439Y2762726D01*
X-455266Y2760000D01*
X-444734D01*
X-434561Y2762726D01*
X-425439Y2767992D01*
X-417992Y2775439D01*
X-412726Y2784561D01*
X-410000Y2794734D01*
Y2805266D01*
X-412726Y2815439D01*
X-417992Y2824561D01*
X-425439Y2832008D01*
X-434561Y2837274D01*
X-444734Y2840000D01*
D02*
G37*
G36*
X-510000Y2795000D02*
X-545000D01*
Y2760000D01*
X-544734D01*
X-534561Y2762726D01*
X-525439Y2767992D01*
X-517992Y2775439D01*
X-512726Y2784561D01*
X-510000Y2794734D01*
Y2795000D01*
D02*
G37*
G36*
X-555000D02*
X-590000D01*
Y2794734D01*
X-587274Y2784561D01*
X-582008Y2775439D01*
X-574561Y2767992D01*
X-565439Y2762726D01*
X-555266Y2760000D01*
X-555000D01*
Y2795000D01*
D02*
G37*
G36*
X-644734Y2840000D02*
X-655266D01*
X-665439Y2837274D01*
X-674561Y2832008D01*
X-682008Y2824561D01*
X-687274Y2815439D01*
X-690000Y2805266D01*
Y2794734D01*
X-687274Y2784561D01*
X-682008Y2775439D01*
X-674561Y2767992D01*
X-665439Y2762726D01*
X-655266Y2760000D01*
X-644734D01*
X-634561Y2762726D01*
X-625439Y2767992D01*
X-617992Y2775439D01*
X-612726Y2784561D01*
X-610000Y2794734D01*
Y2805266D01*
X-612726Y2815439D01*
X-617992Y2824561D01*
X-625439Y2832008D01*
X-634561Y2837274D01*
X-644734Y2840000D01*
D02*
G37*
G36*
X655266Y2740000D02*
X644734D01*
X634561Y2737274D01*
X625439Y2732008D01*
X617992Y2724561D01*
X612726Y2715439D01*
X610000Y2705266D01*
Y2694734D01*
X612726Y2684561D01*
X617992Y2675439D01*
X625439Y2667992D01*
X634561Y2662726D01*
X644734Y2660000D01*
X655266D01*
X665439Y2662726D01*
X674561Y2667992D01*
X682008Y2675439D01*
X687274Y2684561D01*
X690000Y2694734D01*
Y2705266D01*
X687274Y2715439D01*
X682008Y2724561D01*
X674561Y2732008D01*
X665439Y2737274D01*
X655266Y2740000D01*
D02*
G37*
G36*
X-544734D02*
X-555266D01*
X-565439Y2737274D01*
X-574561Y2732008D01*
X-582008Y2724561D01*
X-587274Y2715439D01*
X-590000Y2705266D01*
Y2694734D01*
X-587274Y2684561D01*
X-582008Y2675439D01*
X-574561Y2667992D01*
X-565439Y2662726D01*
X-555266Y2660000D01*
X-544734D01*
X-534561Y2662726D01*
X-525439Y2667992D01*
X-517992Y2675439D01*
X-512726Y2684561D01*
X-510000Y2694734D01*
Y2705266D01*
X-512726Y2715439D01*
X-517992Y2724561D01*
X-525439Y2732008D01*
X-534561Y2737274D01*
X-544734Y2740000D01*
D02*
G37*
G36*
X655266Y2640000D02*
X644734D01*
X634561Y2637274D01*
X625439Y2632008D01*
X617992Y2624561D01*
X612726Y2615439D01*
X610000Y2605266D01*
Y2594734D01*
X612726Y2584561D01*
X617992Y2575439D01*
X625439Y2567992D01*
X634561Y2562726D01*
X644734Y2560000D01*
X655266D01*
X665439Y2562726D01*
X674561Y2567992D01*
X682008Y2575439D01*
X687274Y2584561D01*
X690000Y2594734D01*
Y2605266D01*
X687274Y2615439D01*
X682008Y2624561D01*
X674561Y2632008D01*
X665439Y2637274D01*
X655266Y2640000D01*
D02*
G37*
G36*
Y2540000D02*
X655000D01*
Y2505000D01*
X690000D01*
Y2505266D01*
X687274Y2515439D01*
X682008Y2524561D01*
X674561Y2532008D01*
X665439Y2537274D01*
X655266Y2540000D01*
D02*
G37*
G36*
X515000Y2534895D02*
Y2505000D01*
X544895D01*
X542615Y2513510D01*
X538007Y2521490D01*
X531490Y2528007D01*
X523510Y2532615D01*
X515000Y2534895D01*
D02*
G37*
G36*
X505000D02*
X496490Y2532615D01*
X488510Y2528007D01*
X481993Y2521490D01*
X477385Y2513510D01*
X475105Y2505000D01*
X505000D01*
Y2534895D01*
D02*
G37*
G36*
X645000Y2540000D02*
X644734D01*
X634561Y2537274D01*
X625439Y2532008D01*
X617992Y2524561D01*
X612726Y2515439D01*
X610000Y2505266D01*
Y2505000D01*
X645000D01*
Y2540000D01*
D02*
G37*
G36*
X544895Y2495000D02*
X515000D01*
Y2465105D01*
X523510Y2467385D01*
X531490Y2471993D01*
X538007Y2478510D01*
X542615Y2486490D01*
X544895Y2495000D01*
D02*
G37*
G36*
X505000D02*
X475105D01*
X477385Y2486490D01*
X481993Y2478510D01*
X488510Y2471993D01*
X496490Y2467385D01*
X505000Y2465105D01*
Y2495000D01*
D02*
G37*
G36*
X690000D02*
X655000D01*
Y2460000D01*
X655266D01*
X665439Y2462726D01*
X674561Y2467992D01*
X682008Y2475439D01*
X687274Y2484561D01*
X690000Y2494734D01*
Y2495000D01*
D02*
G37*
G36*
X645000D02*
X610000D01*
Y2494734D01*
X612726Y2484561D01*
X617992Y2475439D01*
X625439Y2467992D01*
X634561Y2462726D01*
X644734Y2460000D01*
X645000D01*
Y2495000D01*
D02*
G37*
G36*
X655266Y2440000D02*
X644734D01*
X634561Y2437274D01*
X625439Y2432008D01*
X617992Y2424561D01*
X612726Y2415439D01*
X610000Y2405266D01*
Y2394734D01*
X612726Y2384561D01*
X617992Y2375439D01*
X625439Y2367992D01*
X634561Y2362726D01*
X644734Y2360000D01*
X655266D01*
X665439Y2362726D01*
X674561Y2367992D01*
X682008Y2375439D01*
X687274Y2384561D01*
X690000Y2394734D01*
Y2405266D01*
X687274Y2415439D01*
X682008Y2424561D01*
X674561Y2432008D01*
X665439Y2437274D01*
X655266Y2440000D01*
D02*
G37*
G36*
X-645000Y2364895D02*
Y2335000D01*
X-615105D01*
X-617385Y2343510D01*
X-621993Y2351490D01*
X-628510Y2358007D01*
X-636490Y2362615D01*
X-645000Y2364895D01*
D02*
G37*
G36*
X-655000D02*
X-663510Y2362615D01*
X-671490Y2358007D01*
X-678007Y2351490D01*
X-682615Y2343510D01*
X-684895Y2335000D01*
X-655000D01*
Y2364895D01*
D02*
G37*
G36*
X-615105Y2325000D02*
X-645000D01*
Y2295105D01*
X-636490Y2297385D01*
X-628510Y2301993D01*
X-621993Y2308510D01*
X-617385Y2316490D01*
X-615105Y2325000D01*
D02*
G37*
G36*
X-655000D02*
X-684895D01*
X-682615Y2316490D01*
X-678007Y2308510D01*
X-671490Y2301993D01*
X-663510Y2297385D01*
X-655000Y2295105D01*
Y2325000D01*
D02*
G37*
G36*
X655266Y2340000D02*
X644734D01*
X634561Y2337274D01*
X625439Y2332008D01*
X617992Y2324561D01*
X612726Y2315439D01*
X610000Y2305266D01*
Y2294734D01*
X612726Y2284561D01*
X617992Y2275439D01*
X625439Y2267992D01*
X634561Y2262726D01*
X644734Y2260000D01*
X655266D01*
X665439Y2262726D01*
X674561Y2267992D01*
X682008Y2275439D01*
X687274Y2284561D01*
X690000Y2294734D01*
Y2305266D01*
X687274Y2315439D01*
X682008Y2324561D01*
X674561Y2332008D01*
X665439Y2337274D01*
X655266Y2340000D01*
D02*
G37*
G36*
X-644734Y2240000D02*
X-645000D01*
Y2205000D01*
X-610000D01*
Y2205266D01*
X-612726Y2215439D01*
X-617992Y2224561D01*
X-625439Y2232008D01*
X-634561Y2237274D01*
X-644734Y2240000D01*
D02*
G37*
G36*
X-655000D02*
X-655266D01*
X-665439Y2237274D01*
X-674561Y2232008D01*
X-682008Y2224561D01*
X-687274Y2215439D01*
X-690000Y2205266D01*
Y2205000D01*
X-655000D01*
Y2240000D01*
D02*
G37*
G36*
X655266D02*
X644734D01*
X634561Y2237274D01*
X625439Y2232008D01*
X617992Y2224561D01*
X612726Y2215439D01*
X610000Y2205266D01*
Y2194734D01*
X612726Y2184561D01*
X617992Y2175439D01*
X625439Y2167992D01*
X634561Y2162726D01*
X644734Y2160000D01*
X655266D01*
X665439Y2162726D01*
X674561Y2167992D01*
X682008Y2175439D01*
X687274Y2184561D01*
X690000Y2194734D01*
Y2205266D01*
X687274Y2215439D01*
X682008Y2224561D01*
X674561Y2232008D01*
X665439Y2237274D01*
X655266Y2240000D01*
D02*
G37*
G36*
X555266D02*
X544734D01*
X534561Y2237274D01*
X525439Y2232008D01*
X517992Y2224561D01*
X512726Y2215439D01*
X510000Y2205266D01*
Y2194734D01*
X512726Y2184561D01*
X517992Y2175439D01*
X525439Y2167992D01*
X534561Y2162726D01*
X544734Y2160000D01*
X555266D01*
X565439Y2162726D01*
X574561Y2167992D01*
X582008Y2175439D01*
X587274Y2184561D01*
X590000Y2194734D01*
Y2205266D01*
X587274Y2215439D01*
X582008Y2224561D01*
X574561Y2232008D01*
X565439Y2237274D01*
X555266Y2240000D01*
D02*
G37*
G36*
X455266D02*
X444734D01*
X434561Y2237274D01*
X425439Y2232008D01*
X417992Y2224561D01*
X412726Y2215439D01*
X410000Y2205266D01*
Y2194734D01*
X412726Y2184561D01*
X417992Y2175439D01*
X425439Y2167992D01*
X434561Y2162726D01*
X444734Y2160000D01*
X455266D01*
X465439Y2162726D01*
X474561Y2167992D01*
X482008Y2175439D01*
X487274Y2184561D01*
X490000Y2194734D01*
Y2205266D01*
X487274Y2215439D01*
X482008Y2224561D01*
X474561Y2232008D01*
X465439Y2237274D01*
X455266Y2240000D01*
D02*
G37*
G36*
X355266D02*
X344734D01*
X334561Y2237274D01*
X325439Y2232008D01*
X317992Y2224561D01*
X312726Y2215439D01*
X310000Y2205266D01*
Y2194734D01*
X312726Y2184561D01*
X317992Y2175439D01*
X325439Y2167992D01*
X334561Y2162726D01*
X344734Y2160000D01*
X355266D01*
X365439Y2162726D01*
X374561Y2167992D01*
X382008Y2175439D01*
X387274Y2184561D01*
X390000Y2194734D01*
Y2205266D01*
X387274Y2215439D01*
X382008Y2224561D01*
X374561Y2232008D01*
X365439Y2237274D01*
X355266Y2240000D01*
D02*
G37*
G36*
X255266D02*
X244734D01*
X234561Y2237274D01*
X225439Y2232008D01*
X217992Y2224561D01*
X212726Y2215439D01*
X210000Y2205266D01*
Y2194734D01*
X212726Y2184561D01*
X217992Y2175439D01*
X225439Y2167992D01*
X234561Y2162726D01*
X244734Y2160000D01*
X255266D01*
X265439Y2162726D01*
X274561Y2167992D01*
X282008Y2175439D01*
X287274Y2184561D01*
X290000Y2194734D01*
Y2205266D01*
X287274Y2215439D01*
X282008Y2224561D01*
X274561Y2232008D01*
X265439Y2237274D01*
X255266Y2240000D01*
D02*
G37*
G36*
X155266D02*
X144734D01*
X134561Y2237274D01*
X125439Y2232008D01*
X117992Y2224561D01*
X112726Y2215439D01*
X110000Y2205266D01*
Y2194734D01*
X112726Y2184561D01*
X117992Y2175439D01*
X125439Y2167992D01*
X134561Y2162726D01*
X144734Y2160000D01*
X155266D01*
X165439Y2162726D01*
X174561Y2167992D01*
X182008Y2175439D01*
X187274Y2184561D01*
X190000Y2194734D01*
Y2205266D01*
X187274Y2215439D01*
X182008Y2224561D01*
X174561Y2232008D01*
X165439Y2237274D01*
X155266Y2240000D01*
D02*
G37*
G36*
X55266D02*
X44734D01*
X34561Y2237274D01*
X25439Y2232008D01*
X17992Y2224561D01*
X12726Y2215439D01*
X10000Y2205266D01*
Y2194734D01*
X12726Y2184561D01*
X17992Y2175439D01*
X25439Y2167992D01*
X34561Y2162726D01*
X44734Y2160000D01*
X55266D01*
X65439Y2162726D01*
X74561Y2167992D01*
X82008Y2175439D01*
X87274Y2184561D01*
X90000Y2194734D01*
Y2205266D01*
X87274Y2215439D01*
X82008Y2224561D01*
X74561Y2232008D01*
X65439Y2237274D01*
X55266Y2240000D01*
D02*
G37*
G36*
X-44734D02*
X-55266D01*
X-65439Y2237274D01*
X-74561Y2232008D01*
X-82008Y2224561D01*
X-87274Y2215439D01*
X-90000Y2205266D01*
Y2194734D01*
X-87274Y2184561D01*
X-82008Y2175439D01*
X-74561Y2167992D01*
X-65439Y2162726D01*
X-55266Y2160000D01*
X-44734D01*
X-34561Y2162726D01*
X-25439Y2167992D01*
X-17992Y2175439D01*
X-12726Y2184561D01*
X-10000Y2194734D01*
Y2205266D01*
X-12726Y2215439D01*
X-17992Y2224561D01*
X-25439Y2232008D01*
X-34561Y2237274D01*
X-44734Y2240000D01*
D02*
G37*
G36*
X-144734D02*
X-155266D01*
X-165439Y2237274D01*
X-174561Y2232008D01*
X-182008Y2224561D01*
X-187274Y2215439D01*
X-190000Y2205266D01*
Y2194734D01*
X-187274Y2184561D01*
X-182008Y2175439D01*
X-174561Y2167992D01*
X-165439Y2162726D01*
X-155266Y2160000D01*
X-144734D01*
X-134561Y2162726D01*
X-125439Y2167992D01*
X-117992Y2175439D01*
X-112726Y2184561D01*
X-110000Y2194734D01*
Y2205266D01*
X-112726Y2215439D01*
X-117992Y2224561D01*
X-125439Y2232008D01*
X-134561Y2237274D01*
X-144734Y2240000D01*
D02*
G37*
G36*
X-244734D02*
X-255266D01*
X-265439Y2237274D01*
X-274561Y2232008D01*
X-282008Y2224561D01*
X-287274Y2215439D01*
X-290000Y2205266D01*
Y2194734D01*
X-287274Y2184561D01*
X-282008Y2175439D01*
X-274561Y2167992D01*
X-265439Y2162726D01*
X-255266Y2160000D01*
X-244734D01*
X-234561Y2162726D01*
X-225439Y2167992D01*
X-217992Y2175439D01*
X-212726Y2184561D01*
X-210000Y2194734D01*
Y2205266D01*
X-212726Y2215439D01*
X-217992Y2224561D01*
X-225439Y2232008D01*
X-234561Y2237274D01*
X-244734Y2240000D01*
D02*
G37*
G36*
X-344734D02*
X-355266D01*
X-365439Y2237274D01*
X-374561Y2232008D01*
X-382008Y2224561D01*
X-387274Y2215439D01*
X-390000Y2205266D01*
Y2194734D01*
X-387274Y2184561D01*
X-382008Y2175439D01*
X-374561Y2167992D01*
X-365439Y2162726D01*
X-355266Y2160000D01*
X-344734D01*
X-334561Y2162726D01*
X-325439Y2167992D01*
X-317992Y2175439D01*
X-312726Y2184561D01*
X-310000Y2194734D01*
Y2205266D01*
X-312726Y2215439D01*
X-317992Y2224561D01*
X-325439Y2232008D01*
X-334561Y2237274D01*
X-344734Y2240000D01*
D02*
G37*
G36*
X-444734D02*
X-455266D01*
X-465439Y2237274D01*
X-474561Y2232008D01*
X-482008Y2224561D01*
X-487274Y2215439D01*
X-490000Y2205266D01*
Y2194734D01*
X-487274Y2184561D01*
X-482008Y2175439D01*
X-474561Y2167992D01*
X-465439Y2162726D01*
X-455266Y2160000D01*
X-444734D01*
X-434561Y2162726D01*
X-425439Y2167992D01*
X-417992Y2175439D01*
X-412726Y2184561D01*
X-410000Y2194734D01*
Y2205266D01*
X-412726Y2215439D01*
X-417992Y2224561D01*
X-425439Y2232008D01*
X-434561Y2237274D01*
X-444734Y2240000D01*
D02*
G37*
G36*
X-544734D02*
X-555266D01*
X-565439Y2237274D01*
X-574561Y2232008D01*
X-582008Y2224561D01*
X-587274Y2215439D01*
X-590000Y2205266D01*
Y2194734D01*
X-587274Y2184561D01*
X-582008Y2175439D01*
X-574561Y2167992D01*
X-565439Y2162726D01*
X-555266Y2160000D01*
X-544734D01*
X-534561Y2162726D01*
X-525439Y2167992D01*
X-517992Y2175439D01*
X-512726Y2184561D01*
X-510000Y2194734D01*
Y2205266D01*
X-512726Y2215439D01*
X-517992Y2224561D01*
X-525439Y2232008D01*
X-534561Y2237274D01*
X-544734Y2240000D01*
D02*
G37*
G36*
X-610000Y2195000D02*
X-645000D01*
Y2160000D01*
X-644734D01*
X-634561Y2162726D01*
X-625439Y2167992D01*
X-617992Y2175439D01*
X-612726Y2184561D01*
X-610000Y2194734D01*
Y2195000D01*
D02*
G37*
G36*
X-655000D02*
X-690000D01*
Y2194734D01*
X-687274Y2184561D01*
X-682008Y2175439D01*
X-674561Y2167992D01*
X-665439Y2162726D01*
X-655266Y2160000D01*
X-655000D01*
Y2195000D01*
D02*
G37*
G36*
X575000Y2084895D02*
Y2055000D01*
X604895D01*
X602615Y2063510D01*
X598007Y2071490D01*
X591490Y2078007D01*
X583510Y2082615D01*
X575000Y2084895D01*
D02*
G37*
G36*
X565000D02*
X556490Y2082615D01*
X548510Y2078007D01*
X541993Y2071490D01*
X537385Y2063510D01*
X535105Y2055000D01*
X565000D01*
Y2084895D01*
D02*
G37*
G36*
X385000Y2074895D02*
Y2045000D01*
X414895D01*
X412615Y2053510D01*
X408007Y2061490D01*
X401490Y2068007D01*
X393510Y2072615D01*
X385000Y2074895D01*
D02*
G37*
G36*
X375000D02*
X366490Y2072615D01*
X358510Y2068007D01*
X351993Y2061490D01*
X347385Y2053510D01*
X345105Y2045000D01*
X375000D01*
Y2074895D01*
D02*
G37*
G36*
X-745000D02*
Y2045000D01*
X-715105D01*
X-717385Y2053510D01*
X-721993Y2061490D01*
X-728510Y2068007D01*
X-736490Y2072615D01*
X-745000Y2074895D01*
D02*
G37*
G36*
X-755000D02*
X-763510Y2072615D01*
X-771490Y2068007D01*
X-778007Y2061490D01*
X-782615Y2053510D01*
X-784895Y2045000D01*
X-755000D01*
Y2074895D01*
D02*
G37*
G36*
X604895Y2045000D02*
X575000D01*
Y2015105D01*
X583510Y2017385D01*
X591490Y2021993D01*
X598007Y2028509D01*
X602615Y2036491D01*
X604895Y2045000D01*
D02*
G37*
G36*
X565000D02*
X535105D01*
X537385Y2036491D01*
X541993Y2028509D01*
X548510Y2021993D01*
X556490Y2017385D01*
X565000Y2015105D01*
Y2045000D01*
D02*
G37*
G36*
X414895Y2035000D02*
X385000D01*
Y2005105D01*
X393510Y2007385D01*
X401490Y2011993D01*
X408007Y2018509D01*
X412615Y2026491D01*
X414895Y2035000D01*
D02*
G37*
G36*
X375000D02*
X345105D01*
X347385Y2026491D01*
X351993Y2018509D01*
X358510Y2011993D01*
X366490Y2007385D01*
X375000Y2005105D01*
Y2035000D01*
D02*
G37*
G36*
X-715105D02*
X-745000D01*
Y2005105D01*
X-736490Y2007385D01*
X-728510Y2011993D01*
X-721993Y2018509D01*
X-717385Y2026491D01*
X-715105Y2035000D01*
D02*
G37*
G36*
X-755000D02*
X-784895D01*
X-782615Y2026491D01*
X-778007Y2018509D01*
X-771490Y2011993D01*
X-763510Y2007385D01*
X-755000Y2005105D01*
Y2035000D01*
D02*
G37*
G36*
X655266Y1940000D02*
X655000D01*
Y1905000D01*
X690000D01*
Y1905266D01*
X687274Y1915439D01*
X682008Y1924561D01*
X674561Y1932008D01*
X665439Y1937274D01*
X655266Y1940000D01*
D02*
G37*
G36*
X455266D02*
X455000D01*
Y1905000D01*
X490000D01*
Y1905266D01*
X487274Y1915439D01*
X482008Y1924561D01*
X474561Y1932008D01*
X465439Y1937274D01*
X455266Y1940000D01*
D02*
G37*
G36*
X-44734D02*
X-45000D01*
Y1905000D01*
X-10000D01*
Y1905266D01*
X-12726Y1915439D01*
X-17992Y1924561D01*
X-25439Y1932008D01*
X-34561Y1937274D01*
X-44734Y1940000D01*
D02*
G37*
G36*
X-744734D02*
X-745000D01*
Y1905000D01*
X-710000D01*
Y1905266D01*
X-712726Y1915439D01*
X-717992Y1924561D01*
X-725439Y1932008D01*
X-734561Y1937274D01*
X-744734Y1940000D01*
D02*
G37*
G36*
X-755000D02*
X-755266D01*
X-765439Y1937274D01*
X-774561Y1932008D01*
X-782008Y1924561D01*
X-787274Y1915439D01*
X-790000Y1905266D01*
Y1905000D01*
X-755000D01*
Y1940000D01*
D02*
G37*
G36*
X445000D02*
X444734D01*
X434561Y1937274D01*
X425439Y1932008D01*
X417992Y1924561D01*
X412726Y1915439D01*
X410000Y1905266D01*
Y1905000D01*
X445000D01*
Y1940000D01*
D02*
G37*
G36*
X-55000D02*
X-55266D01*
X-65439Y1937274D01*
X-74561Y1932008D01*
X-82008Y1924561D01*
X-87274Y1915439D01*
X-90000Y1905266D01*
Y1905000D01*
X-55000D01*
Y1940000D01*
D02*
G37*
G36*
X645000D02*
X644734D01*
X634561Y1937274D01*
X625439Y1932008D01*
X617992Y1924561D01*
X612726Y1915439D01*
X610000Y1905266D01*
Y1905000D01*
X645000D01*
Y1940000D01*
D02*
G37*
G36*
X955266D02*
X944734D01*
X934561Y1937274D01*
X925439Y1932008D01*
X917992Y1924561D01*
X912726Y1915439D01*
X910000Y1905266D01*
Y1894734D01*
X912726Y1884561D01*
X917992Y1875439D01*
X925439Y1867992D01*
X934561Y1862726D01*
X944734Y1860000D01*
X955266D01*
X965439Y1862726D01*
X974561Y1867992D01*
X982008Y1875439D01*
X987274Y1884561D01*
X990000Y1894734D01*
Y1905266D01*
X987274Y1915439D01*
X982008Y1924561D01*
X974561Y1932008D01*
X965439Y1937274D01*
X955266Y1940000D01*
D02*
G37*
G36*
X855266D02*
X844734D01*
X834561Y1937274D01*
X825439Y1932008D01*
X817992Y1924561D01*
X812726Y1915439D01*
X810000Y1905266D01*
Y1894734D01*
X812726Y1884561D01*
X817992Y1875439D01*
X825439Y1867992D01*
X834561Y1862726D01*
X844734Y1860000D01*
X855266D01*
X865439Y1862726D01*
X874561Y1867992D01*
X882008Y1875439D01*
X887274Y1884561D01*
X890000Y1894734D01*
Y1905266D01*
X887274Y1915439D01*
X882008Y1924561D01*
X874561Y1932008D01*
X865439Y1937274D01*
X855266Y1940000D01*
D02*
G37*
G36*
X755266D02*
X744734D01*
X734561Y1937274D01*
X725439Y1932008D01*
X717992Y1924561D01*
X712726Y1915439D01*
X710000Y1905266D01*
Y1894734D01*
X712726Y1884561D01*
X717992Y1875439D01*
X725439Y1867992D01*
X734561Y1862726D01*
X744734Y1860000D01*
X755266D01*
X765439Y1862726D01*
X774561Y1867992D01*
X782008Y1875439D01*
X787274Y1884561D01*
X790000Y1894734D01*
Y1905266D01*
X787274Y1915439D01*
X782008Y1924561D01*
X774561Y1932008D01*
X765439Y1937274D01*
X755266Y1940000D01*
D02*
G37*
G36*
X690000Y1895000D02*
X655000D01*
Y1860000D01*
X655266D01*
X665439Y1862726D01*
X674561Y1867992D01*
X682008Y1875439D01*
X687274Y1884561D01*
X690000Y1894734D01*
Y1895000D01*
D02*
G37*
G36*
X645000D02*
X610000D01*
Y1894734D01*
X612726Y1884561D01*
X617992Y1875439D01*
X625439Y1867992D01*
X634561Y1862726D01*
X644734Y1860000D01*
X645000D01*
Y1895000D01*
D02*
G37*
G36*
X555266Y1940000D02*
X544734D01*
X534561Y1937274D01*
X525439Y1932008D01*
X517992Y1924561D01*
X512726Y1915439D01*
X510000Y1905266D01*
Y1894734D01*
X512726Y1884561D01*
X517992Y1875439D01*
X525439Y1867992D01*
X534561Y1862726D01*
X544734Y1860000D01*
X555266D01*
X565439Y1862726D01*
X574561Y1867992D01*
X582008Y1875439D01*
X587274Y1884561D01*
X590000Y1894734D01*
Y1905266D01*
X587274Y1915439D01*
X582008Y1924561D01*
X574561Y1932008D01*
X565439Y1937274D01*
X555266Y1940000D01*
D02*
G37*
G36*
X490000Y1895000D02*
X455000D01*
Y1860000D01*
X455266D01*
X465439Y1862726D01*
X474561Y1867992D01*
X482008Y1875439D01*
X487274Y1884561D01*
X490000Y1894734D01*
Y1895000D01*
D02*
G37*
G36*
X445000D02*
X410000D01*
Y1894734D01*
X412726Y1884561D01*
X417992Y1875439D01*
X425439Y1867992D01*
X434561Y1862726D01*
X444734Y1860000D01*
X445000D01*
Y1895000D01*
D02*
G37*
G36*
X355266Y1940000D02*
X344734D01*
X334561Y1937274D01*
X325439Y1932008D01*
X317992Y1924561D01*
X312726Y1915439D01*
X310000Y1905266D01*
Y1894734D01*
X312726Y1884561D01*
X317992Y1875439D01*
X325439Y1867992D01*
X334561Y1862726D01*
X344734Y1860000D01*
X355266D01*
X365439Y1862726D01*
X374561Y1867992D01*
X382008Y1875439D01*
X387274Y1884561D01*
X390000Y1894734D01*
Y1905266D01*
X387274Y1915439D01*
X382008Y1924561D01*
X374561Y1932008D01*
X365439Y1937274D01*
X355266Y1940000D01*
D02*
G37*
G36*
X255266D02*
X244734D01*
X234561Y1937274D01*
X225439Y1932008D01*
X217992Y1924561D01*
X212726Y1915439D01*
X210000Y1905266D01*
Y1894734D01*
X212726Y1884561D01*
X217992Y1875439D01*
X225439Y1867992D01*
X234561Y1862726D01*
X244734Y1860000D01*
X255266D01*
X265439Y1862726D01*
X274561Y1867992D01*
X282008Y1875439D01*
X287274Y1884561D01*
X290000Y1894734D01*
Y1905266D01*
X287274Y1915439D01*
X282008Y1924561D01*
X274561Y1932008D01*
X265439Y1937274D01*
X255266Y1940000D01*
D02*
G37*
G36*
X155266D02*
X144734D01*
X134561Y1937274D01*
X125439Y1932008D01*
X117992Y1924561D01*
X112726Y1915439D01*
X110000Y1905266D01*
Y1894734D01*
X112726Y1884561D01*
X117992Y1875439D01*
X125439Y1867992D01*
X134561Y1862726D01*
X144734Y1860000D01*
X155266D01*
X165439Y1862726D01*
X174561Y1867992D01*
X182008Y1875439D01*
X187274Y1884561D01*
X190000Y1894734D01*
Y1905266D01*
X187274Y1915439D01*
X182008Y1924561D01*
X174561Y1932008D01*
X165439Y1937274D01*
X155266Y1940000D01*
D02*
G37*
G36*
X55266D02*
X44734D01*
X34561Y1937274D01*
X25439Y1932008D01*
X17992Y1924561D01*
X12726Y1915439D01*
X10000Y1905266D01*
Y1894734D01*
X12726Y1884561D01*
X17992Y1875439D01*
X25439Y1867992D01*
X34561Y1862726D01*
X44734Y1860000D01*
X55266D01*
X65439Y1862726D01*
X74561Y1867992D01*
X82008Y1875439D01*
X87274Y1884561D01*
X90000Y1894734D01*
Y1905266D01*
X87274Y1915439D01*
X82008Y1924561D01*
X74561Y1932008D01*
X65439Y1937274D01*
X55266Y1940000D01*
D02*
G37*
G36*
X-10000Y1895000D02*
X-45000D01*
Y1860000D01*
X-44734D01*
X-34561Y1862726D01*
X-25439Y1867992D01*
X-17992Y1875439D01*
X-12726Y1884561D01*
X-10000Y1894734D01*
Y1895000D01*
D02*
G37*
G36*
X-55000D02*
X-90000D01*
Y1894734D01*
X-87274Y1884561D01*
X-82008Y1875439D01*
X-74561Y1867992D01*
X-65439Y1862726D01*
X-55266Y1860000D01*
X-55000D01*
Y1895000D01*
D02*
G37*
G36*
X-144734Y1940000D02*
X-155266D01*
X-165439Y1937274D01*
X-174561Y1932008D01*
X-182008Y1924561D01*
X-187274Y1915439D01*
X-190000Y1905266D01*
Y1894734D01*
X-187274Y1884561D01*
X-182008Y1875439D01*
X-174561Y1867992D01*
X-165439Y1862726D01*
X-155266Y1860000D01*
X-144734D01*
X-134561Y1862726D01*
X-125439Y1867992D01*
X-117992Y1875439D01*
X-112726Y1884561D01*
X-110000Y1894734D01*
Y1905266D01*
X-112726Y1915439D01*
X-117992Y1924561D01*
X-125439Y1932008D01*
X-134561Y1937274D01*
X-144734Y1940000D01*
D02*
G37*
G36*
X-244734D02*
X-255266D01*
X-265439Y1937274D01*
X-274561Y1932008D01*
X-282008Y1924561D01*
X-287274Y1915439D01*
X-290000Y1905266D01*
Y1894734D01*
X-287274Y1884561D01*
X-282008Y1875439D01*
X-274561Y1867992D01*
X-265439Y1862726D01*
X-255266Y1860000D01*
X-244734D01*
X-234561Y1862726D01*
X-225439Y1867992D01*
X-217992Y1875439D01*
X-212726Y1884561D01*
X-210000Y1894734D01*
Y1905266D01*
X-212726Y1915439D01*
X-217992Y1924561D01*
X-225439Y1932008D01*
X-234561Y1937274D01*
X-244734Y1940000D01*
D02*
G37*
G36*
X-344734D02*
X-355266D01*
X-365439Y1937274D01*
X-374561Y1932008D01*
X-382008Y1924561D01*
X-387274Y1915439D01*
X-390000Y1905266D01*
Y1894734D01*
X-387274Y1884561D01*
X-382008Y1875439D01*
X-374561Y1867992D01*
X-365439Y1862726D01*
X-355266Y1860000D01*
X-344734D01*
X-334561Y1862726D01*
X-325439Y1867992D01*
X-317992Y1875439D01*
X-312726Y1884561D01*
X-310000Y1894734D01*
Y1905266D01*
X-312726Y1915439D01*
X-317992Y1924561D01*
X-325439Y1932008D01*
X-334561Y1937274D01*
X-344734Y1940000D01*
D02*
G37*
G36*
X-444734D02*
X-455266D01*
X-465439Y1937274D01*
X-474561Y1932008D01*
X-482008Y1924561D01*
X-487274Y1915439D01*
X-490000Y1905266D01*
Y1894734D01*
X-487274Y1884561D01*
X-482008Y1875439D01*
X-474561Y1867992D01*
X-465439Y1862726D01*
X-455266Y1860000D01*
X-444734D01*
X-434561Y1862726D01*
X-425439Y1867992D01*
X-417992Y1875439D01*
X-412726Y1884561D01*
X-410000Y1894734D01*
Y1905266D01*
X-412726Y1915439D01*
X-417992Y1924561D01*
X-425439Y1932008D01*
X-434561Y1937274D01*
X-444734Y1940000D01*
D02*
G37*
G36*
X-544734D02*
X-555266D01*
X-565439Y1937274D01*
X-574561Y1932008D01*
X-582008Y1924561D01*
X-587274Y1915439D01*
X-590000Y1905266D01*
Y1894734D01*
X-587274Y1884561D01*
X-582008Y1875439D01*
X-574561Y1867992D01*
X-565439Y1862726D01*
X-555266Y1860000D01*
X-544734D01*
X-534561Y1862726D01*
X-525439Y1867992D01*
X-517992Y1875439D01*
X-512726Y1884561D01*
X-510000Y1894734D01*
Y1905266D01*
X-512726Y1915439D01*
X-517992Y1924561D01*
X-525439Y1932008D01*
X-534561Y1937274D01*
X-544734Y1940000D01*
D02*
G37*
G36*
X-644734D02*
X-655266D01*
X-665439Y1937274D01*
X-674561Y1932008D01*
X-682008Y1924561D01*
X-687274Y1915439D01*
X-690000Y1905266D01*
Y1894734D01*
X-687274Y1884561D01*
X-682008Y1875439D01*
X-674561Y1867992D01*
X-665439Y1862726D01*
X-655266Y1860000D01*
X-644734D01*
X-634561Y1862726D01*
X-625439Y1867992D01*
X-617992Y1875439D01*
X-612726Y1884561D01*
X-610000Y1894734D01*
Y1905266D01*
X-612726Y1915439D01*
X-617992Y1924561D01*
X-625439Y1932008D01*
X-634561Y1937274D01*
X-644734Y1940000D01*
D02*
G37*
G36*
X-710000Y1895000D02*
X-745000D01*
Y1860000D01*
X-744734D01*
X-734561Y1862726D01*
X-725439Y1867992D01*
X-717992Y1875439D01*
X-712726Y1884561D01*
X-710000Y1894734D01*
Y1895000D01*
D02*
G37*
G36*
X-755000D02*
X-790000D01*
Y1894734D01*
X-787274Y1884561D01*
X-782008Y1875439D01*
X-774561Y1867992D01*
X-765439Y1862726D01*
X-755266Y1860000D01*
X-755000D01*
Y1895000D01*
D02*
G37*
G36*
X-844734Y1940000D02*
X-855266D01*
X-865439Y1937274D01*
X-874561Y1932008D01*
X-882008Y1924561D01*
X-887274Y1915439D01*
X-890000Y1905266D01*
Y1894734D01*
X-887274Y1884561D01*
X-882008Y1875439D01*
X-874561Y1867992D01*
X-865439Y1862726D01*
X-855266Y1860000D01*
X-844734D01*
X-834561Y1862726D01*
X-825439Y1867992D01*
X-817992Y1875439D01*
X-812726Y1884561D01*
X-810000Y1894734D01*
Y1905266D01*
X-812726Y1915439D01*
X-817992Y1924561D01*
X-825439Y1932008D01*
X-834561Y1937274D01*
X-844734Y1940000D01*
D02*
G37*
G36*
X-944734D02*
X-955266D01*
X-965439Y1937274D01*
X-974561Y1932008D01*
X-982008Y1924561D01*
X-987274Y1915439D01*
X-990000Y1905266D01*
Y1894734D01*
X-987274Y1884561D01*
X-982008Y1875439D01*
X-974561Y1867992D01*
X-965439Y1862726D01*
X-955266Y1860000D01*
X-944734D01*
X-934561Y1862726D01*
X-925439Y1867992D01*
X-917992Y1875439D01*
X-912726Y1884561D01*
X-910000Y1894734D01*
Y1905266D01*
X-912726Y1915439D01*
X-917992Y1924561D01*
X-925439Y1932008D01*
X-934561Y1937274D01*
X-944734Y1940000D01*
D02*
G37*
G36*
X955266Y1840000D02*
X955000D01*
Y1805000D01*
X990000D01*
Y1805266D01*
X987274Y1815439D01*
X982008Y1824561D01*
X974561Y1832008D01*
X965439Y1837274D01*
X955266Y1840000D01*
D02*
G37*
G36*
X255266D02*
X255000D01*
Y1805000D01*
X290000D01*
Y1805266D01*
X287274Y1815439D01*
X282008Y1824561D01*
X274561Y1832008D01*
X265439Y1837274D01*
X255266Y1840000D01*
D02*
G37*
G36*
X-544734D02*
X-545000D01*
Y1805000D01*
X-510000D01*
Y1805266D01*
X-512726Y1815439D01*
X-517992Y1824561D01*
X-525439Y1832008D01*
X-534561Y1837274D01*
X-544734Y1840000D01*
D02*
G37*
G36*
X245000D02*
X244734D01*
X234561Y1837274D01*
X225439Y1832008D01*
X217992Y1824561D01*
X212726Y1815439D01*
X210000Y1805266D01*
Y1805000D01*
X245000D01*
Y1840000D01*
D02*
G37*
G36*
X-555000D02*
X-555266D01*
X-565439Y1837274D01*
X-574561Y1832008D01*
X-582008Y1824561D01*
X-587274Y1815439D01*
X-590000Y1805266D01*
Y1805000D01*
X-555000D01*
Y1840000D01*
D02*
G37*
G36*
X945000D02*
X944734D01*
X934561Y1837274D01*
X925439Y1832008D01*
X917992Y1824561D01*
X912726Y1815439D01*
X910000Y1805266D01*
Y1805000D01*
X945000D01*
Y1840000D01*
D02*
G37*
G36*
X1147852Y1913937D02*
X1135219D01*
X1122828Y1911472D01*
X1111157Y1906638D01*
X1100652Y1899619D01*
X1091719Y1890686D01*
X1084701Y1880182D01*
X1079866Y1868510D01*
X1077402Y1856120D01*
Y1843487D01*
X1079866Y1831096D01*
X1084701Y1819425D01*
X1091719Y1808920D01*
X1100652Y1799987D01*
X1111157Y1792969D01*
X1122828Y1788134D01*
X1135219Y1785669D01*
X1147852D01*
X1160243Y1788134D01*
X1171914Y1792969D01*
X1182418Y1799987D01*
X1191351Y1808920D01*
X1198370Y1819425D01*
X1203205Y1831096D01*
X1205669Y1843487D01*
Y1856120D01*
X1203205Y1868510D01*
X1198370Y1880182D01*
X1191351Y1890686D01*
X1182418Y1899619D01*
X1171914Y1906638D01*
X1160243Y1911472D01*
X1147852Y1913937D01*
D02*
G37*
G36*
X-1135612D02*
X-1148246D01*
X-1160636Y1911472D01*
X-1172308Y1906638D01*
X-1182812Y1899619D01*
X-1191745Y1890686D01*
X-1198764Y1880182D01*
X-1203598Y1868510D01*
X-1206063Y1856120D01*
Y1843487D01*
X-1203598Y1831096D01*
X-1198764Y1819425D01*
X-1191745Y1808920D01*
X-1182812Y1799987D01*
X-1172308Y1792969D01*
X-1160636Y1788134D01*
X-1148246Y1785669D01*
X-1135612D01*
X-1123222Y1788134D01*
X-1111550Y1792969D01*
X-1101046Y1799987D01*
X-1092113Y1808920D01*
X-1085094Y1819425D01*
X-1080260Y1831096D01*
X-1077795Y1843487D01*
Y1856120D01*
X-1080260Y1868510D01*
X-1085094Y1880182D01*
X-1092113Y1890686D01*
X-1101046Y1899619D01*
X-1111550Y1906638D01*
X-1123222Y1911472D01*
X-1135612Y1913937D01*
D02*
G37*
G36*
X-444734Y1840000D02*
X-455266D01*
X-465439Y1837274D01*
X-474561Y1832008D01*
X-482008Y1824561D01*
X-487274Y1815439D01*
X-490000Y1805266D01*
Y1794734D01*
X-487274Y1784561D01*
X-482321Y1775981D01*
X-482474Y1775591D01*
X-486491Y1772615D01*
X-495000Y1774895D01*
Y1745000D01*
X-465105D01*
X-467385Y1753509D01*
X-471340Y1760359D01*
X-467764Y1764068D01*
X-465439Y1762726D01*
X-455266Y1760000D01*
X-444734D01*
X-434561Y1762726D01*
X-425439Y1767992D01*
X-417992Y1775439D01*
X-412726Y1784561D01*
X-410000Y1794734D01*
Y1805266D01*
X-412726Y1815439D01*
X-417992Y1824561D01*
X-425439Y1832008D01*
X-434561Y1837274D01*
X-444734Y1840000D01*
D02*
G37*
G36*
X990000Y1795000D02*
X955000D01*
Y1760000D01*
X955266D01*
X965439Y1762726D01*
X974561Y1767992D01*
X982008Y1775439D01*
X987274Y1784561D01*
X990000Y1794734D01*
Y1795000D01*
D02*
G37*
G36*
X945000D02*
X910000D01*
Y1794734D01*
X912726Y1784561D01*
X917992Y1775439D01*
X925439Y1767992D01*
X934561Y1762726D01*
X944734Y1760000D01*
X945000D01*
Y1795000D01*
D02*
G37*
G36*
X855266Y1840000D02*
X844734D01*
X834561Y1837274D01*
X825439Y1832008D01*
X817992Y1824561D01*
X812726Y1815439D01*
X810000Y1805266D01*
Y1794734D01*
X812726Y1784561D01*
X817992Y1775439D01*
X825439Y1767992D01*
X834561Y1762726D01*
X844734Y1760000D01*
X855266D01*
X865439Y1762726D01*
X874561Y1767992D01*
X882008Y1775439D01*
X887274Y1784561D01*
X890000Y1794734D01*
Y1805266D01*
X887274Y1815439D01*
X882008Y1824561D01*
X874561Y1832008D01*
X865439Y1837274D01*
X855266Y1840000D01*
D02*
G37*
G36*
X755266D02*
X744734D01*
X734561Y1837274D01*
X725439Y1832008D01*
X717992Y1824561D01*
X712726Y1815439D01*
X710000Y1805266D01*
Y1794734D01*
X712726Y1784561D01*
X717992Y1775439D01*
X725439Y1767992D01*
X734561Y1762726D01*
X744734Y1760000D01*
X755266D01*
X765439Y1762726D01*
X774561Y1767992D01*
X782008Y1775439D01*
X787274Y1784561D01*
X790000Y1794734D01*
Y1805266D01*
X787274Y1815439D01*
X782008Y1824561D01*
X774561Y1832008D01*
X765439Y1837274D01*
X755266Y1840000D01*
D02*
G37*
G36*
X655266D02*
X644734D01*
X634561Y1837274D01*
X625439Y1832008D01*
X617992Y1824561D01*
X612726Y1815439D01*
X610000Y1805266D01*
Y1794734D01*
X612726Y1784561D01*
X617992Y1775439D01*
X625439Y1767992D01*
X634561Y1762726D01*
X644734Y1760000D01*
X655266D01*
X665439Y1762726D01*
X674561Y1767992D01*
X682008Y1775439D01*
X687274Y1784561D01*
X690000Y1794734D01*
Y1805266D01*
X687274Y1815439D01*
X682008Y1824561D01*
X674561Y1832008D01*
X665439Y1837274D01*
X655266Y1840000D01*
D02*
G37*
G36*
X555266D02*
X544734D01*
X534561Y1837274D01*
X525439Y1832008D01*
X517992Y1824561D01*
X512726Y1815439D01*
X510000Y1805266D01*
Y1794734D01*
X512726Y1784561D01*
X517992Y1775439D01*
X525439Y1767992D01*
X534561Y1762726D01*
X544734Y1760000D01*
X555266D01*
X565439Y1762726D01*
X574561Y1767992D01*
X582008Y1775439D01*
X587274Y1784561D01*
X590000Y1794734D01*
Y1805266D01*
X587274Y1815439D01*
X582008Y1824561D01*
X574561Y1832008D01*
X565439Y1837274D01*
X555266Y1840000D01*
D02*
G37*
G36*
X455266D02*
X444734D01*
X434561Y1837274D01*
X425439Y1832008D01*
X417992Y1824561D01*
X412726Y1815439D01*
X410000Y1805266D01*
Y1794734D01*
X412726Y1784561D01*
X417992Y1775439D01*
X425439Y1767992D01*
X434561Y1762726D01*
X444734Y1760000D01*
X455266D01*
X465439Y1762726D01*
X474561Y1767992D01*
X482008Y1775439D01*
X487274Y1784561D01*
X490000Y1794734D01*
Y1805266D01*
X487274Y1815439D01*
X482008Y1824561D01*
X474561Y1832008D01*
X465439Y1837274D01*
X455266Y1840000D01*
D02*
G37*
G36*
X355266D02*
X344734D01*
X334561Y1837274D01*
X325439Y1832008D01*
X317992Y1824561D01*
X312726Y1815439D01*
X310000Y1805266D01*
Y1794734D01*
X312726Y1784561D01*
X317992Y1775439D01*
X325439Y1767992D01*
X334561Y1762726D01*
X344734Y1760000D01*
X355266D01*
X365439Y1762726D01*
X374561Y1767992D01*
X382008Y1775439D01*
X387274Y1784561D01*
X390000Y1794734D01*
Y1805266D01*
X387274Y1815439D01*
X382008Y1824561D01*
X374561Y1832008D01*
X365439Y1837274D01*
X355266Y1840000D01*
D02*
G37*
G36*
X290000Y1795000D02*
X255000D01*
Y1760000D01*
X255266D01*
X265439Y1762726D01*
X274561Y1767992D01*
X282008Y1775439D01*
X287274Y1784561D01*
X290000Y1794734D01*
Y1795000D01*
D02*
G37*
G36*
X245000D02*
X210000D01*
Y1794734D01*
X212726Y1784561D01*
X217992Y1775439D01*
X225439Y1767992D01*
X234561Y1762726D01*
X244734Y1760000D01*
X245000D01*
Y1795000D01*
D02*
G37*
G36*
X155266Y1840000D02*
X144734D01*
X134561Y1837274D01*
X125439Y1832008D01*
X117992Y1824561D01*
X112726Y1815439D01*
X110000Y1805266D01*
Y1794734D01*
X112726Y1784561D01*
X117992Y1775439D01*
X125439Y1767992D01*
X134561Y1762726D01*
X144734Y1760000D01*
X155266D01*
X165439Y1762726D01*
X174561Y1767992D01*
X182008Y1775439D01*
X187274Y1784561D01*
X190000Y1794734D01*
Y1805266D01*
X187274Y1815439D01*
X182008Y1824561D01*
X174561Y1832008D01*
X165439Y1837274D01*
X155266Y1840000D01*
D02*
G37*
G36*
X55266D02*
X44734D01*
X34561Y1837274D01*
X25439Y1832008D01*
X17992Y1824561D01*
X12726Y1815439D01*
X10000Y1805266D01*
Y1794734D01*
X12726Y1784561D01*
X17992Y1775439D01*
X25439Y1767992D01*
X34561Y1762726D01*
X44734Y1760000D01*
X55266D01*
X65439Y1762726D01*
X74561Y1767992D01*
X82008Y1775439D01*
X87274Y1784561D01*
X90000Y1794734D01*
Y1805266D01*
X87274Y1815439D01*
X82008Y1824561D01*
X74561Y1832008D01*
X65439Y1837274D01*
X55266Y1840000D01*
D02*
G37*
G36*
X-44734D02*
X-55266D01*
X-65439Y1837274D01*
X-74561Y1832008D01*
X-82008Y1824561D01*
X-87274Y1815439D01*
X-90000Y1805266D01*
Y1794734D01*
X-87274Y1784561D01*
X-82008Y1775439D01*
X-74561Y1767992D01*
X-65439Y1762726D01*
X-55266Y1760000D01*
X-44734D01*
X-34561Y1762726D01*
X-25439Y1767992D01*
X-17992Y1775439D01*
X-12726Y1784561D01*
X-10000Y1794734D01*
Y1805266D01*
X-12726Y1815439D01*
X-17992Y1824561D01*
X-25439Y1832008D01*
X-34561Y1837274D01*
X-44734Y1840000D01*
D02*
G37*
G36*
X-144734D02*
X-155266D01*
X-165439Y1837274D01*
X-174561Y1832008D01*
X-182008Y1824561D01*
X-187274Y1815439D01*
X-190000Y1805266D01*
Y1794734D01*
X-187274Y1784561D01*
X-182008Y1775439D01*
X-174561Y1767992D01*
X-165439Y1762726D01*
X-155266Y1760000D01*
X-144734D01*
X-134561Y1762726D01*
X-125439Y1767992D01*
X-117992Y1775439D01*
X-112726Y1784561D01*
X-110000Y1794734D01*
Y1805266D01*
X-112726Y1815439D01*
X-117992Y1824561D01*
X-125439Y1832008D01*
X-134561Y1837274D01*
X-144734Y1840000D01*
D02*
G37*
G36*
X-244734D02*
X-255266D01*
X-265439Y1837274D01*
X-274561Y1832008D01*
X-282008Y1824561D01*
X-287274Y1815439D01*
X-290000Y1805266D01*
Y1794734D01*
X-287274Y1784561D01*
X-282008Y1775439D01*
X-274561Y1767992D01*
X-265439Y1762726D01*
X-255266Y1760000D01*
X-244734D01*
X-234561Y1762726D01*
X-225439Y1767992D01*
X-217992Y1775439D01*
X-212726Y1784561D01*
X-210000Y1794734D01*
Y1805266D01*
X-212726Y1815439D01*
X-217992Y1824561D01*
X-225439Y1832008D01*
X-234561Y1837274D01*
X-244734Y1840000D01*
D02*
G37*
G36*
X-344734D02*
X-355266D01*
X-365439Y1837274D01*
X-374561Y1832008D01*
X-382008Y1824561D01*
X-387274Y1815439D01*
X-390000Y1805266D01*
Y1794734D01*
X-387274Y1784561D01*
X-382008Y1775439D01*
X-374561Y1767992D01*
X-365439Y1762726D01*
X-355266Y1760000D01*
X-344734D01*
X-334561Y1762726D01*
X-325439Y1767992D01*
X-317992Y1775439D01*
X-312726Y1784561D01*
X-310000Y1794734D01*
Y1805266D01*
X-312726Y1815439D01*
X-317992Y1824561D01*
X-325439Y1832008D01*
X-334561Y1837274D01*
X-344734Y1840000D01*
D02*
G37*
G36*
X-555000Y1795000D02*
X-590000D01*
Y1794734D01*
X-587274Y1784561D01*
X-582008Y1775439D01*
X-574561Y1767992D01*
X-565439Y1762726D01*
X-555266Y1760000D01*
X-555000D01*
Y1795000D01*
D02*
G37*
G36*
X-644734Y1840000D02*
X-655266D01*
X-665439Y1837274D01*
X-674561Y1832008D01*
X-682008Y1824561D01*
X-687274Y1815439D01*
X-690000Y1805266D01*
Y1794734D01*
X-687274Y1784561D01*
X-682008Y1775439D01*
X-674561Y1767992D01*
X-665439Y1762726D01*
X-655266Y1760000D01*
X-644734D01*
X-634561Y1762726D01*
X-625439Y1767992D01*
X-617992Y1775439D01*
X-612726Y1784561D01*
X-610000Y1794734D01*
Y1805266D01*
X-612726Y1815439D01*
X-617992Y1824561D01*
X-625439Y1832008D01*
X-634561Y1837274D01*
X-644734Y1840000D01*
D02*
G37*
G36*
X-744734D02*
X-755266D01*
X-765439Y1837274D01*
X-774561Y1832008D01*
X-782008Y1824561D01*
X-787274Y1815439D01*
X-790000Y1805266D01*
Y1794734D01*
X-787274Y1784561D01*
X-782008Y1775439D01*
X-774561Y1767992D01*
X-765439Y1762726D01*
X-755266Y1760000D01*
X-744734D01*
X-734561Y1762726D01*
X-725439Y1767992D01*
X-717992Y1775439D01*
X-712726Y1784561D01*
X-710000Y1794734D01*
Y1805266D01*
X-712726Y1815439D01*
X-717992Y1824561D01*
X-725439Y1832008D01*
X-734561Y1837274D01*
X-744734Y1840000D01*
D02*
G37*
G36*
X-844734D02*
X-855266D01*
X-865439Y1837274D01*
X-874561Y1832008D01*
X-882008Y1824561D01*
X-887274Y1815439D01*
X-890000Y1805266D01*
Y1794734D01*
X-887274Y1784561D01*
X-882008Y1775439D01*
X-874561Y1767992D01*
X-865439Y1762726D01*
X-855266Y1760000D01*
X-844734D01*
X-834561Y1762726D01*
X-825439Y1767992D01*
X-817992Y1775439D01*
X-812726Y1784561D01*
X-810000Y1794734D01*
Y1805266D01*
X-812726Y1815439D01*
X-817992Y1824561D01*
X-825439Y1832008D01*
X-834561Y1837274D01*
X-844734Y1840000D01*
D02*
G37*
G36*
X-944734D02*
X-955266D01*
X-965439Y1837274D01*
X-974561Y1832008D01*
X-982008Y1824561D01*
X-987274Y1815439D01*
X-990000Y1805266D01*
Y1794734D01*
X-987274Y1784561D01*
X-982008Y1775439D01*
X-974561Y1767992D01*
X-965439Y1762726D01*
X-955266Y1760000D01*
X-944734D01*
X-934561Y1762726D01*
X-925439Y1767992D01*
X-917992Y1775439D01*
X-912726Y1784561D01*
X-910000Y1794734D01*
Y1805266D01*
X-912726Y1815439D01*
X-917992Y1824561D01*
X-925439Y1832008D01*
X-934561Y1837274D01*
X-944734Y1840000D01*
D02*
G37*
G36*
X-510000Y1795000D02*
X-545000D01*
Y1760000D01*
X-544734D01*
X-534561Y1762726D01*
X-532236Y1764068D01*
X-528660Y1760359D01*
X-532615Y1753509D01*
X-534895Y1745000D01*
X-505000D01*
Y1774895D01*
X-513509Y1772615D01*
X-517526Y1775591D01*
X-517679Y1775981D01*
X-512726Y1784561D01*
X-510000Y1794734D01*
Y1795000D01*
D02*
G37*
G36*
X-465105Y1735000D02*
X-495000D01*
Y1705105D01*
X-486490Y1707385D01*
X-478510Y1711993D01*
X-471993Y1718509D01*
X-467385Y1726491D01*
X-465105Y1735000D01*
D02*
G37*
G36*
X-505000D02*
X-534895D01*
X-532615Y1726491D01*
X-528007Y1718509D01*
X-521490Y1711993D01*
X-513510Y1707385D01*
X-505000Y1705105D01*
Y1735000D01*
D02*
G37*
G36*
X955000Y1734895D02*
Y1705000D01*
X984895D01*
X982615Y1713509D01*
X978007Y1721491D01*
X971490Y1728007D01*
X963510Y1732615D01*
X955000Y1734895D01*
D02*
G37*
G36*
X945000D02*
X936490Y1732615D01*
X928510Y1728007D01*
X921993Y1721491D01*
X917385Y1713509D01*
X915105Y1705000D01*
X945000D01*
Y1734895D01*
D02*
G37*
G36*
X255000Y1704895D02*
Y1675000D01*
X284895D01*
X282615Y1683509D01*
X278007Y1691491D01*
X271490Y1698007D01*
X263510Y1702615D01*
X255000Y1704895D01*
D02*
G37*
G36*
X245000D02*
X236490Y1702615D01*
X228510Y1698007D01*
X221993Y1691491D01*
X217385Y1683509D01*
X215105Y1675000D01*
X245000D01*
Y1704895D01*
D02*
G37*
G36*
X984895Y1695000D02*
X955000D01*
Y1665105D01*
X963510Y1667385D01*
X971490Y1671993D01*
X978007Y1678509D01*
X982615Y1686491D01*
X984895Y1695000D01*
D02*
G37*
G36*
X945000D02*
X915105D01*
X917385Y1686491D01*
X921993Y1678509D01*
X928510Y1671993D01*
X936490Y1667385D01*
X945000Y1665105D01*
Y1695000D01*
D02*
G37*
G36*
X284895Y1665000D02*
X255000D01*
Y1635105D01*
X263510Y1637385D01*
X271490Y1641993D01*
X278007Y1648509D01*
X282615Y1656491D01*
X284895Y1665000D01*
D02*
G37*
G36*
X245000D02*
X215105D01*
X217385Y1656491D01*
X221993Y1648509D01*
X228510Y1641993D01*
X236490Y1637385D01*
X245000Y1635105D01*
Y1665000D01*
D02*
G37*
G36*
X1707241Y1545000D02*
X1692759D01*
X1678771Y1541252D01*
X1666229Y1534011D01*
X1655989Y1523771D01*
X1648748Y1511229D01*
X1645000Y1497241D01*
Y1482759D01*
X1648748Y1468771D01*
X1655989Y1456229D01*
X1666229Y1445989D01*
X1678771Y1438748D01*
X1692759Y1435000D01*
X1707241D01*
X1721229Y1438748D01*
X1733771Y1445989D01*
X1744011Y1456229D01*
X1751252Y1468771D01*
X1755000Y1482759D01*
Y1497241D01*
X1751252Y1511229D01*
X1744011Y1523771D01*
X1733771Y1534011D01*
X1721229Y1541252D01*
X1707241Y1545000D01*
D02*
G37*
G36*
X-1687759Y1535000D02*
X-1702241D01*
X-1716229Y1531252D01*
X-1728771Y1524011D01*
X-1739011Y1513771D01*
X-1746252Y1501229D01*
X-1750000Y1487241D01*
Y1472759D01*
X-1746252Y1458771D01*
X-1739011Y1446229D01*
X-1728771Y1435989D01*
X-1716229Y1428748D01*
X-1702241Y1425000D01*
X-1687759D01*
X-1673771Y1428748D01*
X-1661229Y1435989D01*
X-1650989Y1446229D01*
X-1643748Y1458771D01*
X-1640000Y1472759D01*
Y1487241D01*
X-1643748Y1501229D01*
X-1650989Y1513771D01*
X-1661229Y1524011D01*
X-1673771Y1531252D01*
X-1687759Y1535000D01*
D02*
G37*
G36*
X1147852Y1008425D02*
X1135219D01*
X1122828Y1005961D01*
X1111157Y1001126D01*
X1100652Y994107D01*
X1091719Y985174D01*
X1084701Y974670D01*
X1079866Y962999D01*
X1077402Y950608D01*
Y937975D01*
X1079866Y925584D01*
X1084701Y913913D01*
X1091719Y903409D01*
X1100652Y894475D01*
X1111157Y887457D01*
X1122828Y882622D01*
X1135219Y880158D01*
X1147852D01*
X1160243Y882622D01*
X1171914Y887457D01*
X1182418Y894475D01*
X1191351Y903409D01*
X1198370Y913913D01*
X1203205Y925584D01*
X1205669Y937975D01*
Y950608D01*
X1203205Y962999D01*
X1198370Y974670D01*
X1191351Y985174D01*
X1182418Y994107D01*
X1171914Y1001126D01*
X1160243Y1005961D01*
X1147852Y1008425D01*
D02*
G37*
G36*
X-1135612D02*
X-1148246D01*
X-1160636Y1005961D01*
X-1172308Y1001126D01*
X-1182812Y994107D01*
X-1191745Y985174D01*
X-1198764Y974670D01*
X-1203598Y962999D01*
X-1206063Y950608D01*
Y937975D01*
X-1203598Y925584D01*
X-1198764Y913913D01*
X-1191745Y903409D01*
X-1182812Y894475D01*
X-1172308Y887457D01*
X-1160636Y882622D01*
X-1148246Y880158D01*
X-1135612D01*
X-1123222Y882622D01*
X-1111550Y887457D01*
X-1101046Y894475D01*
X-1092113Y903409D01*
X-1085094Y913913D01*
X-1080260Y925584D01*
X-1077795Y937975D01*
Y950608D01*
X-1080260Y962999D01*
X-1085094Y974670D01*
X-1092113Y985174D01*
X-1101046Y994107D01*
X-1111550Y1001126D01*
X-1123222Y1005961D01*
X-1135612Y1008425D01*
D02*
G37*
G36*
X1707241Y965000D02*
X1692759D01*
X1678771Y961252D01*
X1666229Y954011D01*
X1655989Y943771D01*
X1648748Y931229D01*
X1645000Y917241D01*
Y902759D01*
X1648748Y888771D01*
X1655989Y876229D01*
X1666229Y865989D01*
X1678771Y858748D01*
X1692759Y855000D01*
X1707241D01*
X1721229Y858748D01*
X1733771Y865989D01*
X1744011Y876229D01*
X1751252Y888771D01*
X1755000Y902759D01*
Y917241D01*
X1751252Y931229D01*
X1744011Y943771D01*
X1733771Y954011D01*
X1721229Y961252D01*
X1707241Y965000D01*
D02*
G37*
G36*
X-1687759Y955000D02*
X-1702241D01*
X-1716229Y951252D01*
X-1728771Y944011D01*
X-1739011Y933771D01*
X-1746252Y921229D01*
X-1750000Y907241D01*
Y892759D01*
X-1746252Y878771D01*
X-1739011Y866229D01*
X-1728771Y855989D01*
X-1716229Y848748D01*
X-1702241Y845000D01*
X-1687759D01*
X-1673771Y848748D01*
X-1661229Y855989D01*
X-1650989Y866229D01*
X-1643748Y878771D01*
X-1640000Y892759D01*
Y907241D01*
X-1643748Y921229D01*
X-1650989Y933771D01*
X-1661229Y944011D01*
X-1673771Y951252D01*
X-1687759Y955000D01*
D02*
G37*
G36*
X-94734Y525000D02*
X-95000D01*
Y490000D01*
X-60000D01*
Y490266D01*
X-62726Y500439D01*
X-67992Y509561D01*
X-75439Y517008D01*
X-84561Y522274D01*
X-94734Y525000D01*
D02*
G37*
G36*
X-105000D02*
X-105266D01*
X-115439Y522274D01*
X-124561Y517008D01*
X-132008Y509561D01*
X-137274Y500439D01*
X-140000Y490266D01*
Y490000D01*
X-105000D01*
Y525000D01*
D02*
G37*
G36*
X305266D02*
X294734D01*
X284561Y522274D01*
X275439Y517008D01*
X267992Y509561D01*
X262726Y500439D01*
X260000Y490266D01*
Y479734D01*
X262726Y469561D01*
X267992Y460439D01*
X275439Y452992D01*
X284561Y447726D01*
X294734Y445000D01*
X305266D01*
X315439Y447726D01*
X324561Y452992D01*
X332008Y460439D01*
X337274Y469561D01*
X340000Y479734D01*
Y490266D01*
X337274Y500439D01*
X332008Y509561D01*
X324561Y517008D01*
X315439Y522274D01*
X305266Y525000D01*
D02*
G37*
G36*
X205266D02*
X194734D01*
X184561Y522274D01*
X175439Y517008D01*
X167992Y509561D01*
X162726Y500439D01*
X160000Y490266D01*
Y479734D01*
X162726Y469561D01*
X167992Y460439D01*
X175439Y452992D01*
X184561Y447726D01*
X194734Y445000D01*
X205266D01*
X215439Y447726D01*
X224561Y452992D01*
X232008Y460439D01*
X237274Y469561D01*
X240000Y479734D01*
Y490266D01*
X237274Y500439D01*
X232008Y509561D01*
X224561Y517008D01*
X215439Y522274D01*
X205266Y525000D01*
D02*
G37*
G36*
X105266D02*
X94734D01*
X84561Y522274D01*
X75439Y517008D01*
X67992Y509561D01*
X62726Y500439D01*
X60000Y490266D01*
Y479734D01*
X62726Y469561D01*
X67992Y460439D01*
X75439Y452992D01*
X84561Y447726D01*
X94734Y445000D01*
X105266D01*
X115439Y447726D01*
X124561Y452992D01*
X132008Y460439D01*
X137274Y469561D01*
X140000Y479734D01*
Y490266D01*
X137274Y500439D01*
X132008Y509561D01*
X124561Y517008D01*
X115439Y522274D01*
X105266Y525000D01*
D02*
G37*
G36*
X5266D02*
X-5266D01*
X-15439Y522274D01*
X-24561Y517008D01*
X-32008Y509561D01*
X-37274Y500439D01*
X-40000Y490266D01*
Y479734D01*
X-37274Y469561D01*
X-32008Y460439D01*
X-24561Y452992D01*
X-15439Y447726D01*
X-5266Y445000D01*
X5266D01*
X15439Y447726D01*
X24561Y452992D01*
X32008Y460439D01*
X37274Y469561D01*
X40000Y479734D01*
Y490266D01*
X37274Y500439D01*
X32008Y509561D01*
X24561Y517008D01*
X15439Y522274D01*
X5266Y525000D01*
D02*
G37*
G36*
X-60000Y480000D02*
X-95000D01*
Y445000D01*
X-94734D01*
X-84561Y447726D01*
X-75439Y452992D01*
X-67992Y460439D01*
X-62726Y469561D01*
X-60000Y479734D01*
Y480000D01*
D02*
G37*
G36*
X-105000D02*
X-140000D01*
Y479734D01*
X-137274Y469561D01*
X-132008Y460439D01*
X-124561Y452992D01*
X-115439Y447726D01*
X-105266Y445000D01*
X-105000D01*
Y480000D01*
D02*
G37*
G36*
X-194734Y525000D02*
X-205266D01*
X-215439Y522274D01*
X-224561Y517008D01*
X-232008Y509561D01*
X-237274Y500439D01*
X-240000Y490266D01*
Y479734D01*
X-237274Y469561D01*
X-232008Y460439D01*
X-224561Y452992D01*
X-215439Y447726D01*
X-205266Y445000D01*
X-194734D01*
X-184561Y447726D01*
X-175439Y452992D01*
X-167992Y460439D01*
X-162726Y469561D01*
X-160000Y479734D01*
Y490266D01*
X-162726Y500439D01*
X-167992Y509561D01*
X-175439Y517008D01*
X-184561Y522274D01*
X-194734Y525000D01*
D02*
G37*
G36*
X-294734D02*
X-305266D01*
X-315439Y522274D01*
X-324561Y517008D01*
X-332008Y509561D01*
X-337274Y500439D01*
X-340000Y490266D01*
Y479734D01*
X-337274Y469561D01*
X-332008Y460439D01*
X-324561Y452992D01*
X-315439Y447726D01*
X-305266Y445000D01*
X-294734D01*
X-284561Y447726D01*
X-275439Y452992D01*
X-267992Y460439D01*
X-262726Y469561D01*
X-260000Y479734D01*
Y490266D01*
X-262726Y500439D01*
X-267992Y509561D01*
X-275439Y517008D01*
X-284561Y522274D01*
X-294734Y525000D01*
D02*
G37*
G36*
X-85000Y414895D02*
Y385000D01*
X-55105D01*
X-57385Y393510D01*
X-61993Y401490D01*
X-68510Y408007D01*
X-76490Y412615D01*
X-85000Y414895D01*
D02*
G37*
G36*
X-95000D02*
X-103510Y412615D01*
X-111490Y408007D01*
X-118007Y401490D01*
X-122615Y393510D01*
X-124895Y385000D01*
X-95000D01*
Y414895D01*
D02*
G37*
G36*
X-55105Y375000D02*
X-85000D01*
Y345105D01*
X-76490Y347385D01*
X-68510Y351993D01*
X-61993Y358510D01*
X-57385Y366490D01*
X-55105Y375000D01*
D02*
G37*
G36*
X-95000D02*
X-124895D01*
X-122615Y366490D01*
X-118007Y358510D01*
X-111490Y351993D01*
X-103510Y347385D01*
X-95000Y345105D01*
Y375000D01*
D02*
G37*
%LPD*%
D16*
X1520000Y4150000D02*
D03*
Y4250000D02*
D03*
Y4350000D02*
D03*
Y4450000D02*
D03*
Y4550000D02*
D03*
Y4650000D02*
D03*
Y4750000D02*
D03*
X-550000Y2700000D02*
D03*
X550000Y2200000D02*
D03*
X650000D02*
D03*
X350000D02*
D03*
X450000D02*
D03*
X150000D02*
D03*
X250000D02*
D03*
X-50000D02*
D03*
X50000D02*
D03*
X-250000D02*
D03*
X-150000D02*
D03*
X-450000D02*
D03*
X-350000D02*
D03*
X-650000D02*
D03*
X-550000D02*
D03*
X550000Y2800000D02*
D03*
X650000D02*
D03*
X350000D02*
D03*
X450000D02*
D03*
X150000D02*
D03*
X250000D02*
D03*
X-50000D02*
D03*
X50000D02*
D03*
X-250000D02*
D03*
X-150000D02*
D03*
X-450000D02*
D03*
X-350000D02*
D03*
X-650000D02*
D03*
X-550000D02*
D03*
X650000Y2300000D02*
D03*
Y2400000D02*
D03*
Y2500000D02*
D03*
Y2600000D02*
D03*
Y2700000D02*
D03*
X1141535Y944291D02*
D03*
X950000Y1800000D02*
D03*
Y1900000D02*
D03*
X850000Y1800000D02*
D03*
Y1900000D02*
D03*
X750000Y1800000D02*
D03*
Y1900000D02*
D03*
X650000Y1800000D02*
D03*
Y1900000D02*
D03*
X550000Y1800000D02*
D03*
Y1900000D02*
D03*
X450000Y1800000D02*
D03*
Y1900000D02*
D03*
X350000Y1800000D02*
D03*
Y1900000D02*
D03*
X250000Y1800000D02*
D03*
Y1900000D02*
D03*
X150000Y1800000D02*
D03*
Y1900000D02*
D03*
X50000Y1800000D02*
D03*
Y1900000D02*
D03*
X-50000Y1800000D02*
D03*
Y1900000D02*
D03*
X-150000Y1800000D02*
D03*
Y1900000D02*
D03*
X-250000Y1800000D02*
D03*
Y1900000D02*
D03*
X-350000Y1800000D02*
D03*
Y1900000D02*
D03*
X-450000Y1800000D02*
D03*
Y1900000D02*
D03*
X-550000Y1800000D02*
D03*
Y1900000D02*
D03*
X-650000Y1800000D02*
D03*
Y1900000D02*
D03*
X-750000Y1800000D02*
D03*
Y1900000D02*
D03*
X-850000Y1800000D02*
D03*
Y1900000D02*
D03*
X-950000Y1800000D02*
D03*
Y1900000D02*
D03*
X-1141929Y944291D02*
D03*
X1141535Y1849803D02*
D03*
X-1141929D02*
D03*
X1770000Y3070000D02*
D03*
Y3780000D02*
D03*
X-1770000Y3070000D02*
D03*
Y3780000D02*
D03*
X-150000Y3550000D02*
D03*
X150000D02*
D03*
X-150000Y3450000D02*
D03*
X150000D02*
D03*
X-150000Y3350000D02*
D03*
X150000D02*
D03*
X-150000Y3250000D02*
D03*
X150000D02*
D03*
X-150000Y3150000D02*
D03*
X150000D02*
D03*
X-150000Y3050000D02*
D03*
X150000D02*
D03*
X-150000Y2950000D02*
D03*
X150000D02*
D03*
X-300000Y485000D02*
D03*
X-200000D02*
D03*
X-100000D02*
D03*
X0D02*
D03*
X100000D02*
D03*
X200000D02*
D03*
X300000D02*
D03*
Y4320000D02*
D03*
X200000D02*
D03*
X100000D02*
D03*
X0D02*
D03*
X-100000D02*
D03*
X-200000D02*
D03*
X-300000D02*
D03*
X-1520000Y4750000D02*
D03*
Y4650000D02*
D03*
Y4550000D02*
D03*
Y4450000D02*
D03*
Y4350000D02*
D03*
Y4250000D02*
D03*
Y4150000D02*
D03*
D17*
X-699016Y4000000D02*
D03*
D18*
X-620000D02*
D03*
D19*
X1700000Y1490000D02*
D03*
X-1695000Y1480000D02*
D03*
D20*
X1700000Y910000D02*
D03*
X-1695000Y900000D02*
D03*
D21*
X-350000Y3000000D02*
D03*
Y3100000D02*
D03*
Y3300000D02*
D03*
Y3400000D02*
D03*
Y3200000D02*
D03*
X350000Y3500000D02*
D03*
Y3400000D02*
D03*
Y3200000D02*
D03*
Y3100000D02*
D03*
Y3300000D02*
D03*
D22*
X-350000Y3500000D02*
D03*
X350000Y3000000D02*
D03*
D23*
X149948Y3669948D02*
D03*
X-500000Y1740000D02*
D03*
X-90000Y380000D02*
D03*
X950000Y1700000D02*
D03*
X-310000Y3970000D02*
D03*
X-1270000Y3980000D02*
D03*
X570000Y2050000D02*
D03*
X-750000Y2040000D02*
D03*
X-650000Y2330000D02*
D03*
X-620000Y3820000D02*
D03*
X-570000Y2910000D02*
D03*
X600000Y4310000D02*
D03*
X1636010Y4332688D02*
D03*
X-1270000Y4080000D02*
D03*
X-1170000Y3980000D02*
D03*
X100000Y4450000D02*
D03*
X380000Y2040000D02*
D03*
X250000Y1670000D02*
D03*
X510000Y2500000D02*
D03*
X490000Y3000000D02*
D03*
X-290000Y3620000D02*
D03*
X-1070000Y3980000D02*
D03*
Y4080000D02*
D03*
X-1170000D02*
D03*
%TF.MD5,9ea096c3da0039ff3d3edaf45bba9f3c*%
M02*
