%TF.GenerationSoftware,Altium Limited,Altium Designer,23.2.1 (34)*%
G04 Layer_Color=0*
%FSLAX26Y26*%
%MOIN*%
%TF.SameCoordinates,C295F6C5-B72E-4061-B5E5-0E097F681155*%
%TF.FilePolarity,Positive*%
%TF.FileFunction,Plated,1,2,PTH,Drill*%
%TF.Part,Single*%
G01*
G75*
%TA.AperFunction,ComponentDrill*%
%ADD42C,0.040000*%
%ADD43C,0.031496*%
%ADD44C,0.108268*%
%ADD45C,0.080000*%
%ADD46C,0.040000*%
%ADD47C,0.090000*%
%ADD48C,0.043307*%
%TA.AperFunction,ViaDrill,NotFilled*%
%ADD49C,0.028000*%
D42*
X1520000Y4150000D02*
D03*
Y4250000D02*
D03*
Y4350000D02*
D03*
Y4450000D02*
D03*
Y4550000D02*
D03*
Y4650000D02*
D03*
Y4750000D02*
D03*
X-550000Y2700000D02*
D03*
X550000Y2200000D02*
D03*
X650000D02*
D03*
X350000D02*
D03*
X450000D02*
D03*
X150000D02*
D03*
X250000D02*
D03*
X-50000D02*
D03*
X50000D02*
D03*
X-250000D02*
D03*
X-150000D02*
D03*
X-450000D02*
D03*
X-350000D02*
D03*
X-650000D02*
D03*
X-550000D02*
D03*
X550000Y2800000D02*
D03*
X650000D02*
D03*
X350000D02*
D03*
X450000D02*
D03*
X150000D02*
D03*
X250000D02*
D03*
X-50000D02*
D03*
X50000D02*
D03*
X-250000D02*
D03*
X-150000D02*
D03*
X-450000D02*
D03*
X-350000D02*
D03*
X-650000D02*
D03*
X-550000D02*
D03*
X650000Y2300000D02*
D03*
Y2400000D02*
D03*
Y2500000D02*
D03*
Y2600000D02*
D03*
Y2700000D02*
D03*
X950000Y1800000D02*
D03*
Y1900000D02*
D03*
X850000Y1800000D02*
D03*
Y1900000D02*
D03*
X750000Y1800000D02*
D03*
Y1900000D02*
D03*
X650000Y1800000D02*
D03*
Y1900000D02*
D03*
X550000Y1800000D02*
D03*
Y1900000D02*
D03*
X450000Y1800000D02*
D03*
Y1900000D02*
D03*
X350000Y1800000D02*
D03*
Y1900000D02*
D03*
X250000Y1800000D02*
D03*
Y1900000D02*
D03*
X150000Y1800000D02*
D03*
Y1900000D02*
D03*
X50000Y1800000D02*
D03*
Y1900000D02*
D03*
X-50000Y1800000D02*
D03*
Y1900000D02*
D03*
X-150000Y1800000D02*
D03*
Y1900000D02*
D03*
X-250000Y1800000D02*
D03*
Y1900000D02*
D03*
X-350000Y1800000D02*
D03*
Y1900000D02*
D03*
X-450000Y1800000D02*
D03*
Y1900000D02*
D03*
X-550000Y1800000D02*
D03*
Y1900000D02*
D03*
X-650000Y1800000D02*
D03*
Y1900000D02*
D03*
X-750000Y1800000D02*
D03*
Y1900000D02*
D03*
X-850000Y1800000D02*
D03*
Y1900000D02*
D03*
X-950000Y1800000D02*
D03*
Y1900000D02*
D03*
X-1520000Y4750000D02*
D03*
Y4650000D02*
D03*
Y4550000D02*
D03*
Y4450000D02*
D03*
Y4350000D02*
D03*
Y4250000D02*
D03*
Y4150000D02*
D03*
D43*
X-699016Y4000000D02*
D03*
X-620000D02*
D03*
D44*
X1141535Y944291D02*
D03*
X-1141929D02*
D03*
X1141535Y1849803D02*
D03*
X-1141929D02*
D03*
D45*
X1770000Y3070000D02*
D03*
Y3780000D02*
D03*
X-1770000Y3070000D02*
D03*
Y3780000D02*
D03*
D46*
X-150000Y3550000D02*
D03*
X150000D02*
D03*
X-150000Y3450000D02*
D03*
X150000D02*
D03*
X-150000Y3350000D02*
D03*
X150000D02*
D03*
X-150000Y3250000D02*
D03*
X150000D02*
D03*
X-150000Y3150000D02*
D03*
X150000D02*
D03*
X-150000Y3050000D02*
D03*
X150000D02*
D03*
X-150000Y2950000D02*
D03*
X150000D02*
D03*
X-300000Y485000D02*
D03*
X-200000D02*
D03*
X-100000D02*
D03*
X0D02*
D03*
X100000D02*
D03*
X200000D02*
D03*
X300000D02*
D03*
Y4320000D02*
D03*
X200000D02*
D03*
X100000D02*
D03*
X0D02*
D03*
X-100000D02*
D03*
X-200000D02*
D03*
X-300000D02*
D03*
D47*
X1700000Y1490000D02*
D03*
Y910000D02*
D03*
X-1695000Y1480000D02*
D03*
Y900000D02*
D03*
D48*
X-350000Y3000000D02*
D03*
Y3100000D02*
D03*
Y3300000D02*
D03*
Y3500000D02*
D03*
Y3400000D02*
D03*
Y3200000D02*
D03*
X350000Y3500000D02*
D03*
Y3400000D02*
D03*
Y3200000D02*
D03*
Y3000000D02*
D03*
Y3100000D02*
D03*
Y3300000D02*
D03*
D49*
X149948Y3669948D02*
D03*
X-500000Y1740000D02*
D03*
X-90000Y380000D02*
D03*
X950000Y1700000D02*
D03*
X-310000Y3970000D02*
D03*
X-1270000Y3980000D02*
D03*
X570000Y2050000D02*
D03*
X-750000Y2040000D02*
D03*
X-650000Y2330000D02*
D03*
X-620000Y3820000D02*
D03*
X-570000Y2910000D02*
D03*
X600000Y4310000D02*
D03*
X1636010Y4332688D02*
D03*
X-1270000Y4080000D02*
D03*
X-1170000Y3980000D02*
D03*
X100000Y4450000D02*
D03*
X380000Y2040000D02*
D03*
X250000Y1670000D02*
D03*
X510000Y2500000D02*
D03*
X490000Y3000000D02*
D03*
X-290000Y3620000D02*
D03*
X-1070000Y3980000D02*
D03*
Y4080000D02*
D03*
X-1170000D02*
D03*
%TF.MD5,c3327a6c3cd05773e0baaef356f0ca97*%
M02*
