M48
;Layer_Color=9474304
;FILE_FORMAT=2:5
INCH,LZ
;TYPE=PLATED
T1F00S00C0.02800
T2F00S00C0.03150
T3F00S00C0.04000
T4F00S00C0.08000
T5F00S00C0.09000
T6F00S00C0.10827
%
T01
X-001Y0085
X00375Y016
X-00215Y02467
X-00175Y02525
X-00305Y02392
X-01593Y01799
X-00875Y04025
X0015Y03825
X00875Y04575
X01025
X-011Y047
Y04775
X-01225
Y047
X-0136Y0472
T02
X-0065Y0387098
Y0395
T03
X-003Y00485
X-002
X-001
X0
X001
X002
X003
X0025Y017
X0015
X0005
X-0005
X-0015
X-0025
X-0035
Y018
X-0025
X-0015
X-0005
X0005
X0015
X0025
X0035
Y017
X0045
Y018
X0055
Y017
X0065
Y018
X0075
Y017
X0085
Y018
X0095
Y017
X0065Y02
Y021
Y022
Y023
Y024
Y025
Y026
X0055
X0045
X0035
X0025
X0015
X0005
X-0005
X-0015
X-0025
X-0035
Y02
X-0025
X-0015
X-0005
X0005
X0015
X0025
X0035
X0045
X0055
X0045Y0305
X0015Y031
Y03
X-0015
Y031
X-0045Y0305
Y026
X-0055
X-0065
X-0055Y025
Y02
X-0065
X-0045
Y018
X-0055
X-0065
X-0075
X-0085
X-0095
Y017
X-0085
X-0075
X-0065
X-0055
X-0045
Y0315
Y0325
Y0335
Y0345
Y0355
X-0152001Y0415
Y0425
Y0435
Y0445
Y0455
Y0465
X-003Y0432
X-002
X-001
X0
X001
X002
X003
X0015Y036
Y035
Y034
Y033
Y032
X-0015
Y033
Y034
Y035
Y036
X0045Y0355
Y0345
Y0335
Y0325
Y0315
X0152Y0415
Y0425
Y0435
Y0445
Y0455
Y0465
Y0475
X-0152001
T04
X0177Y0302
X-0177
Y0373
X0177
T05
X-017Y0091
Y0149
X017
Y0091
T06
X-0114193Y0084429
X0114154
Y017498
X-0114193
M30
