G04*
G04 #@! TF.GenerationSoftware,Altium Limited,Altium Designer,23.2.1 (34)*
G04*
G04 Layer_Physical_Order=2*
G04 Layer_Color=16711680*
%FSLAX25Y25*%
%MOIN*%
G70*
G04*
G04 #@! TF.SameCoordinates,44C20E60-2C31-4A65-8039-A08327F752B7*
G04*
G04*
G04 #@! TF.FilePolarity,Positive*
G04*
G01*
G75*
%ADD26C,0.01500*%
%ADD27C,0.06000*%
%ADD28C,0.04528*%
%ADD29R,0.04528X0.04528*%
%ADD30C,0.05000*%
%ADD31C,0.01000*%
G36*
X190000Y85000D02*
X120000Y15000D01*
X-110000D01*
X-115000Y10000D01*
X-185000Y80000D01*
X-187500D01*
Y467500D01*
X-192038Y472038D01*
X-191847Y472500D01*
X-187500D01*
Y485000D01*
X190000D01*
Y85000D01*
D02*
G37*
%LPC*%
G36*
X-109500Y480990D02*
Y478000D01*
X-106510D01*
X-106738Y478851D01*
X-107199Y479649D01*
X-107851Y480301D01*
X-108649Y480761D01*
X-109500Y480990D01*
D02*
G37*
G36*
X-110500D02*
X-111351Y480761D01*
X-112149Y480301D01*
X-112801Y479649D01*
X-113261Y478851D01*
X-113489Y478000D01*
X-110500D01*
Y480990D01*
D02*
G37*
G36*
X-122000D02*
Y478000D01*
X-119010D01*
X-119238Y478851D01*
X-119699Y479649D01*
X-120351Y480301D01*
X-121149Y480761D01*
X-122000Y480990D01*
D02*
G37*
G36*
X-123000D02*
X-123851Y480761D01*
X-124649Y480301D01*
X-125301Y479649D01*
X-125761Y478851D01*
X-125989Y478000D01*
X-123000D01*
Y480990D01*
D02*
G37*
G36*
X-106510Y477000D02*
X-109500D01*
Y474011D01*
X-108649Y474238D01*
X-107851Y474699D01*
X-107199Y475351D01*
X-106738Y476149D01*
X-106510Y477000D01*
D02*
G37*
G36*
X-110500D02*
X-113489D01*
X-113261Y476149D01*
X-112801Y475351D01*
X-112149Y474699D01*
X-111351Y474238D01*
X-110500Y474011D01*
Y477000D01*
D02*
G37*
G36*
X-119010D02*
X-122000D01*
Y474011D01*
X-121149Y474238D01*
X-120351Y474699D01*
X-119699Y475351D01*
X-119238Y476149D01*
X-119010Y477000D01*
D02*
G37*
G36*
X-123000D02*
X-125989D01*
X-125761Y476149D01*
X-125301Y475351D01*
X-124649Y474699D01*
X-123851Y474238D01*
X-123000Y474011D01*
Y477000D01*
D02*
G37*
G36*
X-135500Y475490D02*
Y472500D01*
X-132510D01*
X-132738Y473351D01*
X-133199Y474149D01*
X-133851Y474801D01*
X-134649Y475261D01*
X-135500Y475490D01*
D02*
G37*
G36*
X-136500D02*
X-137351Y475261D01*
X-138149Y474801D01*
X-138801Y474149D01*
X-139261Y473351D01*
X-139489Y472500D01*
X-136500D01*
Y475490D01*
D02*
G37*
G36*
X-109500Y473490D02*
Y470500D01*
X-106510D01*
X-106738Y471351D01*
X-107199Y472149D01*
X-107851Y472801D01*
X-108649Y473261D01*
X-109500Y473490D01*
D02*
G37*
G36*
X-110500D02*
X-111351Y473261D01*
X-112149Y472801D01*
X-112801Y472149D01*
X-113261Y471351D01*
X-113489Y470500D01*
X-110500D01*
Y473490D01*
D02*
G37*
G36*
X-122000D02*
Y470500D01*
X-119010D01*
X-119238Y471351D01*
X-119699Y472149D01*
X-120351Y472801D01*
X-121149Y473261D01*
X-122000Y473490D01*
D02*
G37*
G36*
X-123000D02*
X-123851Y473261D01*
X-124649Y472801D01*
X-125301Y472149D01*
X-125761Y471351D01*
X-125989Y470500D01*
X-123000D01*
Y473490D01*
D02*
G37*
G36*
X-132510Y471500D02*
X-135500D01*
Y468510D01*
X-134649Y468739D01*
X-133851Y469199D01*
X-133199Y469851D01*
X-132738Y470649D01*
X-132510Y471500D01*
D02*
G37*
G36*
X-136500D02*
X-139489D01*
X-139261Y470649D01*
X-138801Y469851D01*
X-138149Y469199D01*
X-137351Y468739D01*
X-136500Y468510D01*
Y471500D01*
D02*
G37*
G36*
X-106510Y469500D02*
X-109500D01*
Y466510D01*
X-108649Y466739D01*
X-107851Y467199D01*
X-107199Y467851D01*
X-106738Y468649D01*
X-106510Y469500D01*
D02*
G37*
G36*
X-110500D02*
X-113489D01*
X-113261Y468649D01*
X-112801Y467851D01*
X-112149Y467199D01*
X-111351Y466739D01*
X-110500Y466510D01*
Y469500D01*
D02*
G37*
G36*
X-119010D02*
X-122000D01*
Y466510D01*
X-121149Y466739D01*
X-120351Y467199D01*
X-119699Y467851D01*
X-119238Y468649D01*
X-119010Y469500D01*
D02*
G37*
G36*
X-123000D02*
X-125989D01*
X-125761Y468649D01*
X-125301Y467851D01*
X-124649Y467199D01*
X-123851Y466739D01*
X-123000Y466510D01*
Y469500D01*
D02*
G37*
G36*
X103000Y460990D02*
Y458000D01*
X105990D01*
X105762Y458851D01*
X105301Y459649D01*
X104649Y460301D01*
X103851Y460761D01*
X103000Y460990D01*
D02*
G37*
G36*
X102000D02*
X101149Y460761D01*
X100351Y460301D01*
X99699Y459649D01*
X99239Y458851D01*
X99010Y458000D01*
X102000D01*
Y460990D01*
D02*
G37*
G36*
X88000D02*
Y458000D01*
X90990D01*
X90762Y458851D01*
X90301Y459649D01*
X89649Y460301D01*
X88851Y460761D01*
X88000Y460990D01*
D02*
G37*
G36*
X87000D02*
X86149Y460761D01*
X85351Y460301D01*
X84699Y459649D01*
X84238Y458851D01*
X84010Y458000D01*
X87000D01*
Y460990D01*
D02*
G37*
G36*
X105990Y457000D02*
X103000D01*
Y454010D01*
X103851Y454239D01*
X104649Y454699D01*
X105301Y455351D01*
X105762Y456149D01*
X105990Y457000D01*
D02*
G37*
G36*
X102000D02*
X99010D01*
X99239Y456149D01*
X99699Y455351D01*
X100351Y454699D01*
X101149Y454239D01*
X102000Y454010D01*
Y457000D01*
D02*
G37*
G36*
X90990D02*
X88000D01*
Y454010D01*
X88851Y454239D01*
X89649Y454699D01*
X90301Y455351D01*
X90762Y456149D01*
X90990Y457000D01*
D02*
G37*
G36*
X87000D02*
X84010D01*
X84238Y456149D01*
X84699Y455351D01*
X85351Y454699D01*
X86149Y454239D01*
X87000Y454010D01*
Y457000D01*
D02*
G37*
G36*
X160000Y480000D02*
X145000D01*
Y450000D01*
X-142500D01*
Y480000D01*
X-160000D01*
Y472500D01*
Y410000D01*
X-157500Y407500D01*
X-145000D01*
Y417500D01*
X-112500D01*
X-72500Y377500D01*
X-60000D01*
Y350000D01*
X-55000D01*
Y267500D01*
X-70000D01*
Y192500D01*
X-72500Y190000D01*
X-165000D01*
Y175000D01*
X-135000D01*
X-35000Y75000D01*
Y40000D01*
X35000D01*
Y55000D01*
X2500D01*
X-92500Y150000D01*
Y160000D01*
X34000D01*
Y159539D01*
X34238Y158649D01*
X34699Y157851D01*
X35351Y157199D01*
X36149Y156738D01*
X37039Y156500D01*
X37961D01*
X38851Y156738D01*
X39649Y157199D01*
X40301Y157851D01*
X40511Y158216D01*
X65000D01*
X65683Y158352D01*
X66262Y158738D01*
X67523Y160000D01*
X100000D01*
Y187500D01*
X72500D01*
Y265000D01*
X57500D01*
Y370000D01*
X7500D01*
Y362500D01*
X-7500D01*
X-45000Y400000D01*
Y415000D01*
X40000D01*
Y430000D01*
X140000D01*
Y407500D01*
X160000D01*
Y480000D01*
D02*
G37*
G36*
X15500Y385989D02*
Y383000D01*
X18489D01*
X18261Y383851D01*
X17801Y384649D01*
X17149Y385301D01*
X16351Y385761D01*
X15500Y385989D01*
D02*
G37*
G36*
X14500D02*
X13649Y385761D01*
X12851Y385301D01*
X12199Y384649D01*
X11738Y383851D01*
X11511Y383000D01*
X14500D01*
Y385989D01*
D02*
G37*
G36*
X18489Y382000D02*
X15500D01*
Y379011D01*
X16351Y379239D01*
X17149Y379699D01*
X17801Y380351D01*
X18261Y381149D01*
X18489Y382000D01*
D02*
G37*
G36*
X14500D02*
X11511D01*
X11738Y381149D01*
X12199Y380351D01*
X12851Y379699D01*
X13649Y379239D01*
X14500Y379011D01*
Y382000D01*
D02*
G37*
G36*
X177658Y378000D02*
X176342D01*
X175070Y377659D01*
X173930Y377001D01*
X172999Y376070D01*
X172341Y374930D01*
X172000Y373658D01*
Y372342D01*
X172341Y371070D01*
X172999Y369930D01*
X173930Y368999D01*
X175070Y368341D01*
X176342Y368000D01*
X177658D01*
X178930Y368341D01*
X180070Y368999D01*
X181001Y369930D01*
X181659Y371070D01*
X182000Y372342D01*
Y373658D01*
X181659Y374930D01*
X181001Y376070D01*
X180070Y377001D01*
X178930Y377659D01*
X177658Y378000D01*
D02*
G37*
G36*
X-176342D02*
X-177658D01*
X-178930Y377659D01*
X-180070Y377001D01*
X-181001Y376070D01*
X-181659Y374930D01*
X-182000Y373658D01*
Y372342D01*
X-181659Y371070D01*
X-181001Y369930D01*
X-180070Y368999D01*
X-178930Y368341D01*
X-177658Y368000D01*
X-176342D01*
X-175070Y368341D01*
X-173930Y368999D01*
X-172999Y369930D01*
X-172341Y371070D01*
X-172000Y372342D01*
Y373658D01*
X-172341Y374930D01*
X-172999Y376070D01*
X-173930Y377001D01*
X-175070Y377659D01*
X-176342Y378000D01*
D02*
G37*
G36*
X177658Y307000D02*
X176342D01*
X175070Y306659D01*
X173930Y306001D01*
X172999Y305070D01*
X172341Y303930D01*
X172000Y302658D01*
Y301342D01*
X172341Y300070D01*
X172999Y298930D01*
X173930Y297999D01*
X175070Y297341D01*
X176342Y297000D01*
X177658D01*
X178930Y297341D01*
X180070Y297999D01*
X181001Y298930D01*
X181659Y300070D01*
X182000Y301342D01*
Y302658D01*
X181659Y303930D01*
X181001Y305070D01*
X180070Y306001D01*
X178930Y306659D01*
X177658Y307000D01*
D02*
G37*
G36*
X-176342D02*
X-177658D01*
X-178930Y306659D01*
X-180070Y306001D01*
X-181001Y305070D01*
X-181659Y303930D01*
X-182000Y302658D01*
Y301342D01*
X-181659Y300070D01*
X-181001Y298930D01*
X-180070Y297999D01*
X-178930Y297341D01*
X-177658Y297000D01*
X-176342D01*
X-175070Y297341D01*
X-173930Y297999D01*
X-172999Y298930D01*
X-172341Y300070D01*
X-172000Y301342D01*
Y302658D01*
X-172341Y303930D01*
X-172999Y305070D01*
X-173930Y306001D01*
X-175070Y306659D01*
X-176342Y307000D01*
D02*
G37*
G36*
X114785Y181394D02*
X113522D01*
X112283Y181147D01*
X111116Y180664D01*
X110065Y179962D01*
X109172Y179069D01*
X108470Y178018D01*
X107987Y176851D01*
X107740Y175612D01*
Y174349D01*
X107987Y173110D01*
X108470Y171942D01*
X109172Y170892D01*
X110065Y169999D01*
X111116Y169297D01*
X112283Y168814D01*
X113522Y168567D01*
X114785D01*
X116024Y168814D01*
X117192Y169297D01*
X118242Y169999D01*
X119135Y170892D01*
X119837Y171942D01*
X120320Y173110D01*
X120567Y174349D01*
Y175612D01*
X120320Y176851D01*
X119837Y178018D01*
X119135Y179069D01*
X118242Y179962D01*
X117192Y180664D01*
X116024Y181147D01*
X114785Y181394D01*
D02*
G37*
G36*
X170724Y154500D02*
X169276D01*
X167877Y154125D01*
X166623Y153401D01*
X165599Y152377D01*
X164875Y151123D01*
X164500Y149724D01*
Y148276D01*
X164875Y146877D01*
X165599Y145623D01*
X166623Y144599D01*
X167877Y143875D01*
X169276Y143500D01*
X170724D01*
X172123Y143875D01*
X173377Y144599D01*
X174401Y145623D01*
X175125Y146877D01*
X175500Y148276D01*
Y149724D01*
X175125Y151123D01*
X174401Y152377D01*
X173377Y153401D01*
X172123Y154125D01*
X170724Y154500D01*
D02*
G37*
G36*
X-169276D02*
X-170724D01*
X-172123Y154125D01*
X-173377Y153401D01*
X-174401Y152377D01*
X-175125Y151123D01*
X-175500Y149724D01*
Y148276D01*
X-175125Y146877D01*
X-174401Y145623D01*
X-173377Y144599D01*
X-172123Y143875D01*
X-170724Y143500D01*
X-169276D01*
X-167877Y143875D01*
X-166623Y144599D01*
X-165599Y145623D01*
X-164875Y146877D01*
X-164500Y148276D01*
Y149724D01*
X-164875Y151123D01*
X-165599Y152377D01*
X-166623Y153401D01*
X-167877Y154125D01*
X-169276Y154500D01*
D02*
G37*
G36*
X170724Y96500D02*
X169276D01*
X167877Y96125D01*
X166623Y95401D01*
X165599Y94377D01*
X164875Y93123D01*
X164500Y91724D01*
Y90276D01*
X164875Y88877D01*
X165599Y87623D01*
X166623Y86599D01*
X167877Y85875D01*
X169276Y85500D01*
X170724D01*
X172123Y85875D01*
X173377Y86599D01*
X174401Y87623D01*
X175125Y88877D01*
X175500Y90276D01*
Y91724D01*
X175125Y93123D01*
X174401Y94377D01*
X173377Y95401D01*
X172123Y96125D01*
X170724Y96500D01*
D02*
G37*
G36*
X-9500Y88490D02*
Y85500D01*
X-6510D01*
X-6739Y86351D01*
X-7199Y87149D01*
X-7851Y87801D01*
X-8649Y88261D01*
X-9500Y88490D01*
D02*
G37*
G36*
X-10500D02*
X-11351Y88261D01*
X-12149Y87801D01*
X-12801Y87149D01*
X-13262Y86351D01*
X-13489Y85500D01*
X-10500D01*
Y88490D01*
D02*
G37*
G36*
X-169276Y96500D02*
X-170724D01*
X-172123Y96125D01*
X-173377Y95401D01*
X-174401Y94377D01*
X-175125Y93123D01*
X-175500Y91724D01*
Y90276D01*
X-175125Y88877D01*
X-174401Y87623D01*
X-173377Y86599D01*
X-172123Y85875D01*
X-170724Y85500D01*
X-169276D01*
X-167877Y85875D01*
X-166623Y86599D01*
X-165599Y87623D01*
X-164875Y88877D01*
X-164500Y90276D01*
Y91724D01*
X-164875Y93123D01*
X-165599Y94377D01*
X-166623Y95401D01*
X-167877Y96125D01*
X-169276Y96500D01*
D02*
G37*
G36*
X-6510Y84500D02*
X-9500D01*
Y81511D01*
X-8649Y81739D01*
X-7851Y82199D01*
X-7199Y82851D01*
X-6739Y83649D01*
X-6510Y84500D01*
D02*
G37*
G36*
X-10500D02*
X-13489D01*
X-13262Y83649D01*
X-12801Y82851D01*
X-12149Y82199D01*
X-11351Y81739D01*
X-10500Y81511D01*
Y84500D01*
D02*
G37*
G36*
X114785Y90843D02*
X113522D01*
X112283Y90596D01*
X111116Y90113D01*
X110065Y89411D01*
X109172Y88517D01*
X108470Y87467D01*
X107987Y86300D01*
X107740Y85061D01*
Y83798D01*
X107987Y82559D01*
X108470Y81391D01*
X109172Y80341D01*
X110065Y79448D01*
X111116Y78746D01*
X112283Y78262D01*
X113522Y78016D01*
X114785D01*
X116024Y78262D01*
X117192Y78746D01*
X118242Y79448D01*
X119135Y80341D01*
X119837Y81391D01*
X120320Y82559D01*
X120567Y83798D01*
Y85061D01*
X120320Y86300D01*
X119837Y87467D01*
X119135Y88517D01*
X118242Y89411D01*
X117192Y90113D01*
X116024Y90596D01*
X114785Y90843D01*
D02*
G37*
G36*
X-113561D02*
X-114824D01*
X-116063Y90596D01*
X-117231Y90113D01*
X-118281Y89411D01*
X-119174Y88517D01*
X-119876Y87467D01*
X-120360Y86300D01*
X-120606Y85061D01*
Y83798D01*
X-120360Y82559D01*
X-119876Y81391D01*
X-119174Y80341D01*
X-118281Y79448D01*
X-117231Y78746D01*
X-116063Y78262D01*
X-114824Y78016D01*
X-113561D01*
X-112322Y78262D01*
X-111155Y78746D01*
X-110105Y79448D01*
X-109211Y80341D01*
X-108509Y81391D01*
X-108026Y82559D01*
X-107779Y83798D01*
Y85061D01*
X-108026Y86300D01*
X-108509Y87467D01*
X-109211Y88517D01*
X-110105Y89411D01*
X-111155Y90113D01*
X-112322Y90596D01*
X-113561Y90843D01*
D02*
G37*
%LPD*%
D26*
X37500Y160000D02*
X65000D01*
X75000Y170000D01*
X-17500Y252500D02*
X-4700D01*
X0Y257200D01*
X50200Y184800D02*
Y209700D01*
X-30599Y214900D02*
X45000D01*
X50200Y209700D01*
X0Y335000D02*
X45000D01*
X-35000D02*
X0D01*
X-98300Y175000D02*
X-90000D01*
X-101300D02*
X-98300D01*
X-45000Y325000D02*
X-35000Y335000D01*
X-25200Y309800D02*
X-15000Y320000D01*
X-48000Y309800D02*
X-25200D01*
X-49800Y308000D02*
X-48000Y309800D01*
X-49800Y234101D02*
Y308000D01*
Y234101D02*
X-30599Y214900D01*
X50200Y184800D02*
X55000Y180000D01*
X9800Y325200D02*
X15000Y320000D01*
X-34800Y325200D02*
X9800D01*
X-45000Y315000D02*
X-34800Y325200D01*
X20000Y345000D02*
X45000D01*
X15000Y340000D02*
X20000Y345000D01*
X45000Y180000D02*
X49800Y175200D01*
X60200D01*
X65000Y180000D01*
X-40000Y360000D02*
X-15000D01*
X-45000Y355000D02*
X-40000Y360000D01*
X53800Y435000D02*
X152000D01*
X52000Y436800D02*
X53800Y435000D01*
X14800Y436800D02*
X52000D01*
X10000Y432000D02*
X14800Y436800D01*
X23000Y303000D02*
X45000Y325000D01*
X23000Y286500D02*
Y303000D01*
X0Y263500D02*
X23000Y286500D01*
X0Y257200D02*
Y263500D01*
X45000Y315000D02*
X49800Y310200D01*
Y301600D02*
Y310200D01*
X10200Y262000D02*
X49800Y301600D01*
X10200Y250900D02*
Y262000D01*
X6000Y246700D02*
X10200Y250900D01*
X-21500Y246700D02*
X6000D01*
X34200Y239200D02*
X55000Y260000D01*
X-30500Y239200D02*
X34200D01*
X-152001Y435000D02*
X-54600D01*
X-46800Y427200D01*
X-14800D01*
X-10000Y432000D01*
X10000Y355000D02*
X15000Y350000D01*
X-16800Y355000D02*
X10000D01*
X-21800Y350000D02*
X-16800Y355000D01*
X-52000Y350000D02*
X-21800D01*
X-56000Y354000D02*
X-52000Y350000D01*
X-56000Y354000D02*
Y386000D01*
X-65000Y395000D02*
X-56000Y386000D01*
X-90000Y175000D02*
X-85000Y170000D01*
X-101300Y172000D02*
X-98300Y175000D01*
X-101300Y149800D02*
Y172000D01*
Y149800D02*
X0Y48500D01*
X4000Y445000D02*
X152000D01*
X0Y441000D02*
X4000Y445000D01*
X0Y432000D02*
Y441000D01*
X152000Y455000D02*
X156800Y450200D01*
Y443000D02*
Y450200D01*
X154000Y440200D02*
X156800Y443000D01*
X11200Y440200D02*
X154000D01*
X5000Y434000D02*
X11200Y440200D01*
X5000Y428000D02*
Y434000D01*
X2800Y425800D02*
X5000Y428000D01*
X-3800Y425800D02*
X2800D01*
X-10000Y432000D02*
X-3800Y425800D01*
X-19800Y220000D02*
X65000D01*
X-34750Y234950D02*
X-19800Y220000D01*
X-34750Y234950D02*
Y249750D01*
X-45000Y260000D02*
X-34750Y249750D01*
X-69100Y391198D02*
X-65000Y387098D01*
X-69100Y391198D02*
Y398000D01*
X-68000Y399100D01*
X-54100D01*
X-15000Y360000D01*
X15000Y330000D02*
X47800D01*
X49800Y332000D01*
Y350200D01*
X45000Y355000D02*
X49800Y350200D01*
X9700Y421700D02*
X20000Y432000D01*
X-130100Y421700D02*
X9700D01*
X-138300Y429900D02*
X-130100Y421700D01*
X-154700Y429900D02*
X-138300D01*
X-156800Y432000D02*
X-154700Y429900D01*
X-156800Y432000D02*
Y460201D01*
X-152001Y465000D01*
X-45000Y305000D02*
X10000D01*
X15000Y310000D01*
X-109100Y182800D02*
X-101300Y175000D01*
X-156400Y182800D02*
X-109100D01*
X-159300Y179900D02*
X-156400Y182800D01*
X-75000Y180000D02*
X-70000Y175000D01*
X-60000D01*
X-55000Y170000D01*
X40000Y175000D02*
X45000Y180000D01*
X30000Y175000D02*
X40000D01*
X25000Y170000D02*
X30000Y175000D01*
X90000D02*
X95000Y170000D01*
X70000Y175000D02*
X90000D01*
X65000Y180000D02*
X70000Y175000D01*
X20000D02*
X25000Y170000D01*
X0Y175000D02*
X20000D01*
X-5000Y180000D02*
X0Y175000D01*
X-15000Y350000D02*
X0Y335000D01*
X-9800Y175200D02*
X-5000Y180000D01*
X-49800Y175200D02*
X-9800D01*
X-55000Y170000D02*
X-49800Y175200D01*
X-13000Y445000D02*
X0Y432000D01*
X-152001Y445000D02*
X-13000D01*
X-19800Y165200D02*
X-15000Y170000D01*
X-90200Y165200D02*
X-19800D01*
X-95000Y170000D02*
X-90200Y165200D01*
X-95000Y180000D02*
X-85000D01*
X-15000Y360000D02*
X15000D01*
D27*
X-152001Y415000D02*
D03*
Y425000D02*
D03*
Y435000D02*
D03*
Y445000D02*
D03*
Y455000D02*
D03*
Y465000D02*
D03*
Y475000D02*
D03*
X65000Y250000D02*
D03*
Y240000D02*
D03*
Y230000D02*
D03*
Y220000D02*
D03*
Y210000D02*
D03*
X-55000Y260000D02*
D03*
X-65000D02*
D03*
X-35000D02*
D03*
X-45000D02*
D03*
X-15000D02*
D03*
X-25000D02*
D03*
X5000D02*
D03*
X-5000D02*
D03*
X25000D02*
D03*
X15000D02*
D03*
X45000D02*
D03*
X35000D02*
D03*
X65000D02*
D03*
X55000D02*
D03*
X-55000Y200000D02*
D03*
X-65000D02*
D03*
X-35000D02*
D03*
X-45000D02*
D03*
X-15000D02*
D03*
X-25000D02*
D03*
X5000D02*
D03*
X-5000D02*
D03*
X25000D02*
D03*
X15000D02*
D03*
X45000D02*
D03*
X35000D02*
D03*
X65000D02*
D03*
X55000D02*
D03*
X-55000Y250000D02*
D03*
X-114193Y174980D02*
D03*
X114154D02*
D03*
X-114193Y84429D02*
D03*
X-95000Y180000D02*
D03*
Y170000D02*
D03*
X-85000Y180000D02*
D03*
Y170000D02*
D03*
X-75000Y180000D02*
D03*
Y170000D02*
D03*
X-65000Y180000D02*
D03*
Y170000D02*
D03*
X-55000Y180000D02*
D03*
Y170000D02*
D03*
X-45000Y180000D02*
D03*
Y170000D02*
D03*
X-35000Y180000D02*
D03*
Y170000D02*
D03*
X-25000Y180000D02*
D03*
Y170000D02*
D03*
X-15000Y180000D02*
D03*
Y170000D02*
D03*
X-5000Y180000D02*
D03*
Y170000D02*
D03*
X5000Y180000D02*
D03*
Y170000D02*
D03*
X15000Y180000D02*
D03*
Y170000D02*
D03*
X25000Y180000D02*
D03*
Y170000D02*
D03*
X35000Y180000D02*
D03*
Y170000D02*
D03*
X45000Y180000D02*
D03*
Y170000D02*
D03*
X55000Y180000D02*
D03*
Y170000D02*
D03*
X65000Y180000D02*
D03*
Y170000D02*
D03*
X75000Y180000D02*
D03*
Y170000D02*
D03*
X85000Y180000D02*
D03*
Y170000D02*
D03*
X95000Y180000D02*
D03*
Y170000D02*
D03*
X114154Y84429D02*
D03*
X-177000Y373000D02*
D03*
Y302000D02*
D03*
X-15000Y360000D02*
D03*
X15000D02*
D03*
X-15000Y350000D02*
D03*
X15000D02*
D03*
X-15000Y340000D02*
D03*
X15000D02*
D03*
X-15000Y330000D02*
D03*
X15000D02*
D03*
X-15000Y320000D02*
D03*
X15000D02*
D03*
X-15000Y310000D02*
D03*
X15000D02*
D03*
X-15000Y300000D02*
D03*
X15000D02*
D03*
X-45000Y325000D02*
D03*
Y315000D02*
D03*
Y305000D02*
D03*
Y345000D02*
D03*
Y335000D02*
D03*
Y355000D02*
D03*
X177000Y302000D02*
D03*
Y373000D02*
D03*
X30000Y48500D02*
D03*
X20000D02*
D03*
X10000D02*
D03*
X0D02*
D03*
X-10000D02*
D03*
X-20000D02*
D03*
X-30000D02*
D03*
Y432000D02*
D03*
X-20000D02*
D03*
X-10000D02*
D03*
X0D02*
D03*
X10000D02*
D03*
X20000D02*
D03*
X30000D02*
D03*
X152000Y475000D02*
D03*
Y465000D02*
D03*
Y455000D02*
D03*
Y445000D02*
D03*
Y435000D02*
D03*
Y425000D02*
D03*
Y415000D02*
D03*
X45000Y335000D02*
D03*
Y345000D02*
D03*
Y355000D02*
D03*
Y315000D02*
D03*
Y325000D02*
D03*
Y305000D02*
D03*
D28*
X-65000Y387098D02*
D03*
D29*
Y395000D02*
D03*
D30*
X170000Y149000D02*
D03*
X-170000D02*
D03*
X37500Y160000D02*
D03*
X-17500Y252500D02*
D03*
X-110000Y477500D02*
D03*
Y470000D02*
D03*
X-122500D02*
D03*
Y477500D02*
D03*
X-10000Y85000D02*
D03*
X-87500Y402500D02*
D03*
X15000Y382500D02*
D03*
X102500Y457500D02*
D03*
X87500D02*
D03*
X-136000Y472000D02*
D03*
X-21500Y246700D02*
D03*
X-30500Y239200D02*
D03*
X-159300Y179900D02*
D03*
D31*
X170000Y91000D02*
D03*
X-170000D02*
D03*
M02*
