G04*
G04 #@! TF.GenerationSoftware,Altium Limited,Altium Designer,23.2.1 (34)*
G04*
G04 Layer_Color=65535*
%FSLAX25Y25*%
%MOIN*%
G70*
G04*
G04 #@! TF.SameCoordinates,44C20E60-2C31-4A65-8039-A08327F752B7*
G04*
G04*
G04 #@! TF.FilePolarity,Positive*
G04*
G01*
G75*
%ADD10C,0.00787*%
%ADD11C,0.01968*%
%ADD12C,0.01000*%
%ADD13C,0.00500*%
%ADD14C,0.03000*%
G36*
X-82139Y62740D02*
X-81923D01*
Y62091D01*
X-81490D01*
Y61875D01*
X-80409D01*
Y61659D01*
X-80192D01*
Y59928D01*
X-80409D01*
Y59711D01*
X-80625D01*
Y59495D01*
X-82356D01*
Y57764D01*
X-82139D01*
Y57332D01*
X-81923D01*
Y56899D01*
X-81707D01*
Y56683D01*
X-81490D01*
Y56250D01*
X-81274D01*
Y55817D01*
X-81058D01*
Y55168D01*
X-80841D01*
Y53654D01*
X-81058D01*
Y53005D01*
X-81274D01*
Y52789D01*
X-81490D01*
Y52356D01*
X-81707D01*
Y52139D01*
X-81923D01*
Y51923D01*
X-82139D01*
Y51058D01*
X-81923D01*
Y50841D01*
X-81707D01*
Y50625D01*
X-81490D01*
Y50409D01*
X-80409D01*
Y50625D01*
X-79111D01*
Y50841D01*
X-78029D01*
Y51058D01*
X-76947D01*
Y51274D01*
X-75865D01*
Y51490D01*
X-74784D01*
Y51707D01*
X-73486D01*
Y51923D01*
X-71539D01*
Y52139D01*
X-68077D01*
Y51923D01*
X-67212D01*
Y51707D01*
X-66779D01*
Y51490D01*
X-66346D01*
Y51274D01*
X-65913D01*
Y51058D01*
X-65481D01*
Y50841D01*
X-65264D01*
Y50625D01*
X-65048D01*
Y50409D01*
X-64832D01*
Y50192D01*
X-64615D01*
Y49976D01*
X-64399D01*
Y49760D01*
X-64183D01*
Y49543D01*
X-63966D01*
Y49111D01*
X-63750D01*
Y48678D01*
X-63534D01*
Y48029D01*
X-63317D01*
Y47164D01*
X-63101D01*
Y44784D01*
X-63317D01*
Y43918D01*
X-63534D01*
Y43269D01*
X-63750D01*
Y42620D01*
X-63966D01*
Y42188D01*
X-64183D01*
Y41755D01*
X-64399D01*
Y41322D01*
X-64615D01*
Y40889D01*
X-64832D01*
Y40457D01*
X-65048D01*
Y40240D01*
X-65264D01*
Y39808D01*
X-65481D01*
Y39591D01*
X-65697D01*
Y39159D01*
X-65913D01*
Y38726D01*
X-66130D01*
Y38510D01*
X-66346D01*
Y38077D01*
X-66562D01*
Y37861D01*
X-66779D01*
Y37428D01*
X-66995D01*
Y37211D01*
X-67212D01*
Y36779D01*
X-67428D01*
Y36346D01*
X-67644D01*
Y36130D01*
X-67861D01*
Y35697D01*
X-68077D01*
Y35264D01*
X-68293D01*
Y34832D01*
X-68510D01*
Y34399D01*
X-68726D01*
Y33966D01*
X-68942D01*
Y33534D01*
X-69159D01*
Y33101D01*
X-69375D01*
Y32668D01*
X-69591D01*
Y32019D01*
X-69808D01*
Y30721D01*
X-70024D01*
Y30505D01*
X-71322D01*
Y30721D01*
X-73702D01*
Y30937D01*
X-75865D01*
Y31154D01*
X-78029D01*
Y31370D01*
X-80192D01*
Y31587D01*
X-82572D01*
Y31803D01*
X-84952D01*
Y32019D01*
X-87115D01*
Y32236D01*
X-89495D01*
Y32452D01*
X-91875D01*
Y32668D01*
X-94255D01*
Y32885D01*
X-96635D01*
Y33101D01*
X-98798D01*
Y33317D01*
X-100961D01*
Y33534D01*
X-102260D01*
Y33750D01*
X-102476D01*
Y35914D01*
X-102692D01*
Y36995D01*
X-102909D01*
Y37861D01*
X-103125D01*
Y38510D01*
X-103341D01*
Y39159D01*
X-103558D01*
Y39808D01*
X-103774D01*
Y40240D01*
X-103990D01*
Y40889D01*
X-104207D01*
Y41322D01*
X-104423D01*
Y41971D01*
X-104639D01*
Y42620D01*
X-104856D01*
Y43053D01*
X-105072D01*
Y43702D01*
X-105289D01*
Y44351D01*
X-105505D01*
Y45000D01*
X-105721D01*
Y45649D01*
X-105938D01*
Y46298D01*
X-106154D01*
Y47380D01*
X-106370D01*
Y49976D01*
X-106154D01*
Y50841D01*
X-105938D01*
Y51274D01*
X-105721D01*
Y51923D01*
X-105505D01*
Y52139D01*
X-105289D01*
Y52572D01*
X-105072D01*
Y53005D01*
X-104856D01*
Y53221D01*
X-104639D01*
Y53438D01*
X-104423D01*
Y53654D01*
X-104207D01*
Y53870D01*
X-103990D01*
Y54087D01*
X-103558D01*
Y54303D01*
X-103341D01*
Y54519D01*
X-102909D01*
Y54736D01*
X-102260D01*
Y54952D01*
X-98582D01*
Y54736D01*
X-97500D01*
Y54519D01*
X-96635D01*
Y54303D01*
X-95986D01*
Y54087D01*
X-95337D01*
Y53870D01*
X-94687D01*
Y53654D01*
X-94038D01*
Y53438D01*
X-93606D01*
Y53221D01*
X-92957D01*
Y53005D01*
X-92524D01*
Y52789D01*
X-91875D01*
Y52572D01*
X-91442D01*
Y52356D01*
X-91010D01*
Y52139D01*
X-90361D01*
Y51923D01*
X-89928D01*
Y51707D01*
X-89279D01*
Y51490D01*
X-88630D01*
Y51274D01*
X-87764D01*
Y51058D01*
X-87332D01*
Y51274D01*
X-86899D01*
Y51490D01*
X-86683D01*
Y51707D01*
X-86466D01*
Y52356D01*
X-86683D01*
Y52789D01*
X-86899D01*
Y53221D01*
X-87115D01*
Y53870D01*
X-87332D01*
Y54952D01*
X-87115D01*
Y55817D01*
X-86899D01*
Y56250D01*
X-86683D01*
Y56466D01*
X-86466D01*
Y56899D01*
X-86250D01*
Y57115D01*
X-86034D01*
Y57332D01*
X-85817D01*
Y57548D01*
X-85385D01*
Y57764D01*
X-85168D01*
Y57981D01*
X-84952D01*
Y58413D01*
X-84736D01*
Y59711D01*
X-84952D01*
Y59928D01*
X-86683D01*
Y62308D01*
X-84952D01*
Y62524D01*
X-84736D01*
Y62740D01*
X-84519D01*
Y63606D01*
X-84303D01*
Y64255D01*
X-82139D01*
Y62740D01*
D02*
G37*
G36*
X-99880Y31154D02*
X-97284D01*
Y30937D01*
X-94904D01*
Y30721D01*
X-92740D01*
Y30505D01*
X-90361D01*
Y30288D01*
X-87981D01*
Y30072D01*
X-85817D01*
Y29856D01*
X-83438D01*
Y29639D01*
X-81274D01*
Y29423D01*
X-78894D01*
Y29207D01*
X-76731D01*
Y28990D01*
X-74351D01*
Y28774D01*
X-72188D01*
Y28558D01*
X-70240D01*
Y28341D01*
X-70024D01*
Y28125D01*
X-69808D01*
Y26611D01*
X-70024D01*
Y25745D01*
X-70240D01*
Y25529D01*
X-71971D01*
Y25745D01*
X-74351D01*
Y25962D01*
X-76731D01*
Y26178D01*
X-78894D01*
Y26394D01*
X-81058D01*
Y26611D01*
X-83221D01*
Y26827D01*
X-85601D01*
Y27043D01*
X-87764D01*
Y27260D01*
X-89928D01*
Y27476D01*
X-92308D01*
Y27692D01*
X-94687D01*
Y27909D01*
X-97067D01*
Y28125D01*
X-99664D01*
Y28341D01*
X-102043D01*
Y28558D01*
X-103341D01*
Y30072D01*
X-103125D01*
Y31370D01*
X-99880D01*
Y31154D01*
D02*
G37*
G36*
X-67861Y21851D02*
X-67428D01*
Y21635D01*
X-66995D01*
Y21418D01*
X-66779D01*
Y21202D01*
X-66562D01*
Y20986D01*
X-66346D01*
Y20769D01*
X-66130D01*
Y20553D01*
X-65913D01*
Y20336D01*
X-65697D01*
Y20120D01*
X-65481D01*
Y19904D01*
X-65264D01*
Y19688D01*
X-65048D01*
Y19255D01*
X-64832D01*
Y19038D01*
X-64615D01*
Y18606D01*
X-64399D01*
Y17740D01*
X-64183D01*
Y14495D01*
X-64399D01*
Y13846D01*
X-64615D01*
Y13413D01*
X-64832D01*
Y12981D01*
X-65048D01*
Y12764D01*
X-65264D01*
Y12332D01*
X-65481D01*
Y12115D01*
X-65697D01*
Y11899D01*
X-65913D01*
Y11683D01*
X-66130D01*
Y11466D01*
X-66346D01*
Y11250D01*
X-66779D01*
Y11034D01*
X-66995D01*
Y10817D01*
X-67428D01*
Y10601D01*
X-67644D01*
Y10385D01*
X-68077D01*
Y10168D01*
X-68293D01*
Y10385D01*
X-68510D01*
Y17957D01*
Y18173D01*
Y22067D01*
X-67861D01*
Y21851D01*
D02*
G37*
G36*
X-105072Y10168D02*
X-105505D01*
Y10385D01*
X-105721D01*
Y10601D01*
X-106154D01*
Y10817D01*
X-106370D01*
Y11034D01*
X-106587D01*
Y11250D01*
X-106803D01*
Y11466D01*
X-107019D01*
Y11683D01*
X-107236D01*
Y11899D01*
X-107452D01*
Y12115D01*
X-107668D01*
Y12332D01*
X-107885D01*
Y12548D01*
X-108101D01*
Y12764D01*
X-108317D01*
Y12981D01*
X-108534D01*
Y13413D01*
X-108750D01*
Y14062D01*
X-108966D01*
Y14928D01*
X-109183D01*
Y17740D01*
X-108966D01*
Y18389D01*
X-108750D01*
Y18822D01*
X-108534D01*
Y19255D01*
X-108317D01*
Y19471D01*
X-108101D01*
Y19904D01*
X-107885D01*
Y20120D01*
X-107668D01*
Y20336D01*
X-107452D01*
Y20553D01*
X-107236D01*
Y20769D01*
X-107019D01*
Y20986D01*
X-106803D01*
Y21202D01*
X-106587D01*
Y21418D01*
X-106154D01*
Y21635D01*
X-105721D01*
Y21851D01*
X-105289D01*
Y22067D01*
X-105072D01*
Y10168D01*
D02*
G37*
G36*
X-102909Y26827D02*
X-100745D01*
Y26611D01*
X-98365D01*
Y26394D01*
X-95986D01*
Y26178D01*
X-93606D01*
Y25962D01*
X-91442D01*
Y25745D01*
X-89279D01*
Y25529D01*
X-87115D01*
Y25313D01*
X-84952D01*
Y25096D01*
X-82788D01*
Y24880D01*
X-80625D01*
Y24664D01*
X-78461D01*
Y24447D01*
X-76082D01*
Y24231D01*
X-73918D01*
Y24014D01*
X-71755D01*
Y23798D01*
X-70240D01*
Y23582D01*
X-70024D01*
Y7572D01*
X-103341D01*
Y27043D01*
X-102909D01*
Y26827D01*
D02*
G37*
%LPC*%
G36*
X-98798Y52789D02*
X-100529D01*
Y52572D01*
X-101611D01*
Y52356D01*
X-102043D01*
Y52139D01*
X-102476D01*
Y51923D01*
X-102692D01*
Y51707D01*
X-102909D01*
Y51490D01*
X-103125D01*
Y51058D01*
X-103341D01*
Y50625D01*
X-103558D01*
Y50192D01*
X-103774D01*
Y46947D01*
X-103558D01*
Y46082D01*
X-103341D01*
Y45433D01*
X-103125D01*
Y44784D01*
X-102909D01*
Y44135D01*
X-102692D01*
Y43702D01*
X-102476D01*
Y43053D01*
X-102260D01*
Y42620D01*
X-102043D01*
Y42188D01*
X-101827D01*
Y41755D01*
X-101611D01*
Y41322D01*
X-101394D01*
Y40889D01*
X-101178D01*
Y40457D01*
X-100961D01*
Y40024D01*
X-100745D01*
Y39591D01*
X-100529D01*
Y39375D01*
Y39159D01*
X-100312D01*
Y38942D01*
X-100096D01*
Y38510D01*
X-99880D01*
Y38077D01*
X-99664D01*
Y37861D01*
X-99447D01*
Y37644D01*
X-99231D01*
Y37211D01*
X-99014D01*
Y36995D01*
X-98798D01*
Y36779D01*
X-98582D01*
Y36562D01*
X-98365D01*
Y36346D01*
X-98149D01*
Y36130D01*
X-97716D01*
Y35914D01*
X-97284D01*
Y35697D01*
X-96202D01*
Y35914D01*
X-95986D01*
Y36130D01*
X-95769D01*
Y36562D01*
X-95553D01*
Y37861D01*
X-95769D01*
Y38293D01*
X-95986D01*
Y38510D01*
X-96202D01*
Y38726D01*
X-97933D01*
Y38942D01*
X-98365D01*
Y39375D01*
X-98582D01*
Y40240D01*
X-98798D01*
Y40889D01*
X-95986D01*
Y41106D01*
X-96202D01*
Y43053D01*
X-95120D01*
Y42836D01*
X-94471D01*
Y42620D01*
X-94255D01*
Y42404D01*
X-94038D01*
Y41755D01*
X-93822D01*
Y40889D01*
X-93606D01*
Y40673D01*
X-93389D01*
Y40457D01*
X-92524D01*
Y40240D01*
X-91659D01*
Y40024D01*
X-91442D01*
Y39808D01*
X-91226D01*
Y38510D01*
X-91442D01*
Y38293D01*
X-93389D01*
Y38077D01*
X-93606D01*
Y37644D01*
X-93389D01*
Y36995D01*
X-93173D01*
Y36562D01*
X-92957D01*
Y36346D01*
X-92740D01*
Y36130D01*
X-92524D01*
Y35914D01*
X-92308D01*
Y35697D01*
X-92091D01*
Y35481D01*
X-91659D01*
Y35264D01*
X-91226D01*
Y35048D01*
X-90361D01*
Y35264D01*
X-89928D01*
Y35481D01*
X-89711D01*
Y35697D01*
X-89495D01*
Y35914D01*
X-89279D01*
Y36130D01*
X-89062D01*
Y36346D01*
X-88846D01*
Y36779D01*
X-88630D01*
Y36995D01*
X-88414D01*
Y37428D01*
X-88197D01*
Y37861D01*
X-87981D01*
Y38510D01*
X-87764D01*
Y40024D01*
X-87548D01*
Y41106D01*
X-87764D01*
Y43053D01*
X-87981D01*
Y44135D01*
X-88197D01*
Y45216D01*
X-88414D01*
Y45865D01*
X-88630D01*
Y46947D01*
X-88846D01*
Y48029D01*
X-89062D01*
Y48678D01*
X-89279D01*
Y48894D01*
X-89711D01*
Y49111D01*
X-89928D01*
Y49327D01*
X-90361D01*
Y49543D01*
X-90793D01*
Y49760D01*
X-91226D01*
Y49976D01*
X-91659D01*
Y50192D01*
X-92091D01*
Y50409D01*
X-92524D01*
Y50625D01*
X-92957D01*
Y50841D01*
X-93389D01*
Y51058D01*
X-93822D01*
Y51274D01*
X-94471D01*
Y51490D01*
X-94904D01*
Y51707D01*
X-95553D01*
Y51923D01*
X-95986D01*
Y52139D01*
X-96635D01*
Y52356D01*
X-97500D01*
Y52572D01*
X-98798D01*
Y52789D01*
D02*
G37*
G36*
X-68942Y49976D02*
X-72188D01*
Y49760D01*
X-73486D01*
Y49543D01*
X-74784D01*
Y49327D01*
X-75649D01*
Y49111D01*
X-76514D01*
Y48894D01*
X-77380D01*
Y48678D01*
X-78029D01*
Y48461D01*
X-78678D01*
Y48245D01*
X-79327D01*
Y48029D01*
X-79760D01*
Y47813D01*
X-80192D01*
Y47596D01*
X-80409D01*
Y47164D01*
X-80625D01*
Y46731D01*
X-80841D01*
Y46082D01*
X-81058D01*
Y45649D01*
X-81274D01*
Y45216D01*
X-81490D01*
Y44784D01*
X-81707D01*
Y44135D01*
X-81923D01*
Y43702D01*
X-82139D01*
Y43269D01*
X-82356D01*
Y42620D01*
X-82572D01*
Y42188D01*
X-82788D01*
Y41539D01*
X-83005D01*
Y40673D01*
X-83221D01*
Y38726D01*
X-83438D01*
Y37861D01*
X-83221D01*
Y36779D01*
X-83005D01*
Y36130D01*
X-82788D01*
Y35697D01*
X-82572D01*
Y35264D01*
X-82356D01*
Y35048D01*
X-82139D01*
Y34832D01*
X-81923D01*
Y34615D01*
X-81707D01*
Y34399D01*
X-81274D01*
Y34183D01*
X-79976D01*
Y34399D01*
X-79543D01*
Y34615D01*
X-79111D01*
Y34832D01*
X-78894D01*
Y35048D01*
X-78678D01*
Y35264D01*
X-78461D01*
Y35697D01*
X-78245D01*
Y35914D01*
X-78029D01*
Y36779D01*
X-79327D01*
Y36995D01*
X-80192D01*
Y37644D01*
X-79976D01*
Y38293D01*
X-79760D01*
Y38726D01*
X-79543D01*
Y38942D01*
X-77380D01*
Y39159D01*
X-77163D01*
Y39375D01*
X-76947D01*
Y39808D01*
X-76731D01*
Y40457D01*
X-76514D01*
Y40673D01*
X-76298D01*
Y40889D01*
X-74351D01*
Y39808D01*
X-74567D01*
Y39375D01*
X-74784D01*
Y38942D01*
X-74567D01*
Y38726D01*
X-72837D01*
Y38510D01*
X-72404D01*
Y37211D01*
X-72620D01*
Y36995D01*
X-72837D01*
Y36779D01*
X-73269D01*
Y36562D01*
X-75216D01*
Y36346D01*
X-75649D01*
Y36130D01*
X-75865D01*
Y35914D01*
X-76082D01*
Y34183D01*
X-75865D01*
Y33750D01*
X-73918D01*
Y33966D01*
X-73486D01*
Y34183D01*
X-73053D01*
Y34399D01*
X-72837D01*
Y34615D01*
X-72620D01*
Y34832D01*
X-72404D01*
Y35048D01*
X-72188D01*
Y35264D01*
X-71971D01*
Y35481D01*
X-71755D01*
Y35697D01*
X-71539D01*
Y35914D01*
X-71322D01*
Y36130D01*
X-71106D01*
Y36346D01*
X-70889D01*
Y36562D01*
X-70673D01*
Y36779D01*
X-70457D01*
Y37211D01*
X-70240D01*
Y37428D01*
X-70024D01*
Y37644D01*
X-69808D01*
Y37861D01*
X-69591D01*
Y38293D01*
X-69375D01*
Y38510D01*
X-69159D01*
Y38726D01*
X-68942D01*
Y39159D01*
X-68726D01*
Y39375D01*
X-68510D01*
Y39591D01*
X-68293D01*
Y40024D01*
X-68077D01*
Y40240D01*
X-67861D01*
Y40673D01*
X-67644D01*
Y40889D01*
X-67428D01*
Y41322D01*
X-67212D01*
Y41755D01*
X-66995D01*
Y41971D01*
X-66779D01*
Y42404D01*
X-66562D01*
Y42836D01*
X-66346D01*
Y43486D01*
X-66130D01*
Y44135D01*
X-65913D01*
Y45000D01*
X-65697D01*
Y47596D01*
X-65913D01*
Y48029D01*
X-66130D01*
Y48245D01*
X-66346D01*
Y48461D01*
X-66562D01*
Y48678D01*
X-66779D01*
Y48894D01*
X-66995D01*
Y49111D01*
X-67428D01*
Y49327D01*
X-67861D01*
Y49543D01*
X-68293D01*
Y49760D01*
X-68942D01*
Y49976D01*
D02*
G37*
G36*
X-79327Y16659D02*
X-79760D01*
Y16442D01*
X-79976D01*
Y16226D01*
X-80192D01*
Y15361D01*
X-79976D01*
Y15144D01*
X-79111D01*
Y15361D01*
X-78894D01*
Y15577D01*
X-78678D01*
Y16010D01*
X-78894D01*
Y16226D01*
X-79111D01*
Y16442D01*
X-79327D01*
Y16659D01*
D02*
G37*
G36*
X-94038Y16442D02*
X-94471D01*
Y16226D01*
X-94687D01*
Y15793D01*
X-94904D01*
Y15361D01*
X-94687D01*
Y14928D01*
X-94471D01*
Y14712D01*
X-94038D01*
Y14928D01*
X-93606D01*
Y15361D01*
X-93389D01*
Y15793D01*
X-93606D01*
Y16226D01*
X-94038D01*
Y16442D01*
D02*
G37*
G36*
X-85168Y12115D02*
X-88630D01*
Y11899D01*
X-88846D01*
Y11683D01*
X-88630D01*
Y11466D01*
X-84952D01*
Y11899D01*
X-85168D01*
Y12115D01*
D02*
G37*
%LPD*%
D10*
X-64606Y405433D02*
G03*
X-64606Y405433I-394J0D01*
G01*
D11*
X-71016Y422799D02*
G03*
X-71016Y422799I-862J0D01*
G01*
D12*
X-200001Y480000D02*
X-147001D01*
Y410000D02*
Y480000D01*
X-200001Y410000D02*
X-147001D01*
X-200001D02*
Y480000D01*
X70000Y195000D02*
Y265000D01*
X-75000D02*
X70000D01*
X-75000Y195000D02*
Y265000D01*
Y195000D02*
X70000D01*
X-131909Y188760D02*
X135807D01*
Y62776D02*
Y188760D01*
X-131909Y62776D02*
X135807D01*
X-131909D02*
Y188760D01*
X-200000Y285000D02*
Y390000D01*
X-154000D01*
Y361000D02*
Y390000D01*
Y361000D02*
X-81000D01*
Y314000D02*
Y361000D01*
X-154000Y314000D02*
X-81000D01*
X-154000Y285000D02*
Y314000D01*
X-200000Y285000D02*
X-154000D01*
X-20000Y295000D02*
X20000D01*
Y365000D01*
X-20000D02*
X20000D01*
X-20000Y295000D02*
Y365000D01*
X-96472Y460000D02*
X-90000D01*
X-96043Y419843D02*
X-90000D01*
Y460000D01*
X200000Y80000D02*
Y160000D01*
X140000D02*
X200000D01*
X140000Y80000D02*
Y160000D01*
Y80000D02*
X200000D01*
X-50000Y360000D02*
X-40000D01*
Y300000D02*
Y360000D01*
X-50000Y300000D02*
X-40000D01*
X-50000D02*
Y360000D01*
X-140000Y80000D02*
Y160000D01*
X-200000D02*
X-140000D01*
X-200000Y80000D02*
Y160000D01*
Y80000D02*
X-140000D01*
X200000Y285000D02*
Y390000D01*
X154000Y285000D02*
X200000D01*
X154000D02*
Y314000D01*
X81000D02*
X154000D01*
X81000D02*
Y361000D01*
X154000D01*
Y390000D01*
X200000D01*
X-35000Y500D02*
Y53500D01*
X35000D01*
Y500D02*
Y53500D01*
X-35000Y500D02*
X35000D01*
Y427000D02*
Y480000D01*
X-35000Y427000D02*
X35000D01*
X-35000D02*
Y480000D01*
X35000D01*
X147000Y410000D02*
X200000D01*
X147000D02*
Y480000D01*
X200000D01*
Y410000D02*
Y480000D01*
X40000Y300000D02*
X50000D01*
X40000D02*
Y360000D01*
X50000D01*
Y300000D02*
Y360000D01*
X-196502Y489498D02*
Y484500D01*
X-195502Y483500D01*
X-193503D01*
X-192503Y484500D01*
Y489498D01*
X-186505D02*
X-188505Y488498D01*
X-190504Y486499D01*
Y484500D01*
X-189504Y483500D01*
X-187505D01*
X-186505Y484500D01*
Y485499D01*
X-187505Y486499D01*
X-190504D01*
X-69000Y221998D02*
Y217000D01*
X-68000Y216000D01*
X-66001D01*
X-65001Y217000D01*
Y221998D01*
X-59003Y216000D02*
X-63002D01*
X-59003Y219999D01*
Y220998D01*
X-60003Y221998D01*
X-62002D01*
X-63002Y220998D01*
X-76700Y415198D02*
Y409200D01*
X-73701D01*
X-72701Y410200D01*
Y411199D01*
X-73701Y412199D01*
X-76700D01*
X-73701D01*
X-72701Y413199D01*
Y414198D01*
X-73701Y415198D01*
X-76700D01*
X-66703Y409200D02*
X-70702D01*
X-66703Y413199D01*
Y414198D01*
X-67703Y415198D01*
X-69702D01*
X-70702Y414198D01*
X-104000Y85998D02*
Y81000D01*
X-103000Y80000D01*
X-101001D01*
X-100001Y81000D01*
Y85998D01*
X-94003D02*
X-98002D01*
Y82999D01*
X-96003Y83999D01*
X-95003D01*
X-94003Y82999D01*
Y81000D01*
X-95003Y80000D01*
X-97002D01*
X-98002Y81000D01*
X-189998Y392001D02*
Y397999D01*
X-187999Y396000D01*
X-186000Y397999D01*
Y392001D01*
X-181001D02*
Y397999D01*
X-184000Y395000D01*
X-180002D01*
X0Y374998D02*
Y370000D01*
X1000Y369000D01*
X2999D01*
X3999Y370000D01*
Y374998D01*
X5998Y373998D02*
X6998Y374998D01*
X8997D01*
X9997Y373998D01*
Y372999D01*
X8997Y371999D01*
X9997Y370999D01*
Y370000D01*
X8997Y369000D01*
X6998D01*
X5998Y370000D01*
Y370999D01*
X6998Y371999D01*
X5998Y372999D01*
Y373998D01*
X6998Y371999D02*
X8997D01*
X-83999Y467999D02*
Y462001D01*
X-81000D01*
X-80000Y463001D01*
Y464000D01*
X-81000Y465000D01*
X-83999D01*
X-81000D01*
X-80000Y466000D01*
Y466999D01*
X-81000Y467999D01*
X-83999D01*
X-78001Y462001D02*
X-76001D01*
X-77001D01*
Y467999D01*
X-78001Y466999D01*
X71500Y416999D02*
X70501Y417999D01*
X68501D01*
X67502Y416999D01*
Y413001D01*
X68501Y412001D01*
X70501D01*
X71500Y413001D01*
X73500Y416999D02*
X74499Y417999D01*
X76499D01*
X77498Y416999D01*
Y416000D01*
X76499Y415000D01*
X77498Y414000D01*
Y413001D01*
X76499Y412001D01*
X74499D01*
X73500Y413001D01*
Y414000D01*
X74499Y415000D01*
X73500Y416000D01*
Y416999D01*
X74499Y415000D02*
X76499D01*
X190002Y162001D02*
Y167999D01*
X192001Y166000D01*
X194000Y167999D01*
Y162001D01*
X199998D02*
X196000D01*
X199998Y166000D01*
Y166999D01*
X198999Y167999D01*
X196999D01*
X196000Y166999D01*
X-49998Y369999D02*
Y365001D01*
X-48999Y364001D01*
X-46999D01*
X-46000Y365001D01*
Y369999D01*
X-44000Y365001D02*
X-43001Y364001D01*
X-41001D01*
X-40002Y365001D01*
Y368999D01*
X-41001Y369999D01*
X-43001D01*
X-44000Y368999D01*
Y368000D01*
X-43001Y367000D01*
X-40002D01*
X-50901Y430898D02*
X-51901Y431898D01*
X-53900D01*
X-54900Y430898D01*
Y426900D01*
X-53900Y425900D01*
X-51901D01*
X-50901Y426900D01*
X-48902Y425900D02*
X-46903D01*
X-47902D01*
Y431898D01*
X-48902Y430898D01*
X114000Y427499D02*
X113001Y428499D01*
X111001D01*
X110002Y427499D01*
Y423501D01*
X111001Y422501D01*
X113001D01*
X114000Y423501D01*
X119998Y422501D02*
X116000D01*
X119998Y426500D01*
Y427499D01*
X118999Y428499D01*
X116999D01*
X116000Y427499D01*
X114532Y446999D02*
X113532Y447999D01*
X111533D01*
X110533Y446999D01*
Y443001D01*
X111533Y442001D01*
X113532D01*
X114532Y443001D01*
X116531Y446999D02*
X117531Y447999D01*
X119530D01*
X120530Y446999D01*
Y446000D01*
X119530Y445000D01*
X118530D01*
X119530D01*
X120530Y444000D01*
Y443001D01*
X119530Y442001D01*
X117531D01*
X116531Y443001D01*
X71500Y426999D02*
X70501Y427999D01*
X68501D01*
X67502Y426999D01*
Y423001D01*
X68501Y422001D01*
X70501D01*
X71500Y423001D01*
X76499Y422001D02*
Y427999D01*
X73500Y425000D01*
X77498D01*
X71500Y447999D02*
X70501Y448999D01*
X68501D01*
X67502Y447999D01*
Y444001D01*
X68501Y443001D01*
X70501D01*
X71500Y444001D01*
X77498Y448999D02*
X73500D01*
Y446000D01*
X75499Y447000D01*
X76499D01*
X77498Y446000D01*
Y444001D01*
X76499Y443001D01*
X74499D01*
X73500Y444001D01*
X114000Y436999D02*
X113001Y437999D01*
X111001D01*
X110002Y436999D01*
Y433001D01*
X111001Y432001D01*
X113001D01*
X114000Y433001D01*
X119998Y437999D02*
X117999Y436999D01*
X116000Y435000D01*
Y433001D01*
X116999Y432001D01*
X118999D01*
X119998Y433001D01*
Y434000D01*
X118999Y435000D01*
X116000D01*
X70500Y436999D02*
X69501Y437999D01*
X67501D01*
X66502Y436999D01*
Y433001D01*
X67501Y432001D01*
X69501D01*
X70500Y433001D01*
X72500Y437999D02*
X76498D01*
Y436999D01*
X72500Y433001D01*
Y432001D01*
X-199500Y163500D02*
Y169498D01*
X-197501Y167499D01*
X-195501Y169498D01*
Y163500D01*
X-193502D02*
X-191503D01*
X-192502D01*
Y169498D01*
X-193502Y168498D01*
X180002Y392001D02*
Y397999D01*
X182001Y396000D01*
X184000Y397999D01*
Y392001D01*
X186000Y396999D02*
X186999Y397999D01*
X188999D01*
X189998Y396999D01*
Y396000D01*
X188999Y395000D01*
X187999D01*
X188999D01*
X189998Y394000D01*
Y393001D01*
X188999Y392001D01*
X186999D01*
X186000Y393001D01*
X-49000Y16998D02*
Y12000D01*
X-48000Y11000D01*
X-46001D01*
X-45001Y12000D01*
Y16998D01*
X-43002Y11000D02*
X-41003D01*
X-42002D01*
Y16998D01*
X-43002Y15998D01*
X31998Y459000D02*
X27000D01*
X26000Y458000D01*
Y456001D01*
X27000Y455001D01*
X31998D01*
X30998Y453002D02*
X31998Y452002D01*
Y450003D01*
X30998Y449003D01*
X29999D01*
X28999Y450003D01*
Y451003D01*
Y450003D01*
X27999Y449003D01*
X27000D01*
X26000Y450003D01*
Y452002D01*
X27000Y453002D01*
X171000Y476998D02*
Y472000D01*
X172000Y471000D01*
X173999D01*
X174999Y472000D01*
Y476998D01*
X179997Y471000D02*
Y476998D01*
X176998Y473999D01*
X180997D01*
X40500Y369498D02*
Y364500D01*
X41500Y363500D01*
X43499D01*
X44499Y364500D01*
Y369498D01*
X46498D02*
X50497D01*
Y368498D01*
X46498Y364500D01*
Y363500D01*
D13*
X-76614Y379224D02*
Y402874D01*
X-58110Y379224D02*
Y402874D01*
X-76614Y379224D02*
X-58110D01*
X-76614Y402874D02*
X-58110D01*
D14*
X45500Y43000D02*
Y57995D01*
X52998D01*
X55497Y55496D01*
Y50498D01*
X52998Y47998D01*
X45500D01*
X62994Y52997D02*
X67993D01*
X70492Y50498D01*
Y43000D01*
X62994D01*
X60495Y45499D01*
X62994Y47998D01*
X70492D01*
X85487Y52997D02*
X77990D01*
X75490Y50498D01*
Y45499D01*
X77990Y43000D01*
X85487D01*
X90486Y57995D02*
Y43000D01*
X97983D01*
X100482Y45499D01*
Y47998D01*
X97983Y50498D01*
X90486D01*
X97983D01*
X100482Y52997D01*
Y55496D01*
X97983Y57995D01*
X90486D01*
X107980Y43000D02*
X112978D01*
X115477Y45499D01*
Y50498D01*
X112978Y52997D01*
X107980D01*
X105481Y50498D01*
Y45499D01*
X107980Y43000D01*
X122975Y55496D02*
Y52997D01*
X120476D01*
X125474D01*
X122975D01*
Y45499D01*
X125474Y43000D01*
X132972Y57995D02*
Y47998D01*
X137970Y43000D01*
X142968Y47998D01*
Y57995D01*
X147967Y43000D02*
X152965D01*
X150466D01*
Y57995D01*
X147967Y55496D01*
X67997Y17996D02*
X65498Y20495D01*
X60499D01*
X58000Y17996D01*
Y7999D01*
X60499Y5500D01*
X65498D01*
X67997Y7999D01*
X72995Y20495D02*
Y7999D01*
X75494Y5500D01*
X80493D01*
X82992Y7999D01*
Y20495D01*
X87990Y5500D02*
Y20495D01*
X95488D01*
X97987Y17996D01*
Y12998D01*
X95488Y10498D01*
X87990D01*
X92989D02*
X97987Y5500D01*
X112982Y17996D02*
X110483Y20495D01*
X105485D01*
X102985Y17996D01*
Y7999D01*
X105485Y5500D01*
X110483D01*
X112982Y7999D01*
M02*
